%TF.GenerationSoftware,KiCad,Pcbnew,8.0.1*%
%TF.CreationDate,2024-07-30T14:49:35+02:00*%
%TF.ProjectId,driver,64726976-6572-42e6-9b69-6361645f7063,rev?*%
%TF.SameCoordinates,Original*%
%TF.FileFunction,Copper,L1,Top*%
%TF.FilePolarity,Positive*%
%FSLAX46Y46*%
G04 Gerber Fmt 4.6, Leading zero omitted, Abs format (unit mm)*
G04 Created by KiCad (PCBNEW 8.0.1) date 2024-07-30 14:49:35*
%MOMM*%
%LPD*%
G01*
G04 APERTURE LIST*
G04 Aperture macros list*
%AMRoundRect*
0 Rectangle with rounded corners*
0 $1 Rounding radius*
0 $2 $3 $4 $5 $6 $7 $8 $9 X,Y pos of 4 corners*
0 Add a 4 corners polygon primitive as box body*
4,1,4,$2,$3,$4,$5,$6,$7,$8,$9,$2,$3,0*
0 Add four circle primitives for the rounded corners*
1,1,$1+$1,$2,$3*
1,1,$1+$1,$4,$5*
1,1,$1+$1,$6,$7*
1,1,$1+$1,$8,$9*
0 Add four rect primitives between the rounded corners*
20,1,$1+$1,$2,$3,$4,$5,0*
20,1,$1+$1,$4,$5,$6,$7,0*
20,1,$1+$1,$6,$7,$8,$9,0*
20,1,$1+$1,$8,$9,$2,$3,0*%
G04 Aperture macros list end*
%TA.AperFunction,EtchedComponent*%
%ADD10C,0.000000*%
%TD*%
%TA.AperFunction,SMDPad,CuDef*%
%ADD11RoundRect,0.250000X-0.337500X-0.475000X0.337500X-0.475000X0.337500X0.475000X-0.337500X0.475000X0*%
%TD*%
%TA.AperFunction,SMDPad,CuDef*%
%ADD12RoundRect,0.250000X0.337500X0.475000X-0.337500X0.475000X-0.337500X-0.475000X0.337500X-0.475000X0*%
%TD*%
%TA.AperFunction,SMDPad,CuDef*%
%ADD13R,1.550000X1.300000*%
%TD*%
%TA.AperFunction,ComponentPad*%
%ADD14C,1.300000*%
%TD*%
%TA.AperFunction,ComponentPad*%
%ADD15R,1.500000X1.500000*%
%TD*%
%TA.AperFunction,ComponentPad*%
%ADD16C,1.500000*%
%TD*%
%TA.AperFunction,SMDPad,CuDef*%
%ADD17RoundRect,0.150000X-0.512500X-0.150000X0.512500X-0.150000X0.512500X0.150000X-0.512500X0.150000X0*%
%TD*%
%TA.AperFunction,ComponentPad*%
%ADD18C,1.440000*%
%TD*%
%TA.AperFunction,ConnectorPad*%
%ADD19C,0.787400*%
%TD*%
%TA.AperFunction,ComponentPad*%
%ADD20R,3.000000X1.800000*%
%TD*%
%TA.AperFunction,ComponentPad*%
%ADD21O,3.000000X1.800000*%
%TD*%
%TA.AperFunction,ComponentPad*%
%ADD22O,3.000000X1.600000*%
%TD*%
%TA.AperFunction,ComponentPad*%
%ADD23R,1.050000X1.500000*%
%TD*%
%TA.AperFunction,ComponentPad*%
%ADD24O,1.050000X1.500000*%
%TD*%
%TA.AperFunction,ComponentPad*%
%ADD25R,2.000000X2.000000*%
%TD*%
%TA.AperFunction,ComponentPad*%
%ADD26C,2.000000*%
%TD*%
%TA.AperFunction,ComponentPad*%
%ADD27R,1.600000X1.600000*%
%TD*%
%TA.AperFunction,ComponentPad*%
%ADD28O,1.600000X1.600000*%
%TD*%
%TA.AperFunction,WasherPad*%
%ADD29O,1.900000X1.360000*%
%TD*%
%TA.AperFunction,ComponentPad*%
%ADD30O,1.360000X1.900000*%
%TD*%
%TA.AperFunction,ComponentPad*%
%ADD31O,1.900000X1.360000*%
%TD*%
%TA.AperFunction,ComponentPad*%
%ADD32C,1.270000*%
%TD*%
%TA.AperFunction,ComponentPad*%
%ADD33R,1.905000X2.000000*%
%TD*%
%TA.AperFunction,ComponentPad*%
%ADD34O,1.905000X2.000000*%
%TD*%
%TA.AperFunction,ViaPad*%
%ADD35C,0.600000*%
%TD*%
%TA.AperFunction,ViaPad*%
%ADD36C,2.000000*%
%TD*%
%TA.AperFunction,ViaPad*%
%ADD37C,2.500000*%
%TD*%
%TA.AperFunction,ViaPad*%
%ADD38C,1.500000*%
%TD*%
%TA.AperFunction,Conductor*%
%ADD39C,0.200000*%
%TD*%
%TA.AperFunction,Conductor*%
%ADD40C,1.000000*%
%TD*%
%TA.AperFunction,Conductor*%
%ADD41C,2.000000*%
%TD*%
%TA.AperFunction,Conductor*%
%ADD42C,0.500000*%
%TD*%
G04 APERTURE END LIST*
D10*
%TA.AperFunction,EtchedComponent*%
%TO.C,NT3*%
G36*
X166600000Y-98650000D02*
G01*
X164000000Y-98650000D01*
X164000000Y-97350000D01*
X166600000Y-97350000D01*
X166600000Y-98650000D01*
G37*
%TD.AperFunction*%
%TD*%
D11*
%TO.P,C4,1*%
%TO.N,+5V*%
X164962500Y-81000000D03*
%TO.P,C4,2*%
%TO.N,GNDPWR*%
X167037500Y-81000000D03*
%TD*%
%TO.P,C11,1*%
%TO.N,+3.3V*%
X173962500Y-101000000D03*
%TO.P,C11,2*%
%TO.N,GNDD*%
X176037500Y-101000000D03*
%TD*%
%TO.P,C12,1*%
%TO.N,+3.0V*%
X173962500Y-105000000D03*
%TO.P,C12,2*%
%TO.N,GNDD*%
X176037500Y-105000000D03*
%TD*%
%TO.P,C5,1*%
%TO.N,+5V*%
X164962500Y-86000000D03*
%TO.P,C5,2*%
%TO.N,GNDPWR*%
X167037500Y-86000000D03*
%TD*%
%TO.P,C10,1*%
%TO.N,+3.3V*%
X173962500Y-97000000D03*
%TO.P,C10,2*%
%TO.N,GNDD*%
X176037500Y-97000000D03*
%TD*%
D12*
%TO.P,C3,1*%
%TO.N,+24V*%
X175037500Y-81000000D03*
%TO.P,C3,2*%
%TO.N,GNDPWR*%
X172962500Y-81000000D03*
%TD*%
D11*
%TO.P,C9,1*%
%TO.N,+5V*%
X168962500Y-109000000D03*
%TO.P,C9,2*%
%TO.N,GNDD*%
X171037500Y-109000000D03*
%TD*%
D13*
%TO.P,SW2,1,1*%
%TO.N,BTN_OK*%
X234425000Y-75350000D03*
X242375000Y-75350000D03*
%TO.P,SW2,2,2*%
%TO.N,GNDD*%
X234425000Y-79850000D03*
X242375000Y-79850000D03*
%TD*%
%TO.P,SW3,1,1*%
%TO.N,BTN_DOWN*%
X234425000Y-89850000D03*
X242375000Y-89850000D03*
%TO.P,SW3,2,2*%
%TO.N,GNDD*%
X234425000Y-94350000D03*
X242375000Y-94350000D03*
%TD*%
D11*
%TO.P,C13,1*%
%TO.N,+3.0V*%
X173962500Y-109000000D03*
%TO.P,C13,2*%
%TO.N,GNDD*%
X176037500Y-109000000D03*
%TD*%
D14*
%TO.P,NT3,1,1*%
%TO.N,GNDPWR*%
X164000000Y-98000000D03*
%TO.P,NT3,2,2*%
%TO.N,GNDD*%
X166600000Y-98000000D03*
%TD*%
D15*
%TO.P,U5,1,VSS*%
%TO.N,GNDD*%
X154500000Y-61670000D03*
D16*
%TO.P,U5,2,VDD*%
%TO.N,+3.3V*%
X154500000Y-64210000D03*
%TO.P,U5,3,VO*%
%TO.N,Net-(U5-VO)*%
X154500000Y-66750000D03*
%TO.P,U5,4,RS*%
%TO.N,LCD_RS*%
X154500000Y-69290000D03*
%TO.P,U5,5,R/W*%
%TO.N,LCD_RW*%
X154500000Y-71830000D03*
%TO.P,U5,6,E*%
%TO.N,LCD_E*%
X154500000Y-74370000D03*
%TO.P,U5,7,DB0*%
%TO.N,unconnected-(U5-DB0-Pad7)*%
X154500000Y-76910000D03*
%TO.P,U5,8,DB1*%
%TO.N,unconnected-(U5-DB1-Pad8)*%
X154500000Y-79450000D03*
%TO.P,U5,9,DB2*%
%TO.N,unconnected-(U5-DB2-Pad9)*%
X229500000Y-61670000D03*
%TO.P,U5,10,DB3*%
%TO.N,unconnected-(U5-DB3-Pad10)*%
X229500000Y-64210000D03*
%TO.P,U5,11,DB4*%
%TO.N,Net-(U3-PA4)*%
X229500000Y-66750000D03*
%TO.P,U5,12,DB5*%
%TO.N,Net-(U3-PA5)*%
X229500000Y-69290000D03*
%TO.P,U5,13,DB6*%
%TO.N,Net-(U3-PA6)*%
X229500000Y-71830000D03*
%TO.P,U5,14,DB7*%
%TO.N,Net-(U3-PA7)*%
X229500000Y-74370000D03*
%TO.P,U5,15,A*%
%TO.N,GNDPWR*%
X229500000Y-76910000D03*
%TO.P,U5,16,K*%
%TO.N,+3.0V*%
X229500000Y-79450000D03*
%TD*%
D17*
%TO.P,Q1,1,G*%
%TO.N,Net-(Q1-G)*%
X181862500Y-97050000D03*
%TO.P,Q1,2,S*%
%TO.N,Net-(Q1-S)*%
X181862500Y-98950000D03*
%TO.P,Q1,3,D*%
%TO.N,Net-(Q1-D)*%
X184137500Y-98000000D03*
%TD*%
D13*
%TO.P,SW1,1,1*%
%TO.N,BTN_UP*%
X234425000Y-60850000D03*
X242375000Y-60850000D03*
%TO.P,SW1,2,2*%
%TO.N,GNDD*%
X234425000Y-65350000D03*
X242375000Y-65350000D03*
%TD*%
D12*
%TO.P,C2,1*%
%TO.N,+24V*%
X175037500Y-86000000D03*
%TO.P,C2,2*%
%TO.N,GNDPWR*%
X172962500Y-86000000D03*
%TD*%
D18*
%TO.P,RV1,1,1*%
%TO.N,+3.3V*%
X226460000Y-99540000D03*
%TO.P,RV1,2,2*%
%TO.N,Net-(U5-VO)*%
X229000000Y-97000000D03*
%TO.P,RV1,3,3*%
%TO.N,GNDD*%
X226460000Y-94460000D03*
%TD*%
D19*
%TO.P,J3,1,Pin_1*%
%TO.N,SCK*%
X210460000Y-104635000D03*
%TO.P,J3,2,Pin_2*%
%TO.N,GNDD*%
X211730000Y-104635000D03*
%TO.P,J3,3,Pin_3*%
%TO.N,MISO*%
X213000000Y-104635000D03*
%TO.P,J3,4,Pin_4*%
%TO.N,+5V*%
X214270000Y-104635000D03*
%TO.P,J3,5,Pin_5*%
%TO.N,unconnected-(J3-Pin_5-Pad5)*%
X215540000Y-104635000D03*
%TO.P,J3,6,Pin_6*%
%TO.N,~{RESET}*%
X215540000Y-103365000D03*
%TO.P,J3,7,Pin_7*%
%TO.N,unconnected-(J3-Pin_7-Pad7)*%
X214270000Y-103365000D03*
%TO.P,J3,8,Pin_8*%
%TO.N,unconnected-(J3-Pin_8-Pad8)*%
X213000000Y-103365000D03*
%TO.P,J3,9,Pin_9*%
%TO.N,MOSI*%
X211730000Y-103365000D03*
%TO.P,J3,10,Pin_10*%
%TO.N,unconnected-(J3-Pin_10-Pad10)*%
X210460000Y-103365000D03*
%TD*%
D11*
%TO.P,C8,1*%
%TO.N,+5V*%
X168962500Y-101000000D03*
%TO.P,C8,2*%
%TO.N,GNDD*%
X171037500Y-101000000D03*
%TD*%
D20*
%TO.P,J2,1*%
%TO.N,+24V*%
X160000000Y-92000000D03*
D21*
%TO.P,J2,2*%
%TO.N,GNDPWR*%
X160000000Y-100500000D03*
%TO.P,J2,3*%
%TO.N,unconnected-(J2-Pad3)*%
X160000000Y-95200000D03*
D22*
%TO.P,J2,SH*%
%TO.N,N/C*%
X152700000Y-101400000D03*
X152700000Y-91600000D03*
%TD*%
D23*
%TO.P,U7,1,GND*%
%TO.N,GNDD*%
X169000000Y-105000000D03*
D24*
%TO.P,U7,2,VI*%
%TO.N,+5V*%
X170270000Y-105000000D03*
%TO.P,U7,3,VO*%
%TO.N,+3.0V*%
X171540000Y-105000000D03*
%TD*%
D25*
%TO.P,J1,1,Pin_1*%
%TO.N,/Resistive Heater Driver/UH1*%
X206750000Y-91900000D03*
D26*
%TO.P,J1,2,Pin_2*%
%TO.N,+24V*%
X210250000Y-91900000D03*
%TO.P,J1,3,Pin_3*%
%TO.N,Net-(J1-Pin_3)*%
X213750000Y-91900000D03*
%TO.P,J1,4,Pin_4*%
%TO.N,/Resistive Heater Driver/UH2*%
X217250000Y-91900000D03*
%TD*%
D27*
%TO.P,D1,1,K*%
%TO.N,+5V*%
X201000000Y-94380000D03*
D28*
%TO.P,D1,2,A*%
%TO.N,Net-(D1-A)*%
X201000000Y-102000000D03*
%TD*%
D23*
%TO.P,U6,1,GND*%
%TO.N,GNDD*%
X169000000Y-97000000D03*
D24*
%TO.P,U6,2,VI*%
%TO.N,+5V*%
X170270000Y-97000000D03*
%TO.P,U6,3,VO*%
%TO.N,+3.3V*%
X171540000Y-97000000D03*
%TD*%
D29*
%TO.P,K1,*%
%TO.N,*%
X180799998Y-92000002D03*
D30*
%TO.P,K1,13*%
%TO.N,Net-(J1-Pin_3)*%
X195000000Y-98000000D03*
D31*
%TO.P,K1,14*%
%TO.N,Net-(Q1-D)*%
X180799998Y-103999998D03*
D32*
%TO.P,K1,A1*%
%TO.N,Net-(D1-A)*%
X192999999Y-92000002D03*
%TO.P,K1,A2*%
%TO.N,+5V*%
X192999999Y-103999998D03*
%TD*%
D33*
%TO.P,U2,1,VIN*%
%TO.N,+24V*%
X172540000Y-91230000D03*
D34*
%TO.P,U2,2,GND*%
%TO.N,GNDPWR*%
X170000000Y-91230000D03*
%TO.P,U2,3,VOUT*%
%TO.N,+5V*%
X167460000Y-91230000D03*
%TD*%
D35*
%TO.N,GNDD*%
X192500000Y-56000000D03*
X240000000Y-67000000D03*
X201000000Y-68000000D03*
X211730000Y-106000000D03*
X228400000Y-90000000D03*
X232500000Y-84000000D03*
X210500000Y-65500000D03*
X198000000Y-81500000D03*
X200000000Y-63500000D03*
X162000000Y-87000000D03*
X198000000Y-86000000D03*
X243000000Y-81500000D03*
X190400000Y-66000000D03*
X173000000Y-57000000D03*
X232000000Y-93000000D03*
X232000000Y-81000000D03*
X242500000Y-91500000D03*
X173000000Y-61000000D03*
X212000000Y-61000000D03*
D36*
%TO.N,GNDPWR*%
X192000000Y-107000000D03*
D37*
X213500000Y-86000000D03*
D36*
X189000000Y-102000000D03*
X199000000Y-100000000D03*
X198000000Y-94700000D03*
%TO.N,+24V*%
X199411270Y-91700000D03*
X163250000Y-107250000D03*
X181500000Y-107500000D03*
D35*
%TO.N,+5V*%
X218000000Y-98500000D03*
D38*
X246500000Y-85500000D03*
X239000000Y-87000000D03*
X237000000Y-104500000D03*
D35*
X220000000Y-104000000D03*
%TO.N,+3.3V*%
X159000000Y-78411198D03*
X196000000Y-90000000D03*
%TO.N,+3.0V*%
X217000000Y-87000000D03*
%TO.N,Net-(D1-A)*%
X195500000Y-85750000D03*
%TO.N,/Resistive Heater Driver/UH1*%
X206000000Y-77000000D03*
%TO.N,/Resistive Heater Driver/UH2*%
X205000000Y-76000000D03*
D37*
%TO.N,Net-(Q1-S)*%
X187500000Y-90000000D03*
D35*
%TO.N,Net-(Q1-G)*%
X189000000Y-70000000D03*
X191000000Y-87000000D03*
X185000000Y-63000000D03*
%TO.N,Net-(U3-PB3)*%
X228000000Y-89000000D03*
X226000000Y-88000000D03*
%TO.N,Net-(U1C-+)*%
X181000000Y-70000000D03*
X182000000Y-74000000D03*
%TO.N,Net-(U1D-+)*%
X181000000Y-68000000D03*
X180000000Y-75000000D03*
%TO.N,Net-(U1B-+)*%
X176000000Y-67000000D03*
X187000000Y-68000000D03*
%TO.N,Net-(U1B--)*%
X186000000Y-71000000D03*
X183000000Y-63000000D03*
%TO.N,Net-(R6-Pad2)*%
X186000000Y-64000000D03*
X186000000Y-72000000D03*
%TO.N,Net-(U4B-+)*%
X199000000Y-68000000D03*
X206000000Y-69000000D03*
%TO.N,Net-(U4D--)*%
X212000000Y-64000000D03*
X202000000Y-64000000D03*
%TO.N,BTN_UP*%
X247000000Y-101000000D03*
%TO.N,BTN_OK*%
X247000000Y-99000000D03*
%TO.N,BTN_DOWN*%
X244000000Y-100000000D03*
%TO.N,/Resistive Heater Driver/IMEAS_REF*%
X191000000Y-64000000D03*
X185291413Y-66276792D03*
%TO.N,IMEAS*%
X189000000Y-58000000D03*
X184000000Y-62000000D03*
X238000000Y-93750000D03*
X236000000Y-84000000D03*
%TO.N,LCD_RS*%
X208000000Y-74000000D03*
X222000000Y-81000000D03*
X217000000Y-89000000D03*
%TO.N,LCD_E*%
X192000000Y-78000000D03*
%TO.N,LCD_RW*%
X229000000Y-101000000D03*
%TO.N,SCK*%
X233034314Y-96365000D03*
%TO.N,MOSI*%
X231000000Y-86000000D03*
%TO.N,MISO*%
X231599128Y-89048209D03*
%TO.N,~{RESET}*%
X231600000Y-99000000D03*
%TD*%
D39*
%TO.N,GNDD*%
X212600000Y-61600000D02*
X212000000Y-61000000D01*
X201000000Y-64500000D02*
X200000000Y-63500000D01*
X234425000Y-94350000D02*
X242375000Y-94350000D01*
X169000000Y-104500000D02*
X171037500Y-102462500D01*
X234425000Y-94350000D02*
X233350000Y-94350000D01*
X232500000Y-92500000D02*
X232000000Y-93000000D01*
X168390256Y-110025000D02*
X168000000Y-109634744D01*
X202000000Y-65500000D02*
X210500000Y-65500000D01*
X211000000Y-65000000D02*
X211848529Y-65000000D01*
X240000000Y-67000000D02*
X240725000Y-67000000D01*
X166600000Y-98000000D02*
X166600000Y-102600000D01*
X171037500Y-102462500D02*
X171037500Y-101000000D01*
X173000000Y-57000000D02*
X173000000Y-61000000D01*
X176037500Y-109000000D02*
X175012500Y-110025000D01*
X228400000Y-90000000D02*
X226460000Y-91940000D01*
X166600000Y-92600000D02*
X162000000Y-88000000D01*
X198000000Y-86000000D02*
X198000000Y-81500000D01*
X233150000Y-79850000D02*
X232000000Y-81000000D01*
X234425000Y-65350000D02*
X242375000Y-65350000D01*
X211848529Y-65000000D02*
X212600000Y-64248529D01*
X192500000Y-63900000D02*
X192500000Y-56000000D01*
X233350000Y-94350000D02*
X232000000Y-93000000D01*
X168000000Y-98000000D02*
X166600000Y-98000000D01*
X166600000Y-98000000D02*
X166600000Y-92600000D01*
X168000000Y-109634744D02*
X168000000Y-106000000D01*
X210500000Y-65500000D02*
X211000000Y-65000000D01*
X201000000Y-68000000D02*
X201000000Y-64500000D01*
X234425000Y-79850000D02*
X242375000Y-79850000D01*
X172062500Y-110025000D02*
X171037500Y-109000000D01*
X190400000Y-66000000D02*
X192500000Y-63900000D01*
X169000000Y-97000000D02*
X168000000Y-98000000D01*
X175012500Y-110025000D02*
X172062500Y-110025000D01*
X226460000Y-91940000D02*
X226460000Y-94460000D01*
X242375000Y-91625000D02*
X242375000Y-94350000D01*
X232500000Y-84000000D02*
X232500000Y-92500000D01*
X170012500Y-110025000D02*
X168390256Y-110025000D01*
X234425000Y-79850000D02*
X233150000Y-79850000D01*
X232000000Y-81000000D02*
X232000000Y-83500000D01*
X211730000Y-106000000D02*
X211730000Y-104635000D01*
X176037500Y-105000000D02*
X176037500Y-101000000D01*
X166600000Y-102600000D02*
X169000000Y-105000000D01*
X232000000Y-83500000D02*
X232500000Y-84000000D01*
X168000000Y-106000000D02*
X169000000Y-105000000D01*
X171037500Y-109000000D02*
X170012500Y-110025000D01*
X242500000Y-91500000D02*
X242375000Y-91625000D01*
X243000000Y-81500000D02*
X243000000Y-80475000D01*
X212600000Y-64248529D02*
X212600000Y-61600000D01*
X176037500Y-101000000D02*
X176037500Y-97000000D01*
X243000000Y-80475000D02*
X242375000Y-79850000D01*
X240725000Y-67000000D02*
X242375000Y-65350000D01*
X162000000Y-88000000D02*
X162000000Y-87000000D01*
X200000000Y-63500000D02*
X202000000Y-65500000D01*
X176037500Y-105000000D02*
X176037500Y-109000000D01*
D40*
%TO.N,GNDPWR*%
X170000000Y-91230000D02*
X170000000Y-88962500D01*
D41*
X198000000Y-99000000D02*
X199000000Y-100000000D01*
D40*
X172962500Y-86000000D02*
X170000000Y-88962500D01*
X172962500Y-81000000D02*
X172962500Y-86000000D01*
D41*
X222590000Y-76910000D02*
X229500000Y-76910000D01*
D40*
X167037500Y-81000000D02*
X167037500Y-86000000D01*
D41*
X189000000Y-104000000D02*
X192000000Y-107000000D01*
X198000000Y-94700000D02*
X198000000Y-99000000D01*
D40*
X170000000Y-88962500D02*
X167037500Y-86000000D01*
D41*
X213500000Y-86000000D02*
X222590000Y-76910000D01*
X189000000Y-102000000D02*
X189000000Y-104000000D01*
D40*
%TO.N,+24V*%
X175037500Y-86000000D02*
X175037500Y-88732500D01*
X175037500Y-81000000D02*
X175037500Y-86000000D01*
X175037500Y-88732500D02*
X172540000Y-91230000D01*
%TO.N,+5V*%
X164962500Y-81000000D02*
X164962500Y-86000000D01*
X202500000Y-95880000D02*
X201000000Y-94380000D01*
X170270000Y-98730000D02*
X170270000Y-97000000D01*
X170270000Y-106405000D02*
X170270000Y-105000000D01*
X168962500Y-101000000D02*
X168962500Y-100037500D01*
X202500000Y-102621321D02*
X202500000Y-95880000D01*
D42*
X213000000Y-108000000D02*
X213000000Y-105905000D01*
D40*
X164962500Y-88732500D02*
X167460000Y-91230000D01*
D42*
X213000000Y-105905000D02*
X214270000Y-104635000D01*
D40*
X168962500Y-109000000D02*
X168962500Y-107712500D01*
X168962500Y-100037500D02*
X170270000Y-98730000D01*
X218380000Y-94380000D02*
X227000000Y-103000000D01*
X201121323Y-103999998D02*
X202500000Y-102621321D01*
X164962500Y-86000000D02*
X164962500Y-88732500D01*
X192999999Y-103999998D02*
X201121323Y-103999998D01*
X201000000Y-94380000D02*
X218380000Y-94380000D01*
X168962500Y-107712500D02*
X170270000Y-106405000D01*
D39*
%TO.N,+3.3V*%
X196000000Y-90000000D02*
X196100000Y-89900000D01*
X171540000Y-97000000D02*
X173962500Y-97000000D01*
X189009727Y-78411198D02*
X159000000Y-78411198D01*
X173962500Y-97000000D02*
X173962500Y-101000000D01*
X196100000Y-85501471D02*
X189009727Y-78411198D01*
X196100000Y-89900000D02*
X196100000Y-85501471D01*
%TO.N,+3.0V*%
X221950000Y-87000000D02*
X217000000Y-87000000D01*
X173962500Y-105000000D02*
X173962500Y-109000000D01*
X171540000Y-105000000D02*
X173962500Y-105000000D01*
X229500000Y-79450000D02*
X221950000Y-87000000D01*
%TO.N,Net-(D1-A)*%
X192999999Y-88250001D02*
X195500000Y-85750000D01*
X192999999Y-92000002D02*
X192999999Y-88250001D01*
%TO.N,/Resistive Heater Driver/UH1*%
X206750000Y-77750000D02*
X206000000Y-77000000D01*
X206750000Y-91900000D02*
X206750000Y-77750000D01*
%TO.N,/Resistive Heater Driver/UH2*%
X205848529Y-76000000D02*
X207153984Y-77305455D01*
X217207968Y-91900000D02*
X207153984Y-81846016D01*
X207153984Y-77305455D02*
X207153984Y-81846016D01*
X205000000Y-76000000D02*
X205848529Y-76000000D01*
D41*
%TO.N,Net-(Q1-D)*%
X184137500Y-98000000D02*
X184137500Y-100662496D01*
X184137500Y-100662496D02*
X180799998Y-103999998D01*
%TO.N,Net-(Q1-S)*%
X179500000Y-94500000D02*
X179500000Y-97263346D01*
X187500000Y-90000000D02*
X183500000Y-94000000D01*
X183500000Y-94500000D02*
X179500000Y-94500000D01*
X179500000Y-97263346D02*
X181186654Y-98950000D01*
X181186654Y-98950000D02*
X181862500Y-98950000D01*
X183500000Y-94000000D02*
X183500000Y-94500000D01*
D39*
%TO.N,Net-(Q1-G)*%
X188000000Y-65151471D02*
X185848529Y-63000000D01*
X185848529Y-63000000D02*
X185000000Y-63000000D01*
X188000000Y-69000000D02*
X188000000Y-65151471D01*
X183000978Y-97050000D02*
X191000000Y-89050978D01*
X181862500Y-97050000D02*
X183000978Y-97050000D01*
X191000000Y-89050978D02*
X191000000Y-87000000D01*
X188000000Y-69000000D02*
X189000000Y-70000000D01*
%TO.N,Net-(U3-PB3)*%
X227000000Y-89000000D02*
X228000000Y-89000000D01*
X226000000Y-88000000D02*
X227000000Y-89000000D01*
%TO.N,Net-(U1C-+)*%
X182000000Y-71000000D02*
X181000000Y-70000000D01*
X182000000Y-74000000D02*
X182000000Y-71000000D01*
%TO.N,Net-(U1D-+)*%
X180000000Y-75000000D02*
X180000000Y-69000000D01*
X180000000Y-69000000D02*
X181000000Y-68000000D01*
%TO.N,Net-(U1B-+)*%
X176000000Y-67000000D02*
X186000000Y-67000000D01*
X186000000Y-67000000D02*
X187000000Y-68000000D01*
%TO.N,Net-(U1B--)*%
X182400000Y-67400000D02*
X186000000Y-71000000D01*
X183000000Y-63000000D02*
X179151471Y-63000000D01*
X175400000Y-66751471D02*
X175400000Y-67248529D01*
X180151471Y-68000000D02*
X180751471Y-67400000D01*
X180751471Y-67400000D02*
X182400000Y-67400000D01*
X176151471Y-68000000D02*
X180151471Y-68000000D01*
X179151471Y-63000000D02*
X175400000Y-66751471D01*
X175400000Y-67248529D02*
X176151471Y-68000000D01*
%TO.N,Net-(R6-Pad2)*%
X186000000Y-65000000D02*
X187600000Y-66600000D01*
X186000000Y-64000000D02*
X186000000Y-65000000D01*
X187600000Y-70400000D02*
X186000000Y-72000000D01*
X187600000Y-66600000D02*
X187600000Y-70400000D01*
%TO.N,Net-(U4B-+)*%
X200000000Y-69000000D02*
X206000000Y-69000000D01*
X199000000Y-68000000D02*
X200000000Y-69000000D01*
%TO.N,Net-(U4D--)*%
X202000000Y-64000000D02*
X212000000Y-64000000D01*
%TO.N,Net-(U5-VO)*%
X154500000Y-66750000D02*
X166250000Y-55000000D01*
X229000000Y-87000000D02*
X229000000Y-97000000D01*
X231000000Y-85000000D02*
X229000000Y-87000000D01*
X224314925Y-55000000D02*
X231000000Y-61685075D01*
X166250000Y-55000000D02*
X224314925Y-55000000D01*
X231000000Y-61685075D02*
X231000000Y-85000000D01*
%TO.N,BTN_UP*%
X247600000Y-66075000D02*
X247600000Y-100400000D01*
X247600000Y-100400000D02*
X247000000Y-101000000D01*
X242375000Y-60850000D02*
X247600000Y-66075000D01*
X234425000Y-60850000D02*
X242375000Y-60850000D01*
%TO.N,BTN_OK*%
X234425000Y-75350000D02*
X242375000Y-75350000D01*
X244400000Y-96400000D02*
X247000000Y-99000000D01*
X242375000Y-75350000D02*
X244400000Y-77375000D01*
X244400000Y-77375000D02*
X244400000Y-96400000D01*
%TO.N,BTN_DOWN*%
X234425000Y-89850000D02*
X242375000Y-89850000D01*
X242375000Y-89850000D02*
X244000000Y-91475000D01*
X244000000Y-91475000D02*
X244000000Y-100000000D01*
%TO.N,/Resistive Heater Driver/IMEAS_REF*%
X184400000Y-65385379D02*
X184400000Y-62751471D01*
X184751471Y-62400000D02*
X189400000Y-62400000D01*
X189400000Y-62400000D02*
X191000000Y-64000000D01*
X185291413Y-66276792D02*
X184400000Y-65385379D01*
X184400000Y-62751471D02*
X184751471Y-62400000D01*
%TO.N,IMEAS*%
X235800000Y-93750000D02*
X238000000Y-93750000D01*
X233350000Y-91300000D02*
X235800000Y-93750000D01*
X233350000Y-86650000D02*
X233350000Y-91300000D01*
X187000000Y-59000000D02*
X184000000Y-62000000D01*
X188000000Y-59000000D02*
X187000000Y-59000000D01*
X236000000Y-84000000D02*
X233350000Y-86650000D01*
X189000000Y-58000000D02*
X188000000Y-59000000D01*
%TO.N,LCD_RS*%
X216400000Y-88400000D02*
X216400000Y-86600000D01*
X181248529Y-75600000D02*
X175600000Y-75600000D01*
X175600000Y-75600000D02*
X169290000Y-69290000D01*
X216400000Y-86600000D02*
X222000000Y-81000000D01*
X169290000Y-69290000D02*
X154500000Y-69290000D01*
X182848529Y-74000000D02*
X181248529Y-75600000D01*
X208000000Y-74000000D02*
X182848529Y-74000000D01*
X217000000Y-89000000D02*
X216400000Y-88400000D01*
%TO.N,LCD_E*%
X155807331Y-74370000D02*
X154500000Y-74370000D01*
X159437331Y-78000000D02*
X155807331Y-74370000D01*
X192000000Y-78000000D02*
X159437331Y-78000000D01*
%TO.N,LCD_RW*%
X160070000Y-77400000D02*
X195900000Y-77400000D01*
X222200000Y-93200000D02*
X229000000Y-100000000D01*
X229000000Y-100000000D02*
X229000000Y-101000000D01*
X195900000Y-77400000D02*
X205450000Y-86950000D01*
X205450000Y-93200000D02*
X222200000Y-93200000D01*
X205450000Y-86950000D02*
X205450000Y-93200000D01*
X154500000Y-71830000D02*
X160070000Y-77400000D01*
%TO.N,SCK*%
X210853699Y-108853699D02*
X213000000Y-111000000D01*
X233034314Y-101531372D02*
X233034314Y-96365000D01*
X223565686Y-111000000D02*
X233034314Y-101531372D01*
X210460000Y-104635000D02*
X210853699Y-105028699D01*
X213000000Y-111000000D02*
X223565686Y-111000000D01*
X210853699Y-105028699D02*
X210853699Y-108853699D01*
%TO.N,MOSI*%
X227950000Y-104050000D02*
X231000000Y-101000000D01*
X211730000Y-103365000D02*
X211730000Y-102460717D01*
X221922550Y-99922550D02*
X226050000Y-104050000D01*
X226050000Y-104050000D02*
X227950000Y-104050000D01*
X211730000Y-102460717D02*
X214268167Y-99922550D01*
X231000000Y-101000000D02*
X231000000Y-86000000D01*
X214268167Y-99922550D02*
X221922550Y-99922550D01*
%TO.N,MISO*%
X224950000Y-109050000D02*
X232434314Y-101565686D01*
X231400000Y-93400000D02*
X231400000Y-89247337D01*
X212450000Y-105185000D02*
X212450000Y-106550000D01*
X213000000Y-104635000D02*
X212450000Y-105185000D01*
X231400000Y-89247337D02*
X231599128Y-89048209D01*
X232434314Y-101565686D02*
X232434314Y-94434314D01*
X211950000Y-107050000D02*
X211950000Y-108950000D01*
X212050000Y-109050000D02*
X224950000Y-109050000D01*
X232434314Y-94434314D02*
X231400000Y-93400000D01*
X212450000Y-106550000D02*
X211950000Y-107050000D01*
X211950000Y-108950000D02*
X212050000Y-109050000D01*
%TO.N,~{RESET}*%
X215540000Y-103365000D02*
X215540000Y-103058565D01*
X231600000Y-100965685D02*
X231600000Y-99000000D01*
X215540000Y-103058565D02*
X216459865Y-102138700D01*
X226000000Y-105000000D02*
X227565685Y-105000000D01*
X227565685Y-105000000D02*
X231600000Y-100965685D01*
X216459865Y-102138700D02*
X223138700Y-102138700D01*
X223138700Y-102138700D02*
X226000000Y-105000000D01*
%TD*%
%TA.AperFunction,Conductor*%
%TO.N,+5V*%
G36*
X205210315Y-93757409D02*
G01*
X205210706Y-93756466D01*
X205217869Y-93759433D01*
X205218050Y-93759481D01*
X205218216Y-93759577D01*
X205370943Y-93800500D01*
X205529057Y-93800500D01*
X221899903Y-93800500D01*
X221966942Y-93820185D01*
X221987584Y-93836819D01*
X226282271Y-98131506D01*
X226315756Y-98192829D01*
X226310772Y-98262521D01*
X226268900Y-98318454D01*
X226226684Y-98338962D01*
X226040974Y-98388722D01*
X226040968Y-98388725D01*
X225847421Y-98478977D01*
X225672478Y-98601472D01*
X225521472Y-98752478D01*
X225398977Y-98927421D01*
X225308725Y-99120968D01*
X225308721Y-99120977D01*
X225253452Y-99327247D01*
X225253450Y-99327258D01*
X225234838Y-99539998D01*
X225234838Y-99540001D01*
X225253450Y-99752741D01*
X225253452Y-99752752D01*
X225308721Y-99959022D01*
X225308723Y-99959026D01*
X225308724Y-99959030D01*
X225322580Y-99988744D01*
X225398977Y-100152578D01*
X225398978Y-100152580D01*
X225398979Y-100152581D01*
X225417656Y-100179255D01*
X225521472Y-100327521D01*
X225672478Y-100478527D01*
X225691494Y-100491842D01*
X225847419Y-100601021D01*
X225847421Y-100601022D01*
X225847420Y-100601022D01*
X225900686Y-100625860D01*
X226040970Y-100691276D01*
X226040976Y-100691277D01*
X226040977Y-100691278D01*
X226086012Y-100703345D01*
X226247253Y-100746549D01*
X226399215Y-100759844D01*
X226459998Y-100765162D01*
X226460000Y-100765162D01*
X226460002Y-100765162D01*
X226513186Y-100760508D01*
X226672747Y-100746549D01*
X226879030Y-100691276D01*
X227072581Y-100601021D01*
X227247519Y-100478529D01*
X227398529Y-100327519D01*
X227521021Y-100152581D01*
X227611276Y-99959030D01*
X227661038Y-99773314D01*
X227697402Y-99713656D01*
X227760248Y-99683126D01*
X227829624Y-99691420D01*
X227868493Y-99717728D01*
X228363181Y-100212416D01*
X228396666Y-100273739D01*
X228399500Y-100300097D01*
X228399500Y-100417587D01*
X228379815Y-100484626D01*
X228372450Y-100494896D01*
X228370186Y-100497734D01*
X228274211Y-100650476D01*
X228214631Y-100820745D01*
X228214630Y-100820750D01*
X228194435Y-100999996D01*
X228194435Y-101000003D01*
X228214630Y-101179249D01*
X228214631Y-101179254D01*
X228274211Y-101349523D01*
X228347217Y-101465710D01*
X228370184Y-101502262D01*
X228497738Y-101629816D01*
X228559284Y-101668488D01*
X228641261Y-101719998D01*
X228650478Y-101725789D01*
X228786280Y-101773308D01*
X228820745Y-101785368D01*
X228820750Y-101785369D01*
X228999996Y-101805565D01*
X229000000Y-101805565D01*
X229036890Y-101801408D01*
X229105710Y-101813461D01*
X229157091Y-101860810D01*
X229174716Y-101928420D01*
X229152991Y-101994826D01*
X229138455Y-102012309D01*
X227737584Y-103413181D01*
X227676261Y-103446666D01*
X227649903Y-103449500D01*
X226350098Y-103449500D01*
X226283059Y-103429815D01*
X226262417Y-103413181D01*
X222410140Y-99560905D01*
X222410138Y-99560902D01*
X222291267Y-99442031D01*
X222291266Y-99442030D01*
X222182359Y-99379153D01*
X222182358Y-99379152D01*
X222154333Y-99362972D01*
X222098431Y-99347993D01*
X222001607Y-99322049D01*
X221843493Y-99322049D01*
X221835897Y-99322049D01*
X221835881Y-99322050D01*
X214347224Y-99322050D01*
X214189109Y-99322050D01*
X214036382Y-99362973D01*
X214014279Y-99375734D01*
X214008356Y-99379154D01*
X214008355Y-99379153D01*
X213899454Y-99442027D01*
X213899449Y-99442031D01*
X211249481Y-102091999D01*
X211249475Y-102092007D01*
X211206650Y-102166184D01*
X211206650Y-102166186D01*
X211170423Y-102228931D01*
X211170423Y-102228932D01*
X211129499Y-102381660D01*
X211129499Y-102381662D01*
X211129499Y-102502762D01*
X211109814Y-102569801D01*
X211057010Y-102615556D01*
X210987852Y-102625500D01*
X210932616Y-102603082D01*
X210909565Y-102586335D01*
X210909563Y-102586334D01*
X210863820Y-102565968D01*
X210737850Y-102509881D01*
X210737842Y-102509879D01*
X210553984Y-102470800D01*
X210476378Y-102470800D01*
X210409339Y-102451115D01*
X210363584Y-102398311D01*
X210353640Y-102329153D01*
X210376059Y-102273915D01*
X210419845Y-102213650D01*
X210522600Y-102011981D01*
X210558957Y-101900086D01*
X210592541Y-101796725D01*
X210592541Y-101796724D01*
X210592542Y-101796721D01*
X210627950Y-101573169D01*
X210627950Y-101346831D01*
X210592542Y-101123279D01*
X210592541Y-101123275D01*
X210592541Y-101123274D01*
X210522601Y-100908021D01*
X210522599Y-100908018D01*
X210513792Y-100890732D01*
X210419845Y-100706350D01*
X210286807Y-100523239D01*
X210126761Y-100363193D01*
X209943650Y-100230155D01*
X209741981Y-100127400D01*
X209741978Y-100127398D01*
X209526723Y-100057458D01*
X209377686Y-100033852D01*
X209303169Y-100022050D01*
X209076831Y-100022050D01*
X209002313Y-100033852D01*
X208853277Y-100057458D01*
X208853274Y-100057458D01*
X208638021Y-100127398D01*
X208638018Y-100127400D01*
X208436349Y-100230155D01*
X208375712Y-100274211D01*
X208253239Y-100363193D01*
X208253237Y-100363195D01*
X208253236Y-100363195D01*
X208093195Y-100523236D01*
X208093195Y-100523237D01*
X208093193Y-100523239D01*
X208036681Y-100601021D01*
X207960155Y-100706349D01*
X207857400Y-100908018D01*
X207857398Y-100908021D01*
X207787458Y-101123274D01*
X207787458Y-101123277D01*
X207778868Y-101177511D01*
X207752050Y-101346831D01*
X207752050Y-101573169D01*
X207757951Y-101610427D01*
X207787458Y-101796722D01*
X207787458Y-101796725D01*
X207857398Y-102011978D01*
X207857400Y-102011981D01*
X207960155Y-102213650D01*
X208093193Y-102396761D01*
X208253239Y-102556807D01*
X208436350Y-102689845D01*
X208638019Y-102792600D01*
X208638021Y-102792601D01*
X208781258Y-102839141D01*
X208853279Y-102862542D01*
X209076831Y-102897950D01*
X209076832Y-102897950D01*
X209303167Y-102897950D01*
X209303169Y-102897950D01*
X209491665Y-102868094D01*
X209560956Y-102877048D01*
X209614408Y-102922044D01*
X209635048Y-102988796D01*
X209628992Y-103028885D01*
X209580523Y-103178056D01*
X209580521Y-103178066D01*
X209580107Y-103182007D01*
X209579231Y-103184134D01*
X209579172Y-103184415D01*
X209579120Y-103184404D01*
X209553521Y-103246621D01*
X209496222Y-103286603D01*
X209426403Y-103289261D01*
X209409342Y-103283605D01*
X209408674Y-103283329D01*
X209407543Y-103282860D01*
X209407534Y-103282858D01*
X209263459Y-103254200D01*
X209263455Y-103254200D01*
X209116545Y-103254200D01*
X209116540Y-103254200D01*
X208972465Y-103282858D01*
X208972455Y-103282861D01*
X208836733Y-103339078D01*
X208836724Y-103339083D01*
X208714580Y-103420698D01*
X208714576Y-103420701D01*
X208610701Y-103524576D01*
X208610698Y-103524580D01*
X208529083Y-103646724D01*
X208529078Y-103646733D01*
X208472861Y-103782455D01*
X208472858Y-103782465D01*
X208444200Y-103926540D01*
X208444200Y-104073459D01*
X208471250Y-104209448D01*
X208472860Y-104217542D01*
X208483244Y-104242611D01*
X208529078Y-104353266D01*
X208529083Y-104353275D01*
X208610698Y-104475419D01*
X208610701Y-104475423D01*
X208714576Y-104579298D01*
X208714580Y-104579301D01*
X208836724Y-104660916D01*
X208836730Y-104660919D01*
X208836731Y-104660920D01*
X208972458Y-104717140D01*
X209116540Y-104745799D01*
X209116544Y-104745800D01*
X209116545Y-104745800D01*
X209263456Y-104745800D01*
X209263457Y-104745799D01*
X209407542Y-104717140D01*
X209409329Y-104716399D01*
X209410338Y-104716291D01*
X209413372Y-104715371D01*
X209413546Y-104715946D01*
X209478796Y-104708927D01*
X209541277Y-104740198D01*
X209576933Y-104800285D01*
X209580107Y-104817993D01*
X209580521Y-104821933D01*
X209580523Y-104821943D01*
X209628992Y-104971114D01*
X209630987Y-105040955D01*
X209594907Y-105100788D01*
X209532206Y-105131616D01*
X209491663Y-105131905D01*
X209380775Y-105114341D01*
X209303169Y-105102050D01*
X209076831Y-105102050D01*
X209002313Y-105113852D01*
X208853277Y-105137458D01*
X208853274Y-105137458D01*
X208638021Y-105207398D01*
X208638018Y-105207400D01*
X208436349Y-105310155D01*
X208331878Y-105386058D01*
X208253239Y-105443193D01*
X208253237Y-105443195D01*
X208253236Y-105443195D01*
X208093195Y-105603236D01*
X208093195Y-105603237D01*
X208093193Y-105603239D01*
X208039661Y-105676920D01*
X207960155Y-105786349D01*
X207857400Y-105988018D01*
X207857398Y-105988021D01*
X207787458Y-106203274D01*
X207787458Y-106203277D01*
X207752050Y-106426831D01*
X207752050Y-106653168D01*
X207787458Y-106876722D01*
X207787458Y-106876725D01*
X207857398Y-107091978D01*
X207857400Y-107091981D01*
X207960155Y-107293650D01*
X208093193Y-107476761D01*
X208253239Y-107636807D01*
X208436350Y-107769845D01*
X208638019Y-107872600D01*
X208638021Y-107872601D01*
X208761139Y-107912604D01*
X208853279Y-107942542D01*
X209076831Y-107977950D01*
X209076832Y-107977950D01*
X209303168Y-107977950D01*
X209303169Y-107977950D01*
X209526721Y-107942542D01*
X209526724Y-107942541D01*
X209526725Y-107942541D01*
X209741978Y-107872601D01*
X209741978Y-107872600D01*
X209741981Y-107872600D01*
X209943650Y-107769845D01*
X210056314Y-107687989D01*
X210122120Y-107664510D01*
X210190174Y-107680335D01*
X210238869Y-107730441D01*
X210253199Y-107788308D01*
X210253199Y-108767029D01*
X210253198Y-108767047D01*
X210253198Y-108932753D01*
X210253197Y-108932753D01*
X210253198Y-108932756D01*
X210294122Y-109085484D01*
X210315631Y-109122738D01*
X210347254Y-109177511D01*
X210373178Y-109222413D01*
X210373180Y-109222416D01*
X210492048Y-109341284D01*
X210492054Y-109341289D01*
X212438584Y-111287819D01*
X212472069Y-111349142D01*
X212467085Y-111418834D01*
X212425213Y-111474767D01*
X212359749Y-111499184D01*
X212350903Y-111499500D01*
X205129500Y-111499500D01*
X205062461Y-111479815D01*
X205016706Y-111427011D01*
X205005500Y-111375500D01*
X205005500Y-95504510D01*
X205005500Y-95504500D01*
X204993947Y-95397044D01*
X204982741Y-95345533D01*
X204969778Y-95306586D01*
X204948616Y-95243002D01*
X204948613Y-95242996D01*
X204870828Y-95121962D01*
X204870825Y-95121957D01*
X204858286Y-95107486D01*
X204825076Y-95069159D01*
X204825072Y-95069156D01*
X204825070Y-95069153D01*
X204716336Y-94974933D01*
X204716333Y-94974931D01*
X204716331Y-94974930D01*
X204585465Y-94915164D01*
X204585460Y-94915162D01*
X204585459Y-94915162D01*
X204518420Y-94895477D01*
X204518422Y-94895477D01*
X204518417Y-94895476D01*
X204470944Y-94888650D01*
X204376000Y-94875000D01*
X203561612Y-94875000D01*
X203561611Y-94875000D01*
X203498602Y-94878941D01*
X203467964Y-94882790D01*
X203467939Y-94882794D01*
X203405927Y-94894555D01*
X203405924Y-94894556D01*
X203272998Y-94949617D01*
X203260815Y-94956846D01*
X203212909Y-94985271D01*
X203212905Y-94985274D01*
X203212902Y-94985276D01*
X203100884Y-95075547D01*
X203100883Y-95075548D01*
X203018830Y-95193727D01*
X203018826Y-95193735D01*
X202987557Y-95256200D01*
X202987552Y-95256213D01*
X202942114Y-95392726D01*
X202938069Y-95505986D01*
X202936978Y-95536516D01*
X202937720Y-95543421D01*
X202944337Y-95604978D01*
X202944425Y-95605871D01*
X202944445Y-95605986D01*
X202969664Y-95704793D01*
X202971133Y-95711265D01*
X202992617Y-95819261D01*
X202995000Y-95843455D01*
X202995000Y-102657860D01*
X202992617Y-102682052D01*
X202978360Y-102753724D01*
X202971304Y-102776984D01*
X202943335Y-102844508D01*
X202931876Y-102865946D01*
X202891275Y-102926710D01*
X202875854Y-102945501D01*
X201551229Y-104270125D01*
X201551219Y-104270133D01*
X201445504Y-104375851D01*
X201426711Y-104391274D01*
X201365942Y-104431877D01*
X201344506Y-104443335D01*
X201276993Y-104471300D01*
X201253734Y-104478356D01*
X201211500Y-104486757D01*
X201182053Y-104492615D01*
X201157864Y-104494998D01*
X194203409Y-104494998D01*
X194136370Y-104475313D01*
X194090615Y-104422509D01*
X194080671Y-104353351D01*
X194084143Y-104337064D01*
X194120452Y-104209448D01*
X194120453Y-104209446D01*
X194139861Y-103999998D01*
X194139861Y-103999997D01*
X194120453Y-103790549D01*
X194120452Y-103790547D01*
X194084143Y-103662932D01*
X194084730Y-103593065D01*
X194122996Y-103534606D01*
X194186794Y-103506116D01*
X194203409Y-103504998D01*
X199874039Y-103504998D01*
X199902158Y-103501692D01*
X199991264Y-103491217D01*
X200047207Y-103477880D01*
X200158036Y-103437293D01*
X200275897Y-103354768D01*
X200275902Y-103354763D01*
X200275905Y-103354761D01*
X200294547Y-103337266D01*
X200326845Y-103306956D01*
X200326847Y-103306954D01*
X200374214Y-103247695D01*
X200431448Y-103207621D01*
X200501262Y-103204850D01*
X200523470Y-103212734D01*
X200553504Y-103226739D01*
X200773308Y-103285635D01*
X200935230Y-103299801D01*
X200999998Y-103305468D01*
X201000000Y-103305468D01*
X201000002Y-103305468D01*
X201056673Y-103300509D01*
X201226692Y-103285635D01*
X201446496Y-103226739D01*
X201652734Y-103130568D01*
X201839139Y-103000047D01*
X202000047Y-102839139D01*
X202130568Y-102652734D01*
X202226739Y-102446496D01*
X202285635Y-102226692D01*
X202304420Y-102011978D01*
X202305468Y-102000001D01*
X202305468Y-101999998D01*
X202288093Y-101801408D01*
X202285635Y-101773308D01*
X202226739Y-101553504D01*
X202130568Y-101347266D01*
X202012926Y-101179254D01*
X202000048Y-101160862D01*
X201977641Y-101138455D01*
X201934692Y-101095506D01*
X201901209Y-101034186D01*
X201906193Y-100964494D01*
X201909581Y-100956314D01*
X201964838Y-100835322D01*
X201984523Y-100768283D01*
X201984524Y-100768279D01*
X202005000Y-100625863D01*
X202005000Y-96345782D01*
X202002103Y-96291742D01*
X202001845Y-96289345D01*
X201999270Y-96265397D01*
X201999267Y-96265370D01*
X201990614Y-96211974D01*
X201990614Y-96211972D01*
X201981518Y-96187584D01*
X201940332Y-96077163D01*
X201906847Y-96015840D01*
X201820623Y-95900659D01*
X201807291Y-95887327D01*
X201773807Y-95826008D01*
X201778789Y-95756316D01*
X201820659Y-95700381D01*
X201881716Y-95676357D01*
X201907372Y-95673598D01*
X201907379Y-95673596D01*
X202042086Y-95623354D01*
X202042093Y-95623350D01*
X202157187Y-95537190D01*
X202157190Y-95537187D01*
X202243350Y-95422093D01*
X202243354Y-95422086D01*
X202293596Y-95287379D01*
X202293598Y-95287372D01*
X202299999Y-95227844D01*
X202300000Y-95227827D01*
X202300000Y-94630000D01*
X201315686Y-94630000D01*
X201320080Y-94625606D01*
X201372741Y-94534394D01*
X201400000Y-94432661D01*
X201400000Y-94327339D01*
X201372741Y-94225606D01*
X201320080Y-94134394D01*
X201315686Y-94130000D01*
X202300000Y-94130000D01*
X202300000Y-94009000D01*
X202319685Y-93941961D01*
X202372489Y-93896206D01*
X202424000Y-93885000D01*
X204725490Y-93885000D01*
X204725500Y-93885000D01*
X204832956Y-93873447D01*
X204884467Y-93862241D01*
X204918697Y-93850847D01*
X204986997Y-93828116D01*
X204987001Y-93828113D01*
X204987004Y-93828113D01*
X205089013Y-93762555D01*
X205156052Y-93742870D01*
X205210315Y-93757409D01*
G37*
%TD.AperFunction*%
%TA.AperFunction,Conductor*%
G36*
X248004418Y-50500816D02*
G01*
X248204561Y-50515130D01*
X248222063Y-50517647D01*
X248413797Y-50559355D01*
X248430755Y-50564334D01*
X248614609Y-50632909D01*
X248630701Y-50640259D01*
X248802904Y-50734288D01*
X248817784Y-50743849D01*
X248974867Y-50861441D01*
X248988237Y-50873027D01*
X249126972Y-51011762D01*
X249138558Y-51025132D01*
X249256146Y-51182210D01*
X249265711Y-51197095D01*
X249359740Y-51369298D01*
X249367090Y-51385390D01*
X249435662Y-51569236D01*
X249440646Y-51586212D01*
X249482351Y-51777931D01*
X249484869Y-51795442D01*
X249499184Y-51995580D01*
X249499500Y-52004427D01*
X249499500Y-109995572D01*
X249499184Y-110004419D01*
X249484869Y-110204557D01*
X249482351Y-110222068D01*
X249440646Y-110413787D01*
X249435662Y-110430763D01*
X249367090Y-110614609D01*
X249359740Y-110630701D01*
X249265711Y-110802904D01*
X249256146Y-110817789D01*
X249138558Y-110974867D01*
X249126972Y-110988237D01*
X248988237Y-111126972D01*
X248974867Y-111138558D01*
X248817789Y-111256146D01*
X248802904Y-111265711D01*
X248630701Y-111359740D01*
X248614609Y-111367090D01*
X248430763Y-111435662D01*
X248413787Y-111440646D01*
X248222068Y-111482351D01*
X248204557Y-111484869D01*
X248023779Y-111497799D01*
X248004417Y-111499184D01*
X247995572Y-111499500D01*
X224214782Y-111499500D01*
X224147743Y-111479815D01*
X224101988Y-111427011D01*
X224092044Y-111357853D01*
X224121069Y-111294297D01*
X224127101Y-111287819D01*
X227393632Y-108021288D01*
X244149500Y-108021288D01*
X244181161Y-108261785D01*
X244243947Y-108496104D01*
X244336773Y-108720205D01*
X244336776Y-108720212D01*
X244458064Y-108930289D01*
X244458066Y-108930292D01*
X244458067Y-108930293D01*
X244605733Y-109122736D01*
X244605736Y-109122740D01*
X244777256Y-109294260D01*
X244777262Y-109294265D01*
X244969711Y-109441936D01*
X245179788Y-109563224D01*
X245403900Y-109656054D01*
X245638211Y-109718838D01*
X245818586Y-109742584D01*
X245878711Y-109750500D01*
X245878712Y-109750500D01*
X246121289Y-109750500D01*
X246169388Y-109744167D01*
X246361789Y-109718838D01*
X246596100Y-109656054D01*
X246820212Y-109563224D01*
X247030289Y-109441936D01*
X247222738Y-109294265D01*
X247294590Y-109222413D01*
X247394264Y-109122740D01*
X247394265Y-109122738D01*
X247541936Y-108930289D01*
X247663224Y-108720212D01*
X247756054Y-108496100D01*
X247818838Y-108261789D01*
X247850500Y-108021288D01*
X247850500Y-107778712D01*
X247818838Y-107538211D01*
X247756054Y-107303900D01*
X247663224Y-107079788D01*
X247541936Y-106869711D01*
X247434103Y-106729180D01*
X247394266Y-106677263D01*
X247394260Y-106677256D01*
X247222743Y-106505739D01*
X247222736Y-106505733D01*
X247030293Y-106358067D01*
X247030292Y-106358066D01*
X247030289Y-106358064D01*
X246820212Y-106236776D01*
X246820205Y-106236773D01*
X246596104Y-106143947D01*
X246361785Y-106081161D01*
X246121289Y-106049500D01*
X246121288Y-106049500D01*
X245878712Y-106049500D01*
X245878711Y-106049500D01*
X245638214Y-106081161D01*
X245403895Y-106143947D01*
X245179794Y-106236773D01*
X245179785Y-106236777D01*
X244969706Y-106358067D01*
X244777263Y-106505733D01*
X244777256Y-106505739D01*
X244605739Y-106677256D01*
X244605733Y-106677263D01*
X244458067Y-106869706D01*
X244458064Y-106869710D01*
X244458064Y-106869711D01*
X244441817Y-106897851D01*
X244336777Y-107079785D01*
X244336773Y-107079794D01*
X244243947Y-107303895D01*
X244181161Y-107538214D01*
X244149500Y-107778711D01*
X244149500Y-108021288D01*
X227393632Y-108021288D01*
X228737664Y-106677256D01*
X233392820Y-102022100D01*
X233392825Y-102022096D01*
X233403028Y-102011892D01*
X233403030Y-102011892D01*
X233514834Y-101900088D01*
X233574062Y-101797501D01*
X233593891Y-101763157D01*
X233634814Y-101610429D01*
X233634814Y-101452315D01*
X233634814Y-96947412D01*
X233654499Y-96880373D01*
X233661869Y-96870097D01*
X233664124Y-96867267D01*
X233664130Y-96867262D01*
X233760103Y-96714522D01*
X233819682Y-96544255D01*
X233839879Y-96365000D01*
X233837713Y-96345779D01*
X233819683Y-96185750D01*
X233819682Y-96185745D01*
X233798868Y-96126261D01*
X233760103Y-96015478D01*
X233664130Y-95862738D01*
X233536576Y-95735184D01*
X233527022Y-95729180D01*
X233480733Y-95676849D01*
X233470083Y-95607795D01*
X233498458Y-95543946D01*
X233556847Y-95505574D01*
X233599643Y-95500366D01*
X233602097Y-95500496D01*
X233602127Y-95500500D01*
X235247872Y-95500499D01*
X235307483Y-95494091D01*
X235442331Y-95443796D01*
X235557546Y-95357546D01*
X235643796Y-95242331D01*
X235694091Y-95107483D01*
X235699062Y-95061242D01*
X235725799Y-94996694D01*
X235783191Y-94956846D01*
X235822351Y-94950500D01*
X240977649Y-94950500D01*
X241044688Y-94970185D01*
X241090443Y-95022989D01*
X241100939Y-95061248D01*
X241105908Y-95107483D01*
X241156202Y-95242328D01*
X241156206Y-95242335D01*
X241242452Y-95357544D01*
X241242455Y-95357547D01*
X241357664Y-95443793D01*
X241357671Y-95443797D01*
X241492517Y-95494091D01*
X241492516Y-95494091D01*
X241499444Y-95494835D01*
X241552127Y-95500500D01*
X243197872Y-95500499D01*
X243251407Y-95494744D01*
X243262247Y-95493579D01*
X243331006Y-95505986D01*
X243382143Y-95553597D01*
X243399500Y-95616869D01*
X243399500Y-99417587D01*
X243379815Y-99484626D01*
X243372450Y-99494896D01*
X243370186Y-99497734D01*
X243274211Y-99650476D01*
X243214631Y-99820745D01*
X243214630Y-99820750D01*
X243194435Y-99999996D01*
X243194435Y-100000003D01*
X243214630Y-100179249D01*
X243214631Y-100179254D01*
X243274211Y-100349523D01*
X243363576Y-100491745D01*
X243370184Y-100502262D01*
X243497738Y-100629816D01*
X243577306Y-100679812D01*
X243614758Y-100703345D01*
X243650478Y-100725789D01*
X243773159Y-100768717D01*
X243820745Y-100785368D01*
X243820750Y-100785369D01*
X243999996Y-100805565D01*
X244000000Y-100805565D01*
X244000004Y-100805565D01*
X244179249Y-100785369D01*
X244179252Y-100785368D01*
X244179255Y-100785368D01*
X244349522Y-100725789D01*
X244502262Y-100629816D01*
X244629816Y-100502262D01*
X244725789Y-100349522D01*
X244785368Y-100179255D01*
X244785369Y-100179249D01*
X244805565Y-100000003D01*
X244805565Y-99999996D01*
X244785369Y-99820750D01*
X244785368Y-99820745D01*
X244744796Y-99704797D01*
X244725789Y-99650478D01*
X244713732Y-99631290D01*
X244690019Y-99593550D01*
X244629816Y-99497738D01*
X244629814Y-99497736D01*
X244629813Y-99497734D01*
X244627550Y-99494896D01*
X244626659Y-99492715D01*
X244626111Y-99491842D01*
X244626264Y-99491745D01*
X244601144Y-99430209D01*
X244600500Y-99417587D01*
X244600500Y-97749097D01*
X244620185Y-97682058D01*
X244672989Y-97636303D01*
X244742147Y-97626359D01*
X244805703Y-97655384D01*
X244812181Y-97661416D01*
X246169298Y-99018533D01*
X246202783Y-99079856D01*
X246204837Y-99092330D01*
X246214630Y-99179249D01*
X246274210Y-99349521D01*
X246292829Y-99379153D01*
X246370184Y-99502262D01*
X246497738Y-99629816D01*
X246582580Y-99683126D01*
X246644377Y-99721956D01*
X246650478Y-99725789D01*
X246820745Y-99785368D01*
X246889384Y-99793101D01*
X246953796Y-99820166D01*
X246993352Y-99877760D01*
X246999500Y-99916321D01*
X246999500Y-100083677D01*
X246979815Y-100150716D01*
X246927011Y-100196471D01*
X246889384Y-100206897D01*
X246820750Y-100214630D01*
X246650478Y-100274210D01*
X246497737Y-100370184D01*
X246370184Y-100497737D01*
X246274211Y-100650476D01*
X246214631Y-100820745D01*
X246214630Y-100820750D01*
X246194435Y-100999996D01*
X246194435Y-101000003D01*
X246214630Y-101179249D01*
X246214631Y-101179254D01*
X246274211Y-101349523D01*
X246347217Y-101465710D01*
X246370184Y-101502262D01*
X246497738Y-101629816D01*
X246559284Y-101668488D01*
X246641261Y-101719998D01*
X246650478Y-101725789D01*
X246786280Y-101773308D01*
X246820745Y-101785368D01*
X246820750Y-101785369D01*
X246999996Y-101805565D01*
X247000000Y-101805565D01*
X247000004Y-101805565D01*
X247179249Y-101785369D01*
X247179252Y-101785368D01*
X247179255Y-101785368D01*
X247349522Y-101725789D01*
X247502262Y-101629816D01*
X247629816Y-101502262D01*
X247725789Y-101349522D01*
X247785368Y-101179255D01*
X247795161Y-101092329D01*
X247822226Y-101027918D01*
X247830690Y-101018543D01*
X247958506Y-100890728D01*
X247958511Y-100890724D01*
X247968714Y-100880520D01*
X247968716Y-100880520D01*
X248080520Y-100768716D01*
X248116527Y-100706349D01*
X248131848Y-100679813D01*
X248131848Y-100679812D01*
X248148784Y-100650478D01*
X248159577Y-100631785D01*
X248200500Y-100479057D01*
X248200500Y-100320943D01*
X248200500Y-66164059D01*
X248200501Y-66164046D01*
X248200501Y-65995945D01*
X248200501Y-65995943D01*
X248159577Y-65843215D01*
X248127930Y-65788402D01*
X248119921Y-65774529D01*
X248119920Y-65774528D01*
X248080521Y-65706286D01*
X248080520Y-65706284D01*
X247968716Y-65594480D01*
X247968715Y-65594479D01*
X247964385Y-65590149D01*
X247964374Y-65590139D01*
X243686818Y-61312583D01*
X243653333Y-61251260D01*
X243650499Y-61224902D01*
X243650499Y-60152129D01*
X243650498Y-60152123D01*
X243650497Y-60152116D01*
X243644091Y-60092517D01*
X243593796Y-59957669D01*
X243593795Y-59957668D01*
X243593793Y-59957664D01*
X243507547Y-59842455D01*
X243507544Y-59842452D01*
X243392335Y-59756206D01*
X243392328Y-59756202D01*
X243257482Y-59705908D01*
X243257483Y-59705908D01*
X243197883Y-59699501D01*
X243197881Y-59699500D01*
X243197873Y-59699500D01*
X243197864Y-59699500D01*
X241552129Y-59699500D01*
X241552123Y-59699501D01*
X241492516Y-59705908D01*
X241357671Y-59756202D01*
X241357664Y-59756206D01*
X241242455Y-59842452D01*
X241242452Y-59842455D01*
X241156206Y-59957664D01*
X241156202Y-59957671D01*
X241105910Y-60092513D01*
X241105909Y-60092517D01*
X241100937Y-60138757D01*
X241074201Y-60203306D01*
X241016809Y-60243154D01*
X240977649Y-60249500D01*
X235822351Y-60249500D01*
X235755312Y-60229815D01*
X235709557Y-60177011D01*
X235699061Y-60138752D01*
X235694091Y-60092516D01*
X235643797Y-59957671D01*
X235643793Y-59957664D01*
X235557547Y-59842455D01*
X235557544Y-59842452D01*
X235442335Y-59756206D01*
X235442328Y-59756202D01*
X235307482Y-59705908D01*
X235307483Y-59705908D01*
X235247883Y-59699501D01*
X235247881Y-59699500D01*
X235247873Y-59699500D01*
X235247864Y-59699500D01*
X233602129Y-59699500D01*
X233602123Y-59699501D01*
X233542516Y-59705908D01*
X233407671Y-59756202D01*
X233407664Y-59756206D01*
X233292455Y-59842452D01*
X233292452Y-59842455D01*
X233206206Y-59957664D01*
X233206202Y-59957671D01*
X233155908Y-60092517D01*
X233149501Y-60152116D01*
X233149501Y-60152123D01*
X233149500Y-60152135D01*
X233149500Y-61547870D01*
X233149501Y-61547876D01*
X233155908Y-61607483D01*
X233206202Y-61742328D01*
X233206206Y-61742335D01*
X233292452Y-61857544D01*
X233292455Y-61857547D01*
X233407664Y-61943793D01*
X233407671Y-61943797D01*
X233542517Y-61994091D01*
X233542516Y-61994091D01*
X233549444Y-61994835D01*
X233602127Y-62000500D01*
X235247872Y-62000499D01*
X235307483Y-61994091D01*
X235442331Y-61943796D01*
X235557546Y-61857546D01*
X235643796Y-61742331D01*
X235694091Y-61607483D01*
X235699062Y-61561242D01*
X235725799Y-61496694D01*
X235783191Y-61456846D01*
X235822351Y-61450500D01*
X240977649Y-61450500D01*
X241044688Y-61470185D01*
X241090443Y-61522989D01*
X241100939Y-61561248D01*
X241105908Y-61607483D01*
X241156202Y-61742328D01*
X241156206Y-61742335D01*
X241242452Y-61857544D01*
X241242455Y-61857547D01*
X241357664Y-61943793D01*
X241357671Y-61943797D01*
X241492517Y-61994091D01*
X241492516Y-61994091D01*
X241499444Y-61994835D01*
X241552127Y-62000500D01*
X242624902Y-62000499D01*
X242691941Y-62020183D01*
X242712583Y-62036818D01*
X246963181Y-66287416D01*
X246996666Y-66348739D01*
X246999500Y-66375097D01*
X246999500Y-97850903D01*
X246979815Y-97917942D01*
X246927011Y-97963697D01*
X246857853Y-97973641D01*
X246794297Y-97944616D01*
X246787819Y-97938584D01*
X245036819Y-96187584D01*
X245003334Y-96126261D01*
X245000500Y-96099903D01*
X245000500Y-77295945D01*
X245000500Y-77295943D01*
X244959577Y-77143216D01*
X244899036Y-77038355D01*
X244880524Y-77006290D01*
X244880521Y-77006286D01*
X244880520Y-77006284D01*
X244768716Y-76894480D01*
X244768715Y-76894479D01*
X244764385Y-76890149D01*
X244764374Y-76890139D01*
X243686818Y-75812583D01*
X243653333Y-75751260D01*
X243650499Y-75724902D01*
X243650499Y-74652129D01*
X243650498Y-74652123D01*
X243650497Y-74652116D01*
X243644091Y-74592517D01*
X243642398Y-74587979D01*
X243593797Y-74457671D01*
X243593793Y-74457664D01*
X243507547Y-74342455D01*
X243507544Y-74342452D01*
X243392335Y-74256206D01*
X243392328Y-74256202D01*
X243257482Y-74205908D01*
X243257483Y-74205908D01*
X243197883Y-74199501D01*
X243197881Y-74199500D01*
X243197873Y-74199500D01*
X243197864Y-74199500D01*
X241552129Y-74199500D01*
X241552123Y-74199501D01*
X241492516Y-74205908D01*
X241357671Y-74256202D01*
X241357664Y-74256206D01*
X241242455Y-74342452D01*
X241242452Y-74342455D01*
X241156206Y-74457664D01*
X241156202Y-74457671D01*
X241105910Y-74592513D01*
X241105909Y-74592517D01*
X241100937Y-74638757D01*
X241074201Y-74703306D01*
X241016809Y-74743154D01*
X240977649Y-74749500D01*
X235822351Y-74749500D01*
X235755312Y-74729815D01*
X235709557Y-74677011D01*
X235699061Y-74638752D01*
X235698100Y-74629816D01*
X235694091Y-74592517D01*
X235692398Y-74587979D01*
X235643797Y-74457671D01*
X235643793Y-74457664D01*
X235557547Y-74342455D01*
X235557544Y-74342452D01*
X235442335Y-74256206D01*
X235442328Y-74256202D01*
X235307482Y-74205908D01*
X235307483Y-74205908D01*
X235247883Y-74199501D01*
X235247881Y-74199500D01*
X235247873Y-74199500D01*
X235247864Y-74199500D01*
X233602129Y-74199500D01*
X233602123Y-74199501D01*
X233542516Y-74205908D01*
X233407671Y-74256202D01*
X233407664Y-74256206D01*
X233292455Y-74342452D01*
X233292452Y-74342455D01*
X233206206Y-74457664D01*
X233206202Y-74457671D01*
X233155908Y-74592517D01*
X233149677Y-74650478D01*
X233149501Y-74652123D01*
X233149500Y-74652135D01*
X233149500Y-76047870D01*
X233149501Y-76047876D01*
X233155908Y-76107483D01*
X233206202Y-76242328D01*
X233206206Y-76242335D01*
X233292452Y-76357544D01*
X233292455Y-76357547D01*
X233407664Y-76443793D01*
X233407671Y-76443797D01*
X233542517Y-76494091D01*
X233542516Y-76494091D01*
X233549444Y-76494835D01*
X233602127Y-76500500D01*
X235247872Y-76500499D01*
X235307483Y-76494091D01*
X235442331Y-76443796D01*
X235557546Y-76357546D01*
X235643796Y-76242331D01*
X235694091Y-76107483D01*
X235699062Y-76061242D01*
X235725799Y-75996694D01*
X235783191Y-75956846D01*
X235822351Y-75950500D01*
X240977649Y-75950500D01*
X241044688Y-75970185D01*
X241090443Y-76022989D01*
X241100939Y-76061248D01*
X241105908Y-76107483D01*
X241156202Y-76242328D01*
X241156206Y-76242335D01*
X241242452Y-76357544D01*
X241242455Y-76357547D01*
X241357664Y-76443793D01*
X241357671Y-76443797D01*
X241492517Y-76494091D01*
X241492516Y-76494091D01*
X241499444Y-76494835D01*
X241552127Y-76500500D01*
X242624902Y-76500499D01*
X242691941Y-76520183D01*
X242712583Y-76536818D01*
X243763181Y-77587416D01*
X243796666Y-77648739D01*
X243799500Y-77675097D01*
X243799500Y-78859897D01*
X243779815Y-78926936D01*
X243727011Y-78972691D01*
X243657853Y-78982635D01*
X243594297Y-78953610D01*
X243576234Y-78934208D01*
X243507547Y-78842455D01*
X243507544Y-78842452D01*
X243392335Y-78756206D01*
X243392328Y-78756202D01*
X243257482Y-78705908D01*
X243257483Y-78705908D01*
X243197883Y-78699501D01*
X243197881Y-78699500D01*
X243197873Y-78699500D01*
X243197864Y-78699500D01*
X241552129Y-78699500D01*
X241552123Y-78699501D01*
X241492516Y-78705908D01*
X241357671Y-78756202D01*
X241357664Y-78756206D01*
X241242455Y-78842452D01*
X241242452Y-78842455D01*
X241156206Y-78957664D01*
X241156202Y-78957671D01*
X241125118Y-79041014D01*
X241105909Y-79092517D01*
X241100937Y-79138757D01*
X241074201Y-79203306D01*
X241016809Y-79243154D01*
X240977649Y-79249500D01*
X235822351Y-79249500D01*
X235755312Y-79229815D01*
X235709557Y-79177011D01*
X235699061Y-79138752D01*
X235694091Y-79092516D01*
X235643797Y-78957671D01*
X235643793Y-78957664D01*
X235557547Y-78842455D01*
X235557544Y-78842452D01*
X235442335Y-78756206D01*
X235442328Y-78756202D01*
X235307482Y-78705908D01*
X235307483Y-78705908D01*
X235247883Y-78699501D01*
X235247881Y-78699500D01*
X235247873Y-78699500D01*
X235247864Y-78699500D01*
X233602129Y-78699500D01*
X233602123Y-78699501D01*
X233542516Y-78705908D01*
X233407671Y-78756202D01*
X233407664Y-78756206D01*
X233292455Y-78842452D01*
X233292452Y-78842455D01*
X233206206Y-78957664D01*
X233206202Y-78957671D01*
X233155908Y-79092516D01*
X233150137Y-79146197D01*
X233123399Y-79210747D01*
X233066006Y-79250595D01*
X233058950Y-79252712D01*
X233011892Y-79265321D01*
X232918214Y-79290423D01*
X232918209Y-79290426D01*
X232781290Y-79369475D01*
X232781282Y-79369481D01*
X231981465Y-80169298D01*
X231920142Y-80202783D01*
X231907668Y-80204837D01*
X231820748Y-80214630D01*
X231765453Y-80233979D01*
X231695674Y-80237540D01*
X231635047Y-80202810D01*
X231602821Y-80140817D01*
X231600500Y-80116937D01*
X231600500Y-66047870D01*
X233149500Y-66047870D01*
X233149501Y-66047876D01*
X233155908Y-66107483D01*
X233206202Y-66242328D01*
X233206206Y-66242335D01*
X233292452Y-66357544D01*
X233292455Y-66357547D01*
X233407664Y-66443793D01*
X233407671Y-66443797D01*
X233542517Y-66494091D01*
X233542516Y-66494091D01*
X233549444Y-66494835D01*
X233602127Y-66500500D01*
X235247872Y-66500499D01*
X235307483Y-66494091D01*
X235442331Y-66443796D01*
X235557546Y-66357546D01*
X235643796Y-66242331D01*
X235694091Y-66107483D01*
X235699062Y-66061242D01*
X235725799Y-65996694D01*
X235783191Y-65956846D01*
X235822351Y-65950500D01*
X239956957Y-65950500D01*
X239999898Y-65963109D01*
X240021649Y-65952360D01*
X240043043Y-65950500D01*
X240625902Y-65950500D01*
X240692941Y-65970185D01*
X240738696Y-66022989D01*
X240748640Y-66092147D01*
X240719615Y-66155703D01*
X240713589Y-66162174D01*
X240633436Y-66242328D01*
X240574223Y-66301541D01*
X240512900Y-66335025D01*
X240443208Y-66330041D01*
X240420570Y-66318853D01*
X240349523Y-66274211D01*
X240179254Y-66214631D01*
X240179249Y-66214630D01*
X240029160Y-66197720D01*
X240002633Y-66186573D01*
X239991892Y-66193477D01*
X239970840Y-66197720D01*
X239820750Y-66214630D01*
X239820745Y-66214631D01*
X239650476Y-66274211D01*
X239497737Y-66370184D01*
X239370184Y-66497737D01*
X239274211Y-66650476D01*
X239214631Y-66820745D01*
X239214630Y-66820750D01*
X239194435Y-66999996D01*
X239194435Y-67000003D01*
X239214630Y-67179249D01*
X239214631Y-67179254D01*
X239274211Y-67349523D01*
X239363576Y-67491745D01*
X239370184Y-67502262D01*
X239497738Y-67629816D01*
X239650478Y-67725789D01*
X239799837Y-67778052D01*
X239820745Y-67785368D01*
X239820750Y-67785369D01*
X239999996Y-67805565D01*
X240000000Y-67805565D01*
X240000004Y-67805565D01*
X240179249Y-67785369D01*
X240179252Y-67785368D01*
X240179255Y-67785368D01*
X240349522Y-67725789D01*
X240502262Y-67629816D01*
X240502267Y-67629810D01*
X240505097Y-67627555D01*
X240507275Y-67626665D01*
X240508158Y-67626111D01*
X240508255Y-67626265D01*
X240569783Y-67601145D01*
X240582412Y-67600500D01*
X240638331Y-67600500D01*
X240638347Y-67600501D01*
X240645943Y-67600501D01*
X240804054Y-67600501D01*
X240804057Y-67600501D01*
X240956785Y-67559577D01*
X241026233Y-67519481D01*
X241093716Y-67480520D01*
X241205520Y-67368716D01*
X241205520Y-67368714D01*
X241215724Y-67358511D01*
X241215728Y-67358506D01*
X242037416Y-66536818D01*
X242098739Y-66503333D01*
X242125097Y-66500499D01*
X243197871Y-66500499D01*
X243197872Y-66500499D01*
X243257483Y-66494091D01*
X243392331Y-66443796D01*
X243507546Y-66357546D01*
X243593796Y-66242331D01*
X243644091Y-66107483D01*
X243650500Y-66047873D01*
X243650499Y-64652128D01*
X243645025Y-64601206D01*
X243644091Y-64592516D01*
X243593797Y-64457671D01*
X243593793Y-64457664D01*
X243507547Y-64342455D01*
X243507544Y-64342452D01*
X243392335Y-64256206D01*
X243392328Y-64256202D01*
X243257482Y-64205908D01*
X243257483Y-64205908D01*
X243197883Y-64199501D01*
X243197881Y-64199500D01*
X243197873Y-64199500D01*
X243197864Y-64199500D01*
X241552129Y-64199500D01*
X241552123Y-64199501D01*
X241492516Y-64205908D01*
X241357671Y-64256202D01*
X241357664Y-64256206D01*
X241242455Y-64342452D01*
X241242452Y-64342455D01*
X241156206Y-64457664D01*
X241156202Y-64457671D01*
X241105910Y-64592513D01*
X241105909Y-64592517D01*
X241100937Y-64638757D01*
X241074201Y-64703306D01*
X241016809Y-64743154D01*
X240977649Y-64749500D01*
X235822351Y-64749500D01*
X235755312Y-64729815D01*
X235709557Y-64677011D01*
X235699061Y-64638752D01*
X235698100Y-64629816D01*
X235695025Y-64601206D01*
X235694091Y-64592516D01*
X235643797Y-64457671D01*
X235643793Y-64457664D01*
X235557547Y-64342455D01*
X235557544Y-64342452D01*
X235442335Y-64256206D01*
X235442328Y-64256202D01*
X235307482Y-64205908D01*
X235307483Y-64205908D01*
X235247883Y-64199501D01*
X235247881Y-64199500D01*
X235247873Y-64199500D01*
X235247864Y-64199500D01*
X233602129Y-64199500D01*
X233602123Y-64199501D01*
X233542516Y-64205908D01*
X233407671Y-64256202D01*
X233407664Y-64256206D01*
X233292455Y-64342452D01*
X233292452Y-64342455D01*
X233206206Y-64457664D01*
X233206202Y-64457671D01*
X233155908Y-64592517D01*
X233149501Y-64652116D01*
X233149501Y-64652123D01*
X233149500Y-64652135D01*
X233149500Y-66047870D01*
X231600500Y-66047870D01*
X231600500Y-61774135D01*
X231600501Y-61774122D01*
X231600501Y-61606019D01*
X231595624Y-61587819D01*
X231559577Y-61453291D01*
X231557966Y-61450500D01*
X231480524Y-61316365D01*
X231480518Y-61316357D01*
X224822582Y-54658422D01*
X228249500Y-54658422D01*
X228280290Y-54852826D01*
X228341117Y-55040029D01*
X228430476Y-55215405D01*
X228546172Y-55374646D01*
X228685354Y-55513828D01*
X228844595Y-55629524D01*
X228927455Y-55671743D01*
X229019970Y-55718882D01*
X229019972Y-55718882D01*
X229019975Y-55718884D01*
X229091571Y-55742147D01*
X229207173Y-55779709D01*
X229401578Y-55810500D01*
X229401583Y-55810500D01*
X229598422Y-55810500D01*
X229792826Y-55779709D01*
X229836695Y-55765455D01*
X229980025Y-55718884D01*
X230155405Y-55629524D01*
X230314646Y-55513828D01*
X230453828Y-55374646D01*
X230569524Y-55215405D01*
X230658884Y-55040025D01*
X230719709Y-54852826D01*
X230724874Y-54820214D01*
X230750500Y-54658422D01*
X230750500Y-54461577D01*
X230719709Y-54267173D01*
X230672307Y-54121288D01*
X244149500Y-54121288D01*
X244168705Y-54267173D01*
X244181162Y-54361789D01*
X244191267Y-54399500D01*
X244243947Y-54596104D01*
X244336773Y-54820205D01*
X244336776Y-54820212D01*
X244458064Y-55030289D01*
X244458066Y-55030292D01*
X244458067Y-55030293D01*
X244605733Y-55222736D01*
X244605739Y-55222743D01*
X244777256Y-55394260D01*
X244777262Y-55394265D01*
X244969711Y-55541936D01*
X245179788Y-55663224D01*
X245403900Y-55756054D01*
X245638211Y-55818838D01*
X245818586Y-55842584D01*
X245878711Y-55850500D01*
X245878712Y-55850500D01*
X246121289Y-55850500D01*
X246169388Y-55844167D01*
X246361789Y-55818838D01*
X246596100Y-55756054D01*
X246820212Y-55663224D01*
X247030289Y-55541936D01*
X247222738Y-55394265D01*
X247394265Y-55222738D01*
X247541936Y-55030289D01*
X247663224Y-54820212D01*
X247756054Y-54596100D01*
X247818838Y-54361789D01*
X247850500Y-54121288D01*
X247850500Y-53878712D01*
X247818838Y-53638211D01*
X247756054Y-53403900D01*
X247663224Y-53179788D01*
X247541936Y-52969711D01*
X247394265Y-52777262D01*
X247394260Y-52777256D01*
X247222743Y-52605739D01*
X247222736Y-52605733D01*
X247030293Y-52458067D01*
X247030292Y-52458066D01*
X247030289Y-52458064D01*
X246820212Y-52336776D01*
X246820205Y-52336773D01*
X246596104Y-52243947D01*
X246361785Y-52181161D01*
X246121289Y-52149500D01*
X246121288Y-52149500D01*
X245878712Y-52149500D01*
X245878711Y-52149500D01*
X245638214Y-52181161D01*
X245403895Y-52243947D01*
X245179794Y-52336773D01*
X245179785Y-52336777D01*
X244969706Y-52458067D01*
X244777263Y-52605733D01*
X244777256Y-52605739D01*
X244605739Y-52777256D01*
X244605733Y-52777263D01*
X244458067Y-52969706D01*
X244336777Y-53179785D01*
X244336773Y-53179794D01*
X244243947Y-53403895D01*
X244181161Y-53638214D01*
X244149500Y-53878711D01*
X244149500Y-54121288D01*
X230672307Y-54121288D01*
X230658882Y-54079970D01*
X230569523Y-53904594D01*
X230453828Y-53745354D01*
X230314646Y-53606172D01*
X230155405Y-53490476D01*
X229980029Y-53401117D01*
X229792826Y-53340290D01*
X229598422Y-53309500D01*
X229598417Y-53309500D01*
X229401583Y-53309500D01*
X229401578Y-53309500D01*
X229207173Y-53340290D01*
X229019970Y-53401117D01*
X228844594Y-53490476D01*
X228753741Y-53556485D01*
X228685354Y-53606172D01*
X228685352Y-53606174D01*
X228685351Y-53606174D01*
X228546174Y-53745351D01*
X228546174Y-53745352D01*
X228546172Y-53745354D01*
X228496485Y-53813741D01*
X228430476Y-53904594D01*
X228341117Y-54079970D01*
X228280290Y-54267173D01*
X228249500Y-54461577D01*
X228249500Y-54658422D01*
X224822582Y-54658422D01*
X224802515Y-54638355D01*
X224802513Y-54638352D01*
X224683642Y-54519481D01*
X224683637Y-54519477D01*
X224583360Y-54461583D01*
X224583359Y-54461582D01*
X224546715Y-54440425D01*
X224546714Y-54440424D01*
X224534188Y-54437067D01*
X224393982Y-54399499D01*
X224235868Y-54399499D01*
X224228272Y-54399499D01*
X224228256Y-54399500D01*
X166170940Y-54399500D01*
X166130019Y-54410464D01*
X166130019Y-54410465D01*
X166092751Y-54420451D01*
X166018214Y-54440423D01*
X166018209Y-54440426D01*
X165881290Y-54519475D01*
X165881282Y-54519481D01*
X165769478Y-54631286D01*
X155954425Y-64446338D01*
X155893102Y-64479823D01*
X155823410Y-64474839D01*
X155767477Y-64432967D01*
X155743060Y-64367503D01*
X155743215Y-64347862D01*
X155755277Y-64210000D01*
X155754358Y-64199501D01*
X155751569Y-64167618D01*
X155736207Y-63992023D01*
X155679575Y-63780670D01*
X155587102Y-63582362D01*
X155587100Y-63582359D01*
X155587099Y-63582357D01*
X155461599Y-63403124D01*
X155399500Y-63341025D01*
X155306877Y-63248402D01*
X155160733Y-63146071D01*
X155117112Y-63091497D01*
X155109919Y-63021998D01*
X155141441Y-62959644D01*
X155201671Y-62924230D01*
X155231859Y-62920499D01*
X155297872Y-62920499D01*
X155357483Y-62914091D01*
X155492331Y-62863796D01*
X155607546Y-62777546D01*
X155693796Y-62662331D01*
X155744091Y-62527483D01*
X155750500Y-62467873D01*
X155750499Y-60872128D01*
X155744976Y-60820750D01*
X155744091Y-60812516D01*
X155693797Y-60677671D01*
X155693793Y-60677664D01*
X155607547Y-60562455D01*
X155607544Y-60562452D01*
X155492335Y-60476206D01*
X155492328Y-60476202D01*
X155357482Y-60425908D01*
X155357483Y-60425908D01*
X155297883Y-60419501D01*
X155297881Y-60419500D01*
X155297873Y-60419500D01*
X155297864Y-60419500D01*
X153702129Y-60419500D01*
X153702123Y-60419501D01*
X153642516Y-60425908D01*
X153507671Y-60476202D01*
X153507664Y-60476206D01*
X153392455Y-60562452D01*
X153392452Y-60562455D01*
X153306206Y-60677664D01*
X153306202Y-60677671D01*
X153255908Y-60812517D01*
X153250468Y-60863121D01*
X153249501Y-60872123D01*
X153249500Y-60872135D01*
X153249500Y-62467870D01*
X153249501Y-62467873D01*
X153255908Y-62527483D01*
X153306202Y-62662328D01*
X153306206Y-62662335D01*
X153392452Y-62777544D01*
X153392455Y-62777547D01*
X153507664Y-62863793D01*
X153507671Y-62863797D01*
X153642517Y-62914091D01*
X153642516Y-62914091D01*
X153649444Y-62914835D01*
X153702127Y-62920500D01*
X153768139Y-62920499D01*
X153835176Y-62940183D01*
X153880932Y-62992986D01*
X153890876Y-63062144D01*
X153861852Y-63125700D01*
X153839262Y-63146074D01*
X153693118Y-63248405D01*
X153538402Y-63403121D01*
X153412900Y-63582357D01*
X153412898Y-63582361D01*
X153320426Y-63780668D01*
X153320422Y-63780677D01*
X153263793Y-63992020D01*
X153263793Y-63992024D01*
X153244723Y-64209997D01*
X153244723Y-64210002D01*
X153263793Y-64427975D01*
X153263793Y-64427979D01*
X153320422Y-64639322D01*
X153320424Y-64639326D01*
X153320425Y-64639330D01*
X153362262Y-64729049D01*
X153412897Y-64837638D01*
X153412898Y-64837639D01*
X153538402Y-65016877D01*
X153693123Y-65171598D01*
X153860789Y-65288999D01*
X153872361Y-65297102D01*
X154023583Y-65367618D01*
X154076022Y-65413790D01*
X154095174Y-65480984D01*
X154074958Y-65547865D01*
X154023583Y-65592382D01*
X153872361Y-65662898D01*
X153872357Y-65662900D01*
X153693121Y-65788402D01*
X153538402Y-65943121D01*
X153412900Y-66122357D01*
X153412898Y-66122361D01*
X153320426Y-66320668D01*
X153320422Y-66320677D01*
X153263793Y-66532020D01*
X153263793Y-66532024D01*
X153244723Y-66749997D01*
X153244723Y-66750002D01*
X153263793Y-66967975D01*
X153263793Y-66967979D01*
X153320422Y-67179322D01*
X153320424Y-67179326D01*
X153320425Y-67179330D01*
X153327469Y-67194435D01*
X153412897Y-67377638D01*
X153412898Y-67377639D01*
X153538402Y-67556877D01*
X153693123Y-67711598D01*
X153848998Y-67820743D01*
X153872361Y-67837102D01*
X154023583Y-67907618D01*
X154076022Y-67953790D01*
X154095174Y-68020984D01*
X154074958Y-68087865D01*
X154023583Y-68132382D01*
X153872361Y-68202898D01*
X153872357Y-68202900D01*
X153693121Y-68328402D01*
X153538402Y-68483121D01*
X153412900Y-68662357D01*
X153412898Y-68662361D01*
X153320426Y-68860668D01*
X153320422Y-68860677D01*
X153263793Y-69072020D01*
X153263793Y-69072024D01*
X153244723Y-69289997D01*
X153244723Y-69290002D01*
X153263793Y-69507975D01*
X153263793Y-69507979D01*
X153320422Y-69719322D01*
X153320424Y-69719326D01*
X153320425Y-69719330D01*
X153360637Y-69805565D01*
X153412897Y-69917638D01*
X153419326Y-69926819D01*
X153538402Y-70096877D01*
X153693123Y-70251598D01*
X153860789Y-70368999D01*
X153872361Y-70377102D01*
X154023583Y-70447618D01*
X154076022Y-70493790D01*
X154095174Y-70560984D01*
X154074958Y-70627865D01*
X154023583Y-70672382D01*
X153872361Y-70742898D01*
X153872357Y-70742900D01*
X153693121Y-70868402D01*
X153538402Y-71023121D01*
X153412900Y-71202357D01*
X153412898Y-71202361D01*
X153320426Y-71400668D01*
X153320422Y-71400677D01*
X153263793Y-71612020D01*
X153263793Y-71612024D01*
X153245533Y-71820745D01*
X153244723Y-71830000D01*
X153263792Y-72047971D01*
X153263793Y-72047975D01*
X153263793Y-72047979D01*
X153320422Y-72259322D01*
X153320424Y-72259326D01*
X153320425Y-72259330D01*
X153355228Y-72333966D01*
X153412897Y-72457638D01*
X153412898Y-72457639D01*
X153538402Y-72636877D01*
X153693123Y-72791598D01*
X153860789Y-72908999D01*
X153872361Y-72917102D01*
X154023583Y-72987618D01*
X154076022Y-73033790D01*
X154095174Y-73100984D01*
X154074958Y-73167865D01*
X154023583Y-73212382D01*
X153872361Y-73282898D01*
X153872357Y-73282900D01*
X153693121Y-73408402D01*
X153538402Y-73563121D01*
X153412900Y-73742357D01*
X153412898Y-73742361D01*
X153320426Y-73940668D01*
X153320422Y-73940677D01*
X153263793Y-74152020D01*
X153263793Y-74152024D01*
X153244723Y-74369997D01*
X153244723Y-74370002D01*
X153263793Y-74587975D01*
X153263793Y-74587979D01*
X153320422Y-74799322D01*
X153320424Y-74799326D01*
X153320425Y-74799330D01*
X153350758Y-74864380D01*
X153412897Y-74997638D01*
X153412898Y-74997639D01*
X153538402Y-75176877D01*
X153693123Y-75331598D01*
X153848544Y-75440425D01*
X153872361Y-75457102D01*
X154023583Y-75527618D01*
X154076022Y-75573790D01*
X154095174Y-75640984D01*
X154074958Y-75707865D01*
X154023583Y-75752382D01*
X153872361Y-75822898D01*
X153872357Y-75822900D01*
X153693121Y-75948402D01*
X153538402Y-76103121D01*
X153412900Y-76282357D01*
X153412898Y-76282361D01*
X153320426Y-76480668D01*
X153320422Y-76480677D01*
X153263793Y-76692020D01*
X153263793Y-76692024D01*
X153244723Y-76909997D01*
X153244723Y-76910002D01*
X153263793Y-77127975D01*
X153263793Y-77127979D01*
X153320422Y-77339322D01*
X153320424Y-77339326D01*
X153320425Y-77339330D01*
X153366661Y-77438484D01*
X153412897Y-77537638D01*
X153412898Y-77537639D01*
X153538402Y-77716877D01*
X153693123Y-77871598D01*
X153872360Y-77997101D01*
X153872361Y-77997102D01*
X154023583Y-78067618D01*
X154076022Y-78113790D01*
X154095174Y-78180984D01*
X154074958Y-78247865D01*
X154023583Y-78292382D01*
X153872361Y-78362898D01*
X153872357Y-78362900D01*
X153693121Y-78488402D01*
X153538402Y-78643121D01*
X153412900Y-78822357D01*
X153412898Y-78822361D01*
X153320426Y-79020668D01*
X153320422Y-79020677D01*
X153263793Y-79232020D01*
X153263793Y-79232023D01*
X153244723Y-79450000D01*
X153263792Y-79667970D01*
X153263793Y-79667975D01*
X153263793Y-79667979D01*
X153320422Y-79879322D01*
X153320424Y-79879326D01*
X153320425Y-79879330D01*
X153366661Y-79978484D01*
X153412897Y-80077638D01*
X153421382Y-80089755D01*
X153538402Y-80256877D01*
X153693123Y-80411598D01*
X153872361Y-80537102D01*
X154070670Y-80629575D01*
X154282023Y-80686207D01*
X154464926Y-80702208D01*
X154499998Y-80705277D01*
X154500000Y-80705277D01*
X154500002Y-80705277D01*
X154528254Y-80702805D01*
X154717977Y-80686207D01*
X154929330Y-80629575D01*
X155127639Y-80537102D01*
X155306877Y-80411598D01*
X155461598Y-80256877D01*
X155587102Y-80077639D01*
X155679575Y-79879330D01*
X155736207Y-79667977D01*
X155755277Y-79450000D01*
X155736207Y-79232023D01*
X155684075Y-79037463D01*
X155679577Y-79020677D01*
X155679576Y-79020676D01*
X155679575Y-79020670D01*
X155587102Y-78822362D01*
X155587100Y-78822359D01*
X155587099Y-78822357D01*
X155461599Y-78643124D01*
X155399500Y-78581025D01*
X155306877Y-78488402D01*
X155127639Y-78362898D01*
X154976414Y-78292381D01*
X154923977Y-78246210D01*
X154904825Y-78179016D01*
X154925041Y-78112135D01*
X154976414Y-78067618D01*
X155127639Y-77997102D01*
X155306877Y-77871598D01*
X155461598Y-77716877D01*
X155587102Y-77537639D01*
X155679575Y-77339330D01*
X155736207Y-77127977D01*
X155755277Y-76910000D01*
X155753539Y-76890139D01*
X155746140Y-76805565D01*
X155736207Y-76692023D01*
X155685361Y-76502262D01*
X155679577Y-76480677D01*
X155679576Y-76480676D01*
X155679575Y-76480670D01*
X155587102Y-76282362D01*
X155587100Y-76282359D01*
X155587099Y-76282357D01*
X155461599Y-76103124D01*
X155406345Y-76047870D01*
X155306877Y-75948402D01*
X155127639Y-75822898D01*
X154976414Y-75752381D01*
X154923977Y-75706210D01*
X154904825Y-75639016D01*
X154925041Y-75572135D01*
X154976414Y-75527618D01*
X155127639Y-75457102D01*
X155306877Y-75331598D01*
X155461598Y-75176877D01*
X155501779Y-75119492D01*
X155556354Y-75075869D01*
X155625853Y-75068677D01*
X155688207Y-75100199D01*
X155691033Y-75102937D01*
X158349208Y-77761112D01*
X158382693Y-77822435D01*
X158377709Y-77892127D01*
X158366521Y-77914765D01*
X158274211Y-78061674D01*
X158214631Y-78231943D01*
X158214630Y-78231948D01*
X158194435Y-78411194D01*
X158194435Y-78411201D01*
X158214630Y-78590447D01*
X158214631Y-78590452D01*
X158274211Y-78760721D01*
X158336528Y-78859897D01*
X158370184Y-78913460D01*
X158497738Y-79041014D01*
X158650478Y-79136987D01*
X158764860Y-79177011D01*
X158820745Y-79196566D01*
X158820750Y-79196567D01*
X158999996Y-79216763D01*
X159000000Y-79216763D01*
X159000004Y-79216763D01*
X159179249Y-79196567D01*
X159179252Y-79196566D01*
X159179255Y-79196566D01*
X159349522Y-79136987D01*
X159502262Y-79041014D01*
X159502267Y-79041008D01*
X159505097Y-79038753D01*
X159507275Y-79037863D01*
X159508158Y-79037309D01*
X159508255Y-79037463D01*
X159569783Y-79012343D01*
X159582412Y-79011698D01*
X188709630Y-79011698D01*
X188776669Y-79031383D01*
X188797311Y-79048017D01*
X194849208Y-85099914D01*
X194882693Y-85161237D01*
X194877709Y-85230929D01*
X194866521Y-85253567D01*
X194774211Y-85400477D01*
X194714630Y-85570750D01*
X194704837Y-85657668D01*
X194677770Y-85722082D01*
X194669298Y-85731465D01*
X192631285Y-87769479D01*
X192519480Y-87881283D01*
X192519476Y-87881288D01*
X192497428Y-87919479D01*
X192497424Y-87919486D01*
X192482383Y-87945535D01*
X192431814Y-87993748D01*
X192363206Y-88006968D01*
X192357353Y-88006268D01*
X192275500Y-87994500D01*
X192275499Y-87994500D01*
X191724500Y-87994500D01*
X191657461Y-87974815D01*
X191611706Y-87922011D01*
X191600500Y-87870500D01*
X191600500Y-87582412D01*
X191620185Y-87515373D01*
X191627555Y-87505097D01*
X191629810Y-87502267D01*
X191629816Y-87502262D01*
X191725789Y-87349522D01*
X191785368Y-87179255D01*
X191785369Y-87179249D01*
X191805565Y-87000003D01*
X191805565Y-86999996D01*
X191785369Y-86820750D01*
X191785368Y-86820745D01*
X191760090Y-86748505D01*
X191725789Y-86650478D01*
X191713727Y-86631282D01*
X191646956Y-86525016D01*
X191629816Y-86497738D01*
X191502262Y-86370184D01*
X191433553Y-86327011D01*
X191349523Y-86274211D01*
X191179254Y-86214631D01*
X191179249Y-86214630D01*
X191000004Y-86194435D01*
X190999996Y-86194435D01*
X190820750Y-86214630D01*
X190820745Y-86214631D01*
X190650476Y-86274211D01*
X190497737Y-86370184D01*
X190370184Y-86497737D01*
X190274211Y-86650476D01*
X190214631Y-86820745D01*
X190214630Y-86820750D01*
X190194435Y-86999996D01*
X190194435Y-87000003D01*
X190214630Y-87179249D01*
X190214631Y-87179254D01*
X190274211Y-87349523D01*
X190334515Y-87445496D01*
X190367341Y-87497738D01*
X190370185Y-87502263D01*
X190372445Y-87505097D01*
X190373334Y-87507275D01*
X190373889Y-87508158D01*
X190373734Y-87508255D01*
X190398855Y-87569783D01*
X190399500Y-87582412D01*
X190399500Y-87870500D01*
X190379815Y-87937539D01*
X190327011Y-87983294D01*
X190275500Y-87994500D01*
X188772937Y-87994500D01*
X188745475Y-87995246D01*
X188732007Y-87995979D01*
X188704582Y-87998222D01*
X188565229Y-88034044D01*
X188500727Y-88060891D01*
X188377119Y-88134515D01*
X188279256Y-88239986D01*
X188239511Y-88297436D01*
X188237342Y-88300691D01*
X188236159Y-88299902D01*
X188189783Y-88343968D01*
X188121153Y-88357070D01*
X188096608Y-88352143D01*
X187890627Y-88288607D01*
X187890620Y-88288605D01*
X187890615Y-88288604D01*
X187760401Y-88268977D01*
X187631187Y-88249500D01*
X187631182Y-88249500D01*
X187368818Y-88249500D01*
X187368812Y-88249500D01*
X187207247Y-88273853D01*
X187109385Y-88288604D01*
X187109382Y-88288605D01*
X187109376Y-88288606D01*
X186901243Y-88352807D01*
X186831379Y-88353757D01*
X186772093Y-88316786D01*
X186760380Y-88301359D01*
X186722745Y-88242798D01*
X186721884Y-88241458D01*
X186721878Y-88241451D01*
X186676134Y-88188659D01*
X186676130Y-88188656D01*
X186676128Y-88188653D01*
X186567394Y-88094433D01*
X186567391Y-88094431D01*
X186567389Y-88094430D01*
X186436523Y-88034664D01*
X186436518Y-88034662D01*
X186436517Y-88034662D01*
X186369478Y-88014977D01*
X186369480Y-88014977D01*
X186369475Y-88014976D01*
X186309019Y-88006284D01*
X186227058Y-87994500D01*
X186227056Y-87994500D01*
X176162000Y-87994500D01*
X176094961Y-87974815D01*
X176049206Y-87922011D01*
X176038000Y-87870500D01*
X176038000Y-86864866D01*
X176056462Y-86799768D01*
X176059814Y-86794334D01*
X176114999Y-86627797D01*
X176125500Y-86525009D01*
X176125499Y-85474992D01*
X176117952Y-85401116D01*
X176114999Y-85372203D01*
X176114998Y-85372200D01*
X176081028Y-85269686D01*
X176059814Y-85205666D01*
X176056458Y-85200225D01*
X176038000Y-85135134D01*
X176038000Y-81864866D01*
X176056462Y-81799768D01*
X176058037Y-81797215D01*
X176059814Y-81794334D01*
X176114999Y-81627797D01*
X176125500Y-81525009D01*
X176125499Y-80474992D01*
X176123645Y-80456846D01*
X176114999Y-80372203D01*
X176114998Y-80372200D01*
X176097361Y-80318975D01*
X176059814Y-80205666D01*
X175967712Y-80056344D01*
X175843656Y-79932288D01*
X175694334Y-79840186D01*
X175527797Y-79785001D01*
X175527795Y-79785000D01*
X175425010Y-79774500D01*
X174649998Y-79774500D01*
X174649980Y-79774501D01*
X174547203Y-79785000D01*
X174547200Y-79785001D01*
X174380668Y-79840185D01*
X174380663Y-79840187D01*
X174231342Y-79932289D01*
X174107285Y-80056346D01*
X174105537Y-80059182D01*
X174103829Y-80060717D01*
X174102807Y-80062011D01*
X174102585Y-80061836D01*
X174053589Y-80105905D01*
X173984626Y-80117126D01*
X173920544Y-80089282D01*
X173894463Y-80059182D01*
X173892714Y-80056346D01*
X173768657Y-79932289D01*
X173768656Y-79932288D01*
X173619334Y-79840186D01*
X173452797Y-79785001D01*
X173452795Y-79785000D01*
X173350010Y-79774500D01*
X172574998Y-79774500D01*
X172574980Y-79774501D01*
X172472203Y-79785000D01*
X172472200Y-79785001D01*
X172305668Y-79840185D01*
X172305663Y-79840187D01*
X172156342Y-79932289D01*
X172032289Y-80056342D01*
X171940187Y-80205663D01*
X171940185Y-80205668D01*
X171917472Y-80274211D01*
X171885001Y-80372203D01*
X171885001Y-80372204D01*
X171885000Y-80372204D01*
X171874500Y-80474983D01*
X171874500Y-81525001D01*
X171874501Y-81525019D01*
X171885000Y-81627796D01*
X171885001Y-81627799D01*
X171940185Y-81794331D01*
X171940188Y-81794338D01*
X171943538Y-81799768D01*
X171962000Y-81864866D01*
X171962000Y-85135134D01*
X171943541Y-85200225D01*
X171941188Y-85204039D01*
X171940185Y-85205667D01*
X171917721Y-85273460D01*
X171885001Y-85372203D01*
X171885001Y-85372204D01*
X171885000Y-85372204D01*
X171874500Y-85474983D01*
X171874500Y-85621716D01*
X171854815Y-85688755D01*
X171838181Y-85709397D01*
X170087680Y-87459898D01*
X170026357Y-87493383D01*
X169956665Y-87488399D01*
X169912320Y-87459899D01*
X169039224Y-86586804D01*
X168161818Y-85709397D01*
X168128333Y-85648074D01*
X168125499Y-85621716D01*
X168125499Y-85474998D01*
X168125498Y-85474981D01*
X168114999Y-85372203D01*
X168114998Y-85372200D01*
X168081028Y-85269686D01*
X168059814Y-85205666D01*
X168056458Y-85200225D01*
X168038000Y-85135134D01*
X168038000Y-81864866D01*
X168056462Y-81799768D01*
X168058037Y-81797215D01*
X168059814Y-81794334D01*
X168114999Y-81627797D01*
X168125500Y-81525009D01*
X168125499Y-80474992D01*
X168123645Y-80456846D01*
X168114999Y-80372203D01*
X168114998Y-80372200D01*
X168097361Y-80318975D01*
X168059814Y-80205666D01*
X167967712Y-80056344D01*
X167843656Y-79932288D01*
X167694334Y-79840186D01*
X167527797Y-79785001D01*
X167527795Y-79785000D01*
X167425010Y-79774500D01*
X166649998Y-79774500D01*
X166649980Y-79774501D01*
X166547203Y-79785000D01*
X166547200Y-79785001D01*
X166380668Y-79840185D01*
X166380663Y-79840187D01*
X166231342Y-79932289D01*
X166107288Y-80056343D01*
X166107283Y-80056349D01*
X166105241Y-80059661D01*
X166103247Y-80061453D01*
X166102807Y-80062011D01*
X166102711Y-80061935D01*
X166053291Y-80106383D01*
X165984328Y-80117602D01*
X165920247Y-80089755D01*
X165894168Y-80059656D01*
X165892319Y-80056659D01*
X165892316Y-80056655D01*
X165768345Y-79932684D01*
X165619124Y-79840643D01*
X165619119Y-79840641D01*
X165452697Y-79785494D01*
X165452690Y-79785493D01*
X165349986Y-79775000D01*
X165212500Y-79775000D01*
X165212500Y-82224999D01*
X165349972Y-82224999D01*
X165349986Y-82224998D01*
X165452697Y-82214505D01*
X165619119Y-82159358D01*
X165619124Y-82159356D01*
X165768345Y-82067315D01*
X165825319Y-82010342D01*
X165886642Y-81976857D01*
X165956334Y-81981841D01*
X166012267Y-82023713D01*
X166036684Y-82089177D01*
X166037000Y-82098023D01*
X166037000Y-84901977D01*
X166017315Y-84969016D01*
X165964511Y-85014771D01*
X165895353Y-85024715D01*
X165831797Y-84995690D01*
X165825319Y-84989658D01*
X165768345Y-84932684D01*
X165619124Y-84840643D01*
X165619119Y-84840641D01*
X165452697Y-84785494D01*
X165452690Y-84785493D01*
X165349986Y-84775000D01*
X165212500Y-84775000D01*
X165212500Y-87224999D01*
X165349972Y-87224999D01*
X165349986Y-87224998D01*
X165452697Y-87214505D01*
X165619119Y-87159358D01*
X165619124Y-87159356D01*
X165768345Y-87067315D01*
X165892318Y-86943342D01*
X165894165Y-86940348D01*
X165895969Y-86938724D01*
X165896798Y-86937677D01*
X165896976Y-86937818D01*
X165946110Y-86893621D01*
X166015073Y-86882396D01*
X166079156Y-86910236D01*
X166105243Y-86940341D01*
X166107288Y-86943656D01*
X166231344Y-87067712D01*
X166380666Y-87159814D01*
X166547203Y-87214999D01*
X166649991Y-87225500D01*
X166796716Y-87225499D01*
X166863756Y-87245183D01*
X166884398Y-87261818D01*
X167405399Y-87782819D01*
X167438884Y-87844142D01*
X167433900Y-87913834D01*
X167392028Y-87969767D01*
X167326564Y-87994184D01*
X167317718Y-87994500D01*
X166444264Y-87994500D01*
X166426281Y-87994820D01*
X166418636Y-87995093D01*
X166417391Y-87995138D01*
X166417387Y-87995138D01*
X166417365Y-87995139D01*
X166399379Y-87996103D01*
X166399364Y-87996105D01*
X166258788Y-88026686D01*
X166258783Y-88026687D01*
X166258782Y-88026688D01*
X166242956Y-88032590D01*
X166193316Y-88051105D01*
X166193312Y-88051107D01*
X166067044Y-88120055D01*
X165965306Y-88221789D01*
X165965300Y-88221796D01*
X165923497Y-88277638D01*
X165923438Y-88277717D01*
X165923425Y-88277733D01*
X165923423Y-88277737D01*
X165854471Y-88404015D01*
X165823890Y-88544599D01*
X165823889Y-88544607D01*
X165818905Y-88614297D01*
X165818905Y-88614300D01*
X165819814Y-88627011D01*
X165829169Y-88757810D01*
X165879451Y-88892619D01*
X165898190Y-88926936D01*
X165912754Y-88953610D01*
X165912936Y-88953942D01*
X165999160Y-89069123D01*
X165999164Y-89069127D01*
X165999169Y-89069133D01*
X166695407Y-89765370D01*
X166728892Y-89826693D01*
X166723908Y-89896384D01*
X166682037Y-89952318D01*
X166680612Y-89953369D01*
X166513758Y-90074596D01*
X166352097Y-90236257D01*
X166217711Y-90421223D01*
X166113917Y-90624931D01*
X166043265Y-90842374D01*
X166033254Y-90905583D01*
X166003324Y-90968717D01*
X165944013Y-91005648D01*
X165874150Y-91004650D01*
X165823100Y-90973865D01*
X162636819Y-87787584D01*
X162603334Y-87726261D01*
X162600500Y-87699903D01*
X162600500Y-87582412D01*
X162620185Y-87515373D01*
X162627555Y-87505097D01*
X162629810Y-87502267D01*
X162629816Y-87502262D01*
X162725789Y-87349522D01*
X162785368Y-87179255D01*
X162785369Y-87179249D01*
X162805565Y-87000003D01*
X162805565Y-86999996D01*
X162785369Y-86820750D01*
X162785368Y-86820745D01*
X162760090Y-86748505D01*
X162725789Y-86650478D01*
X162713727Y-86631282D01*
X162646956Y-86525016D01*
X162629816Y-86497738D01*
X162502262Y-86370184D01*
X162433553Y-86327011D01*
X162349523Y-86274211D01*
X162280332Y-86250000D01*
X163875001Y-86250000D01*
X163875001Y-86524986D01*
X163885494Y-86627697D01*
X163940641Y-86794119D01*
X163940643Y-86794124D01*
X164032684Y-86943345D01*
X164156654Y-87067315D01*
X164305875Y-87159356D01*
X164305880Y-87159358D01*
X164472302Y-87214505D01*
X164472309Y-87214506D01*
X164575019Y-87224999D01*
X164712499Y-87224999D01*
X164712500Y-87224998D01*
X164712500Y-86250000D01*
X163875001Y-86250000D01*
X162280332Y-86250000D01*
X162179254Y-86214631D01*
X162179249Y-86214630D01*
X162000004Y-86194435D01*
X161999996Y-86194435D01*
X161820750Y-86214630D01*
X161820745Y-86214631D01*
X161650476Y-86274211D01*
X161497737Y-86370184D01*
X161370184Y-86497737D01*
X161274211Y-86650476D01*
X161214631Y-86820745D01*
X161214630Y-86820750D01*
X161194435Y-86999996D01*
X161194435Y-87000003D01*
X161214630Y-87179249D01*
X161214631Y-87179254D01*
X161274211Y-87349523D01*
X161334515Y-87445496D01*
X161367341Y-87497738D01*
X161370185Y-87502263D01*
X161372445Y-87505097D01*
X161373334Y-87507275D01*
X161373889Y-87508158D01*
X161373734Y-87508255D01*
X161398855Y-87569783D01*
X161399500Y-87582412D01*
X161399500Y-87870500D01*
X161379815Y-87937539D01*
X161327011Y-87983294D01*
X161275500Y-87994500D01*
X154914672Y-87994500D01*
X154847633Y-87974815D01*
X154801878Y-87922011D01*
X154791934Y-87852853D01*
X154820959Y-87789297D01*
X154876352Y-87752569D01*
X154980025Y-87718884D01*
X155155405Y-87629524D01*
X155314646Y-87513828D01*
X155453828Y-87374646D01*
X155569524Y-87215405D01*
X155658884Y-87040025D01*
X155719709Y-86852826D01*
X155726268Y-86811416D01*
X155750500Y-86658422D01*
X155750500Y-86461577D01*
X155719709Y-86267173D01*
X155658882Y-86079970D01*
X155569523Y-85904594D01*
X155457204Y-85750000D01*
X163875000Y-85750000D01*
X164712500Y-85750000D01*
X164712500Y-84775000D01*
X164575027Y-84775000D01*
X164575012Y-84775001D01*
X164472302Y-84785494D01*
X164305880Y-84840641D01*
X164305875Y-84840643D01*
X164156654Y-84932684D01*
X164032684Y-85056654D01*
X163940643Y-85205875D01*
X163940641Y-85205880D01*
X163885494Y-85372302D01*
X163885493Y-85372309D01*
X163875000Y-85475013D01*
X163875000Y-85750000D01*
X155457204Y-85750000D01*
X155453828Y-85745354D01*
X155314646Y-85606172D01*
X155155405Y-85490476D01*
X155124998Y-85474983D01*
X154980029Y-85401117D01*
X154792826Y-85340290D01*
X154598422Y-85309500D01*
X154598417Y-85309500D01*
X154401583Y-85309500D01*
X154401578Y-85309500D01*
X154207173Y-85340290D01*
X154019970Y-85401117D01*
X153844594Y-85490476D01*
X153753741Y-85556485D01*
X153685354Y-85606172D01*
X153685352Y-85606174D01*
X153685351Y-85606174D01*
X153546174Y-85745351D01*
X153546174Y-85745352D01*
X153546172Y-85745354D01*
X153496485Y-85813741D01*
X153430476Y-85904594D01*
X153341117Y-86079970D01*
X153280290Y-86267173D01*
X153249500Y-86461577D01*
X153249500Y-86658422D01*
X153280290Y-86852826D01*
X153341117Y-87040029D01*
X153402150Y-87159812D01*
X153430476Y-87215405D01*
X153546172Y-87374646D01*
X153685354Y-87513828D01*
X153844595Y-87629524D01*
X153885716Y-87650476D01*
X154019970Y-87718882D01*
X154019972Y-87718882D01*
X154019975Y-87718884D01*
X154123647Y-87752569D01*
X154181322Y-87792007D01*
X154208520Y-87856366D01*
X154196605Y-87925212D01*
X154149361Y-87976688D01*
X154085328Y-87994500D01*
X150624500Y-87994500D01*
X150557461Y-87974815D01*
X150511706Y-87922011D01*
X150500500Y-87870500D01*
X150500500Y-81250000D01*
X163875001Y-81250000D01*
X163875001Y-81524986D01*
X163885494Y-81627697D01*
X163940641Y-81794119D01*
X163940643Y-81794124D01*
X164032684Y-81943345D01*
X164156654Y-82067315D01*
X164305875Y-82159356D01*
X164305880Y-82159358D01*
X164472302Y-82214505D01*
X164472309Y-82214506D01*
X164575019Y-82224999D01*
X164712499Y-82224999D01*
X164712500Y-82224998D01*
X164712500Y-81250000D01*
X163875001Y-81250000D01*
X150500500Y-81250000D01*
X150500500Y-80750000D01*
X163875000Y-80750000D01*
X164712500Y-80750000D01*
X164712500Y-79775000D01*
X164575027Y-79775000D01*
X164575012Y-79775001D01*
X164472302Y-79785494D01*
X164305880Y-79840641D01*
X164305875Y-79840643D01*
X164156654Y-79932684D01*
X164032684Y-80056654D01*
X163940643Y-80205875D01*
X163940641Y-80205880D01*
X163885494Y-80372302D01*
X163885493Y-80372309D01*
X163875000Y-80475013D01*
X163875000Y-80750000D01*
X150500500Y-80750000D01*
X150500500Y-54121288D01*
X152149500Y-54121288D01*
X152168705Y-54267173D01*
X152181162Y-54361789D01*
X152191267Y-54399500D01*
X152243947Y-54596104D01*
X152336773Y-54820205D01*
X152336776Y-54820212D01*
X152458064Y-55030289D01*
X152458066Y-55030292D01*
X152458067Y-55030293D01*
X152605733Y-55222736D01*
X152605739Y-55222743D01*
X152777256Y-55394260D01*
X152777262Y-55394265D01*
X152969711Y-55541936D01*
X153179788Y-55663224D01*
X153403900Y-55756054D01*
X153638211Y-55818838D01*
X153818586Y-55842584D01*
X153878711Y-55850500D01*
X153878712Y-55850500D01*
X154121289Y-55850500D01*
X154169388Y-55844167D01*
X154361789Y-55818838D01*
X154596100Y-55756054D01*
X154820212Y-55663224D01*
X155030289Y-55541936D01*
X155222738Y-55394265D01*
X155394265Y-55222738D01*
X155541936Y-55030289D01*
X155663224Y-54820212D01*
X155756054Y-54596100D01*
X155818838Y-54361789D01*
X155850500Y-54121288D01*
X155850500Y-53878712D01*
X155818838Y-53638211D01*
X155756054Y-53403900D01*
X155663224Y-53179788D01*
X155541936Y-52969711D01*
X155394265Y-52777262D01*
X155394260Y-52777256D01*
X155222743Y-52605739D01*
X155222736Y-52605733D01*
X155030293Y-52458067D01*
X155030292Y-52458066D01*
X155030289Y-52458064D01*
X154820212Y-52336776D01*
X154820205Y-52336773D01*
X154596104Y-52243947D01*
X154361785Y-52181161D01*
X154121289Y-52149500D01*
X154121288Y-52149500D01*
X153878712Y-52149500D01*
X153878711Y-52149500D01*
X153638214Y-52181161D01*
X153403895Y-52243947D01*
X153179794Y-52336773D01*
X153179785Y-52336777D01*
X152969706Y-52458067D01*
X152777263Y-52605733D01*
X152777256Y-52605739D01*
X152605739Y-52777256D01*
X152605733Y-52777263D01*
X152458067Y-52969706D01*
X152336777Y-53179785D01*
X152336773Y-53179794D01*
X152243947Y-53403895D01*
X152181161Y-53638214D01*
X152149500Y-53878711D01*
X152149500Y-54121288D01*
X150500500Y-54121288D01*
X150500500Y-52004427D01*
X150500816Y-51995581D01*
X150515130Y-51795443D01*
X150515131Y-51795442D01*
X150515130Y-51795436D01*
X150517646Y-51777938D01*
X150559356Y-51586199D01*
X150564333Y-51569248D01*
X150632911Y-51385385D01*
X150640259Y-51369298D01*
X150702815Y-51254734D01*
X150734291Y-51197089D01*
X150743845Y-51182221D01*
X150861448Y-51025123D01*
X150873020Y-51011769D01*
X151011769Y-50873020D01*
X151025123Y-50861448D01*
X151182221Y-50743845D01*
X151197089Y-50734291D01*
X151369298Y-50640258D01*
X151385385Y-50632911D01*
X151569248Y-50564333D01*
X151586199Y-50559356D01*
X151777938Y-50517646D01*
X151795436Y-50515130D01*
X151995582Y-50500816D01*
X152004428Y-50500500D01*
X152065892Y-50500500D01*
X247934108Y-50500500D01*
X247995572Y-50500500D01*
X248004418Y-50500816D01*
G37*
%TD.AperFunction*%
%TA.AperFunction,Conductor*%
G36*
X170039745Y-105300075D02*
G01*
X170125255Y-105349444D01*
X170220630Y-105375000D01*
X170319370Y-105375000D01*
X170414745Y-105349444D01*
X170500255Y-105300075D01*
X170514500Y-105285830D01*
X170514500Y-105326002D01*
X170517617Y-105341671D01*
X170520000Y-105365865D01*
X170520000Y-106220352D01*
X170568974Y-106210612D01*
X170568983Y-106210609D01*
X170600305Y-106197635D01*
X170669774Y-106190165D01*
X170732254Y-106221439D01*
X170767907Y-106281527D01*
X170770497Y-106329840D01*
X170765000Y-106368074D01*
X170765000Y-106441542D01*
X170762617Y-106465734D01*
X170748360Y-106537406D01*
X170741304Y-106560667D01*
X170713338Y-106628183D01*
X170701879Y-106649621D01*
X170661274Y-106710390D01*
X170645853Y-106729180D01*
X170166372Y-107208661D01*
X170136802Y-107240908D01*
X170123000Y-107257334D01*
X170096325Y-107292023D01*
X170031235Y-107420349D01*
X170008847Y-107486442D01*
X170008818Y-107486530D01*
X169982522Y-107627980D01*
X169982522Y-107627984D01*
X169997143Y-107771119D01*
X169997143Y-107771122D01*
X170014061Y-107838903D01*
X170015772Y-107843096D01*
X170022869Y-107912604D01*
X169991261Y-107974916D01*
X169930982Y-108010246D01*
X169861172Y-108007379D01*
X169813278Y-107977617D01*
X169768345Y-107932684D01*
X169619124Y-107840643D01*
X169619119Y-107840641D01*
X169452697Y-107785494D01*
X169452690Y-107785493D01*
X169349986Y-107775000D01*
X169212500Y-107775000D01*
X169212500Y-109126000D01*
X169192815Y-109193039D01*
X169140011Y-109238794D01*
X169088500Y-109250000D01*
X168836500Y-109250000D01*
X168769461Y-109230315D01*
X168723706Y-109177511D01*
X168712500Y-109126000D01*
X168712500Y-107775000D01*
X168707511Y-107770011D01*
X168657461Y-107755315D01*
X168611706Y-107702511D01*
X168600500Y-107651000D01*
X168600500Y-106374499D01*
X168620185Y-106307460D01*
X168672989Y-106261705D01*
X168724500Y-106250499D01*
X169572871Y-106250499D01*
X169572872Y-106250499D01*
X169632483Y-106244091D01*
X169767331Y-106193796D01*
X169768893Y-106192626D01*
X169770722Y-106191944D01*
X169775118Y-106189544D01*
X169775462Y-106190175D01*
X169834354Y-106168204D01*
X169890664Y-106177326D01*
X169971017Y-106210609D01*
X169971025Y-106210611D01*
X170020000Y-106220353D01*
X170020000Y-105855671D01*
X170020711Y-105842415D01*
X170025499Y-105797881D01*
X170025500Y-105797873D01*
X170025499Y-105285829D01*
X170039745Y-105300075D01*
G37*
%TD.AperFunction*%
%TA.AperFunction,Conductor*%
G36*
X222905642Y-102758885D02*
G01*
X222926284Y-102775519D01*
X225515139Y-105364374D01*
X225515149Y-105364385D01*
X225519479Y-105368715D01*
X225519480Y-105368716D01*
X225631284Y-105480520D01*
X225706814Y-105524127D01*
X225768215Y-105559577D01*
X225920942Y-105600500D01*
X225920943Y-105600500D01*
X227250903Y-105600500D01*
X227317942Y-105620185D01*
X227363697Y-105672989D01*
X227373641Y-105742147D01*
X227344616Y-105805703D01*
X227338584Y-105812181D01*
X224737584Y-108413181D01*
X224676261Y-108446666D01*
X224649903Y-108449500D01*
X212674500Y-108449500D01*
X212607461Y-108429815D01*
X212561706Y-108377011D01*
X212550500Y-108325500D01*
X212550500Y-107350097D01*
X212570185Y-107283058D01*
X212586819Y-107262416D01*
X212640574Y-107208661D01*
X212930520Y-106918716D01*
X213009577Y-106781784D01*
X213050501Y-106629057D01*
X213050501Y-106470942D01*
X213050501Y-106463347D01*
X213050500Y-106463329D01*
X213050500Y-105638855D01*
X213070185Y-105571816D01*
X213122989Y-105526061D01*
X213148705Y-105517568D01*
X213277845Y-105490120D01*
X213449563Y-105413666D01*
X213562542Y-105331581D01*
X213628345Y-105308103D01*
X213696399Y-105323928D01*
X213708310Y-105331583D01*
X213806045Y-105402591D01*
X213848711Y-105457920D01*
X213854690Y-105527534D01*
X213822085Y-105589329D01*
X213820844Y-105590588D01*
X213808193Y-105603239D01*
X213675155Y-105786349D01*
X213572400Y-105988018D01*
X213572398Y-105988021D01*
X213502458Y-106203274D01*
X213502458Y-106203277D01*
X213467050Y-106426831D01*
X213467050Y-106653168D01*
X213502458Y-106876722D01*
X213502458Y-106876725D01*
X213572398Y-107091978D01*
X213572400Y-107091981D01*
X213675155Y-107293650D01*
X213808193Y-107476761D01*
X213968239Y-107636807D01*
X214151350Y-107769845D01*
X214353019Y-107872600D01*
X214353021Y-107872601D01*
X214476139Y-107912604D01*
X214568279Y-107942542D01*
X214791831Y-107977950D01*
X214791832Y-107977950D01*
X215018168Y-107977950D01*
X215018169Y-107977950D01*
X215241721Y-107942542D01*
X215241724Y-107942541D01*
X215241725Y-107942541D01*
X215456978Y-107872601D01*
X215456978Y-107872600D01*
X215456981Y-107872600D01*
X215658650Y-107769845D01*
X215841761Y-107636807D01*
X216001807Y-107476761D01*
X216134845Y-107293650D01*
X216237600Y-107091981D01*
X216293897Y-106918716D01*
X216307541Y-106876725D01*
X216307541Y-106876724D01*
X216307542Y-106876721D01*
X216342950Y-106653169D01*
X216342950Y-106426831D01*
X216307542Y-106203279D01*
X216307541Y-106203275D01*
X216307541Y-106203274D01*
X216237601Y-105988021D01*
X216237599Y-105988018D01*
X216181909Y-105878718D01*
X216134845Y-105786350D01*
X216001807Y-105603239D01*
X215989516Y-105590948D01*
X215956031Y-105529625D01*
X215961015Y-105459933D01*
X216002887Y-105404000D01*
X216004196Y-105403033D01*
X216012594Y-105396933D01*
X216078403Y-105373461D01*
X216146455Y-105389295D01*
X216188569Y-105428369D01*
X216230698Y-105491419D01*
X216230701Y-105491423D01*
X216334576Y-105595298D01*
X216334580Y-105595301D01*
X216456724Y-105676916D01*
X216456730Y-105676919D01*
X216456731Y-105676920D01*
X216592458Y-105733140D01*
X216736540Y-105761799D01*
X216736544Y-105761800D01*
X216736545Y-105761800D01*
X216883456Y-105761800D01*
X216883457Y-105761799D01*
X217027542Y-105733140D01*
X217163269Y-105676920D01*
X217285420Y-105595301D01*
X217389301Y-105491420D01*
X217470920Y-105369269D01*
X217527140Y-105233542D01*
X217555800Y-105089455D01*
X217555800Y-104942545D01*
X217527140Y-104798458D01*
X217470920Y-104662731D01*
X217470919Y-104662730D01*
X217470916Y-104662724D01*
X217389301Y-104540580D01*
X217389298Y-104540576D01*
X217285423Y-104436701D01*
X217285419Y-104436698D01*
X217163275Y-104355083D01*
X217163266Y-104355078D01*
X217027544Y-104298861D01*
X217027545Y-104298861D01*
X217027542Y-104298860D01*
X217027538Y-104298859D01*
X217027534Y-104298858D01*
X216883459Y-104270200D01*
X216883455Y-104270200D01*
X216736545Y-104270200D01*
X216736540Y-104270200D01*
X216592465Y-104298858D01*
X216592460Y-104298859D01*
X216592458Y-104298860D01*
X216592456Y-104298861D01*
X216520083Y-104328838D01*
X216450614Y-104336306D01*
X216388135Y-104305030D01*
X216366060Y-104274101D01*
X216364642Y-104274921D01*
X216311655Y-104183145D01*
X216267408Y-104106507D01*
X216246216Y-104082971D01*
X216215987Y-104019980D01*
X216224612Y-103950645D01*
X216246217Y-103917028D01*
X216267408Y-103893493D01*
X216331514Y-103782458D01*
X216364642Y-103725079D01*
X216366923Y-103726396D01*
X216404556Y-103682081D01*
X216471396Y-103661729D01*
X216520084Y-103671161D01*
X216592458Y-103701140D01*
X216719432Y-103726396D01*
X216736540Y-103729799D01*
X216736544Y-103729800D01*
X216736545Y-103729800D01*
X216883456Y-103729800D01*
X216883457Y-103729799D01*
X217027542Y-103701140D01*
X217163269Y-103644920D01*
X217285420Y-103563301D01*
X217389301Y-103459420D01*
X217470920Y-103337269D01*
X217527140Y-103201542D01*
X217555800Y-103057455D01*
X217555800Y-102910545D01*
X217553295Y-102897950D01*
X217551195Y-102887391D01*
X217557422Y-102817799D01*
X217600286Y-102762622D01*
X217666175Y-102739378D01*
X217672812Y-102739200D01*
X222838603Y-102739200D01*
X222905642Y-102758885D01*
G37*
%TD.AperFunction*%
%TA.AperFunction,Conductor*%
G36*
X170039745Y-97300075D02*
G01*
X170125255Y-97349444D01*
X170220630Y-97375000D01*
X170319370Y-97375000D01*
X170414745Y-97349444D01*
X170500255Y-97300075D01*
X170514500Y-97285830D01*
X170514500Y-97326002D01*
X170517617Y-97341671D01*
X170520000Y-97365865D01*
X170520000Y-98220352D01*
X170568974Y-98210612D01*
X170568983Y-98210609D01*
X170600305Y-98197635D01*
X170669774Y-98190165D01*
X170732254Y-98221439D01*
X170767907Y-98281527D01*
X170770497Y-98329840D01*
X170765000Y-98368074D01*
X170765000Y-98766540D01*
X170762617Y-98790732D01*
X170748360Y-98862404D01*
X170741304Y-98885666D01*
X170713334Y-98953190D01*
X170701875Y-98974626D01*
X170661278Y-99035384D01*
X170645858Y-99054175D01*
X170494612Y-99205421D01*
X170482135Y-99218351D01*
X170476091Y-99224843D01*
X170464038Y-99238260D01*
X170386248Y-99359304D01*
X170386238Y-99359322D01*
X170357480Y-99422296D01*
X170357227Y-99422845D01*
X170357221Y-99422862D01*
X170357221Y-99422864D01*
X170316691Y-99560905D01*
X170316687Y-99560918D01*
X170316687Y-99704793D01*
X170317962Y-99713656D01*
X170326632Y-99773955D01*
X170326633Y-99773959D01*
X170326635Y-99773971D01*
X170327066Y-99775953D01*
X170327017Y-99776629D01*
X170327263Y-99778337D01*
X170326891Y-99778390D01*
X170322071Y-99845644D01*
X170280191Y-99901571D01*
X170270994Y-99907831D01*
X170231344Y-99932287D01*
X170107288Y-100056343D01*
X170107283Y-100056349D01*
X170105241Y-100059661D01*
X170103247Y-100061453D01*
X170102807Y-100062011D01*
X170102711Y-100061935D01*
X170053291Y-100106383D01*
X169984328Y-100117602D01*
X169920247Y-100089755D01*
X169894168Y-100059656D01*
X169892319Y-100056659D01*
X169892316Y-100056655D01*
X169768345Y-99932684D01*
X169619124Y-99840643D01*
X169619119Y-99840641D01*
X169452697Y-99785494D01*
X169452690Y-99785493D01*
X169349986Y-99775000D01*
X169212500Y-99775000D01*
X169212500Y-101126000D01*
X169192815Y-101193039D01*
X169140011Y-101238794D01*
X169088500Y-101250000D01*
X168836500Y-101250000D01*
X168769461Y-101230315D01*
X168723706Y-101177511D01*
X168712500Y-101126000D01*
X168712500Y-99774999D01*
X168706413Y-99768913D01*
X168672927Y-99707591D01*
X168677911Y-99637899D01*
X168706412Y-99593550D01*
X168805067Y-99494896D01*
X169480344Y-98819620D01*
X169492830Y-98806682D01*
X169498860Y-98800207D01*
X169510964Y-98786734D01*
X169588751Y-98665694D01*
X169617598Y-98602527D01*
X169617773Y-98602147D01*
X169617776Y-98602138D01*
X169617778Y-98602135D01*
X169658312Y-98464082D01*
X169658311Y-98320552D01*
X169677995Y-98253513D01*
X169730799Y-98207758D01*
X169738974Y-98204372D01*
X169767331Y-98193796D01*
X169768893Y-98192626D01*
X169770722Y-98191944D01*
X169775112Y-98189547D01*
X169775456Y-98190177D01*
X169834354Y-98168204D01*
X169890664Y-98177326D01*
X169971017Y-98210609D01*
X169971025Y-98210611D01*
X170020000Y-98220353D01*
X170020000Y-97855671D01*
X170020711Y-97842415D01*
X170025499Y-97797881D01*
X170025500Y-97797873D01*
X170025499Y-97285829D01*
X170039745Y-97300075D01*
G37*
%TD.AperFunction*%
%TA.AperFunction,Conductor*%
G36*
X241044688Y-80470185D02*
G01*
X241090443Y-80522989D01*
X241100939Y-80561248D01*
X241105908Y-80607483D01*
X241156202Y-80742328D01*
X241156206Y-80742335D01*
X241242452Y-80857544D01*
X241242455Y-80857547D01*
X241357664Y-80943793D01*
X241357671Y-80943797D01*
X241492517Y-80994091D01*
X241492516Y-80994091D01*
X241499444Y-80994835D01*
X241552127Y-81000500D01*
X242151928Y-81000499D01*
X242218967Y-81020183D01*
X242264722Y-81072987D01*
X242274666Y-81142146D01*
X242268970Y-81165453D01*
X242214632Y-81320742D01*
X242214630Y-81320750D01*
X242194435Y-81499996D01*
X242194435Y-81500003D01*
X242214630Y-81679249D01*
X242214631Y-81679254D01*
X242274211Y-81849523D01*
X242283852Y-81864866D01*
X242370184Y-82002262D01*
X242497738Y-82129816D01*
X242544751Y-82159356D01*
X242649220Y-82224999D01*
X242650478Y-82225789D01*
X242820745Y-82285368D01*
X242820750Y-82285369D01*
X242999996Y-82305565D01*
X243000000Y-82305565D01*
X243000004Y-82305565D01*
X243179249Y-82285369D01*
X243179252Y-82285368D01*
X243179255Y-82285368D01*
X243349522Y-82225789D01*
X243502262Y-82129816D01*
X243587819Y-82044259D01*
X243649142Y-82010774D01*
X243718834Y-82015758D01*
X243774767Y-82057630D01*
X243799184Y-82123094D01*
X243799500Y-82131940D01*
X243799500Y-88859897D01*
X243779815Y-88926936D01*
X243727011Y-88972691D01*
X243657853Y-88982635D01*
X243594297Y-88953610D01*
X243576234Y-88934208D01*
X243507547Y-88842455D01*
X243507544Y-88842452D01*
X243392335Y-88756206D01*
X243392328Y-88756202D01*
X243257482Y-88705908D01*
X243257483Y-88705908D01*
X243197883Y-88699501D01*
X243197881Y-88699500D01*
X243197873Y-88699500D01*
X243197864Y-88699500D01*
X241552129Y-88699500D01*
X241552123Y-88699501D01*
X241492516Y-88705908D01*
X241357671Y-88756202D01*
X241357664Y-88756206D01*
X241242455Y-88842452D01*
X241242452Y-88842455D01*
X241156208Y-88957662D01*
X241156202Y-88957671D01*
X241105910Y-89092513D01*
X241105909Y-89092517D01*
X241100937Y-89138757D01*
X241074201Y-89203306D01*
X241016809Y-89243154D01*
X240977649Y-89249500D01*
X235822351Y-89249500D01*
X235755312Y-89229815D01*
X235709557Y-89177011D01*
X235699061Y-89138752D01*
X235694091Y-89092516D01*
X235643797Y-88957671D01*
X235643792Y-88957662D01*
X235557547Y-88842455D01*
X235557544Y-88842452D01*
X235442335Y-88756206D01*
X235442328Y-88756202D01*
X235307482Y-88705908D01*
X235307483Y-88705908D01*
X235247883Y-88699501D01*
X235247881Y-88699500D01*
X235247873Y-88699500D01*
X235247865Y-88699500D01*
X234074500Y-88699500D01*
X234007461Y-88679815D01*
X233961706Y-88627011D01*
X233950500Y-88575500D01*
X233950500Y-86950096D01*
X233970185Y-86883057D01*
X233986814Y-86862420D01*
X236018535Y-84830698D01*
X236079856Y-84797215D01*
X236092311Y-84795163D01*
X236179255Y-84785368D01*
X236349522Y-84725789D01*
X236502262Y-84629816D01*
X236629816Y-84502262D01*
X236725789Y-84349522D01*
X236785368Y-84179255D01*
X236805565Y-84000000D01*
X236803370Y-83980521D01*
X236785369Y-83820750D01*
X236785368Y-83820745D01*
X236725788Y-83650476D01*
X236629815Y-83497737D01*
X236502262Y-83370184D01*
X236349523Y-83274211D01*
X236179254Y-83214631D01*
X236179249Y-83214630D01*
X236000004Y-83194435D01*
X235999996Y-83194435D01*
X235820750Y-83214630D01*
X235820745Y-83214631D01*
X235650476Y-83274211D01*
X235497737Y-83370184D01*
X235370184Y-83497737D01*
X235274210Y-83650478D01*
X235214630Y-83820750D01*
X235204837Y-83907668D01*
X235177770Y-83972082D01*
X235169298Y-83981465D01*
X233312181Y-85838583D01*
X233250858Y-85872068D01*
X233181166Y-85867084D01*
X233125233Y-85825212D01*
X233100816Y-85759748D01*
X233100500Y-85750902D01*
X233100500Y-84582412D01*
X233120185Y-84515373D01*
X233127555Y-84505097D01*
X233129810Y-84502267D01*
X233129816Y-84502262D01*
X233225789Y-84349522D01*
X233285368Y-84179255D01*
X233305565Y-84000000D01*
X233303370Y-83980521D01*
X233285369Y-83820750D01*
X233285368Y-83820745D01*
X233225788Y-83650476D01*
X233129815Y-83497737D01*
X233002262Y-83370184D01*
X232849521Y-83274210D01*
X232756845Y-83241781D01*
X232683544Y-83216132D01*
X232626770Y-83175412D01*
X232601022Y-83110460D01*
X232600500Y-83099092D01*
X232600500Y-81582412D01*
X232620185Y-81515373D01*
X232627555Y-81505097D01*
X232629810Y-81502267D01*
X232629816Y-81502262D01*
X232725789Y-81349522D01*
X232785368Y-81179255D01*
X232795161Y-81092329D01*
X232822226Y-81027918D01*
X232830690Y-81018543D01*
X233062505Y-80786728D01*
X233123826Y-80753245D01*
X233193518Y-80758229D01*
X233249448Y-80800098D01*
X233292454Y-80857546D01*
X233292455Y-80857546D01*
X233292456Y-80857548D01*
X233407664Y-80943793D01*
X233407671Y-80943797D01*
X233542517Y-80994091D01*
X233542516Y-80994091D01*
X233549444Y-80994835D01*
X233602127Y-81000500D01*
X235247872Y-81000499D01*
X235307483Y-80994091D01*
X235442331Y-80943796D01*
X235557546Y-80857546D01*
X235643796Y-80742331D01*
X235694091Y-80607483D01*
X235699062Y-80561242D01*
X235725799Y-80496694D01*
X235783191Y-80456846D01*
X235822351Y-80450500D01*
X240977649Y-80450500D01*
X241044688Y-80470185D01*
G37*
%TD.AperFunction*%
%TD*%
%TA.AperFunction,Conductor*%
%TO.N,+24V*%
G36*
X161666442Y-88519685D02*
G01*
X161687084Y-88536319D01*
X165963181Y-92812416D01*
X165996666Y-92873739D01*
X165999500Y-92900097D01*
X165999500Y-96720500D01*
X165979815Y-96787539D01*
X165927011Y-96833294D01*
X165875500Y-96844500D01*
X163999997Y-96844500D01*
X163934505Y-96849184D01*
X163925659Y-96849500D01*
X163893390Y-96849500D01*
X163683802Y-96888679D01*
X163683799Y-96888679D01*
X163683799Y-96888680D01*
X163484982Y-96965701D01*
X163484980Y-96965702D01*
X163303699Y-97077947D01*
X163146127Y-97221593D01*
X163017632Y-97391746D01*
X162922596Y-97582605D01*
X162922596Y-97582607D01*
X162864244Y-97787689D01*
X162844571Y-97999999D01*
X162844571Y-98000000D01*
X162864244Y-98212310D01*
X162922596Y-98417392D01*
X162922596Y-98417394D01*
X163017632Y-98608253D01*
X163017634Y-98608255D01*
X163146128Y-98778407D01*
X163303698Y-98922052D01*
X163484981Y-99034298D01*
X163683802Y-99111321D01*
X163893390Y-99150500D01*
X163956355Y-99150500D01*
X163974001Y-99151762D01*
X164000000Y-99155500D01*
X165875500Y-99155500D01*
X165942539Y-99175185D01*
X165988294Y-99227989D01*
X165999500Y-99279500D01*
X165999500Y-102513330D01*
X165999499Y-102513348D01*
X165999499Y-102679054D01*
X165999498Y-102679054D01*
X166004258Y-102696819D01*
X166040423Y-102831785D01*
X166044669Y-102839139D01*
X166044670Y-102839140D01*
X166044670Y-102839141D01*
X166119477Y-102968712D01*
X166119481Y-102968717D01*
X166238349Y-103087585D01*
X166238354Y-103087589D01*
X167938182Y-104787418D01*
X167971666Y-104848739D01*
X167974500Y-104875097D01*
X167974500Y-105124901D01*
X167954815Y-105191940D01*
X167938181Y-105212582D01*
X167631286Y-105519478D01*
X167519481Y-105631282D01*
X167519475Y-105631290D01*
X167473597Y-105710755D01*
X167473597Y-105710756D01*
X167440423Y-105768215D01*
X167399499Y-105920943D01*
X167399499Y-105920945D01*
X167399499Y-106089046D01*
X167399500Y-106089059D01*
X167399500Y-109548074D01*
X167399499Y-109548092D01*
X167399499Y-109713798D01*
X167399498Y-109713798D01*
X167440423Y-109866529D01*
X167452030Y-109886632D01*
X167452031Y-109886635D01*
X167519475Y-110003453D01*
X167519481Y-110003461D01*
X167638349Y-110122329D01*
X167638355Y-110122334D01*
X167905395Y-110389374D01*
X167905405Y-110389385D01*
X167909735Y-110393715D01*
X167909736Y-110393716D01*
X168021540Y-110505520D01*
X168021542Y-110505521D01*
X168021546Y-110505524D01*
X168158465Y-110584573D01*
X168158472Y-110584577D01*
X168270275Y-110614534D01*
X168311198Y-110625500D01*
X168311199Y-110625500D01*
X169925831Y-110625500D01*
X169925847Y-110625501D01*
X169933443Y-110625501D01*
X170091554Y-110625501D01*
X170091557Y-110625501D01*
X170244285Y-110584577D01*
X170294404Y-110555639D01*
X170381216Y-110505520D01*
X170493020Y-110393716D01*
X170493021Y-110393713D01*
X170624918Y-110261815D01*
X170686239Y-110228333D01*
X170712597Y-110225499D01*
X171362402Y-110225499D01*
X171429441Y-110245184D01*
X171450083Y-110261818D01*
X171577639Y-110389374D01*
X171577649Y-110389385D01*
X171581979Y-110393715D01*
X171581980Y-110393716D01*
X171693784Y-110505520D01*
X171780595Y-110555639D01*
X171780597Y-110555641D01*
X171818651Y-110577611D01*
X171830715Y-110584577D01*
X171983443Y-110625501D01*
X171983446Y-110625501D01*
X172149153Y-110625501D01*
X172149169Y-110625500D01*
X174925831Y-110625500D01*
X174925847Y-110625501D01*
X174933443Y-110625501D01*
X175091554Y-110625501D01*
X175091557Y-110625501D01*
X175244285Y-110584577D01*
X175294404Y-110555639D01*
X175381216Y-110505520D01*
X175493020Y-110393716D01*
X175493021Y-110393713D01*
X175624918Y-110261815D01*
X175686239Y-110228333D01*
X175712597Y-110225499D01*
X176425002Y-110225499D01*
X176425008Y-110225499D01*
X176527797Y-110214999D01*
X176694334Y-110159814D01*
X176843656Y-110067712D01*
X176967712Y-109943656D01*
X177059814Y-109794334D01*
X177114999Y-109627797D01*
X177125500Y-109525009D01*
X177125499Y-108474992D01*
X177124330Y-108463553D01*
X177114999Y-108372203D01*
X177114998Y-108372200D01*
X177111547Y-108361785D01*
X177059814Y-108205666D01*
X176967712Y-108056344D01*
X176843656Y-107932288D01*
X176696902Y-107841770D01*
X176650179Y-107789823D01*
X176638000Y-107736232D01*
X176638000Y-106263767D01*
X176657685Y-106196728D01*
X176696901Y-106158230D01*
X176843656Y-106067712D01*
X176967712Y-105943656D01*
X177059814Y-105794334D01*
X177114999Y-105627797D01*
X177125500Y-105525009D01*
X177125499Y-104474992D01*
X177114999Y-104372203D01*
X177059814Y-104205666D01*
X176967712Y-104056344D01*
X176843656Y-103932288D01*
X176696902Y-103841770D01*
X176650179Y-103789823D01*
X176638000Y-103736232D01*
X176638000Y-102263767D01*
X176657685Y-102196728D01*
X176696901Y-102158230D01*
X176843656Y-102067712D01*
X176967712Y-101943656D01*
X177059814Y-101794334D01*
X177114999Y-101627797D01*
X177125500Y-101525009D01*
X177125499Y-100474992D01*
X177114999Y-100372203D01*
X177059814Y-100205666D01*
X176967712Y-100056344D01*
X176843656Y-99932288D01*
X176696902Y-99841770D01*
X176650179Y-99789823D01*
X176638000Y-99736232D01*
X176638000Y-98263767D01*
X176657685Y-98196728D01*
X176696901Y-98158230D01*
X176843656Y-98067712D01*
X176967712Y-97943656D01*
X177059814Y-97794334D01*
X177114999Y-97627797D01*
X177125500Y-97525009D01*
X177125499Y-96474992D01*
X177115991Y-96381919D01*
X177114999Y-96372203D01*
X177114998Y-96372200D01*
X177111845Y-96362684D01*
X177059814Y-96205666D01*
X176967712Y-96056344D01*
X176843656Y-95932288D01*
X176736529Y-95866212D01*
X176694336Y-95840187D01*
X176694331Y-95840185D01*
X176640433Y-95822325D01*
X176527797Y-95785001D01*
X176527795Y-95785000D01*
X176425010Y-95774500D01*
X175649998Y-95774500D01*
X175649980Y-95774501D01*
X175547203Y-95785000D01*
X175547200Y-95785001D01*
X175380668Y-95840185D01*
X175380663Y-95840187D01*
X175231342Y-95932289D01*
X175107285Y-96056346D01*
X175105537Y-96059182D01*
X175103829Y-96060717D01*
X175102807Y-96062011D01*
X175102585Y-96061836D01*
X175053589Y-96105905D01*
X174984626Y-96117126D01*
X174920544Y-96089282D01*
X174894463Y-96059182D01*
X174892714Y-96056346D01*
X174768657Y-95932289D01*
X174768656Y-95932288D01*
X174661529Y-95866212D01*
X174619336Y-95840187D01*
X174619331Y-95840185D01*
X174565433Y-95822325D01*
X174452797Y-95785001D01*
X174452795Y-95785000D01*
X174350010Y-95774500D01*
X173574998Y-95774500D01*
X173574980Y-95774501D01*
X173472203Y-95785000D01*
X173472200Y-95785001D01*
X173305668Y-95840185D01*
X173305663Y-95840187D01*
X173156342Y-95932289D01*
X173032289Y-96056342D01*
X172940187Y-96205663D01*
X172940185Y-96205668D01*
X172938027Y-96212182D01*
X172909505Y-96298257D01*
X172904121Y-96314504D01*
X172864348Y-96371949D01*
X172799833Y-96398772D01*
X172786415Y-96399500D01*
X172577310Y-96399500D01*
X172510271Y-96379815D01*
X172464516Y-96327011D01*
X172462749Y-96322953D01*
X172448787Y-96289247D01*
X172448786Y-96289244D01*
X172448784Y-96289241D01*
X172448782Y-96289237D01*
X172336558Y-96121281D01*
X172193718Y-95978441D01*
X172025762Y-95866217D01*
X172025752Y-95866212D01*
X171839127Y-95788909D01*
X171839119Y-95788907D01*
X171641007Y-95749500D01*
X171641003Y-95749500D01*
X171438997Y-95749500D01*
X171438992Y-95749500D01*
X171240880Y-95788907D01*
X171240872Y-95788909D01*
X171054244Y-95866213D01*
X170973891Y-95919904D01*
X170907213Y-95940782D01*
X170839833Y-95922297D01*
X170836109Y-95919904D01*
X170755755Y-95866213D01*
X170569127Y-95788909D01*
X170569119Y-95788907D01*
X170371007Y-95749500D01*
X170371003Y-95749500D01*
X170168997Y-95749500D01*
X170168992Y-95749500D01*
X169970880Y-95788907D01*
X169970868Y-95788910D01*
X169890198Y-95822325D01*
X169820729Y-95829794D01*
X169775342Y-95810036D01*
X169775114Y-95810454D01*
X169770447Y-95807905D01*
X169768432Y-95807028D01*
X169767331Y-95806204D01*
X169767330Y-95806203D01*
X169767328Y-95806202D01*
X169632482Y-95755908D01*
X169632483Y-95755908D01*
X169572883Y-95749501D01*
X169572881Y-95749500D01*
X169572873Y-95749500D01*
X169572864Y-95749500D01*
X168427129Y-95749500D01*
X168427123Y-95749501D01*
X168367516Y-95755908D01*
X168232671Y-95806202D01*
X168232664Y-95806206D01*
X168117455Y-95892452D01*
X168117452Y-95892455D01*
X168031206Y-96007664D01*
X168031202Y-96007671D01*
X167980908Y-96142517D01*
X167974501Y-96202116D01*
X167974500Y-96202135D01*
X167974500Y-97124900D01*
X167954815Y-97191939D01*
X167938182Y-97212581D01*
X167787584Y-97363181D01*
X167726261Y-97396666D01*
X167699902Y-97399500D01*
X167649967Y-97399500D01*
X167582928Y-97379815D01*
X167551013Y-97350227D01*
X167453872Y-97221593D01*
X167421343Y-97191939D01*
X167296302Y-97077948D01*
X167259221Y-97054988D01*
X167212587Y-97002961D01*
X167200500Y-96949562D01*
X167200500Y-92852696D01*
X167220185Y-92785657D01*
X167272989Y-92739902D01*
X167340790Y-92730153D01*
X167340793Y-92730118D01*
X167340948Y-92730130D01*
X167342147Y-92729958D01*
X167343818Y-92730210D01*
X167345646Y-92730500D01*
X167345650Y-92730500D01*
X167574353Y-92730500D01*
X167574354Y-92730500D01*
X167800245Y-92694722D01*
X167800248Y-92694721D01*
X167800249Y-92694721D01*
X168017755Y-92624049D01*
X168017755Y-92624048D01*
X168017758Y-92624048D01*
X168221538Y-92520217D01*
X168406566Y-92385786D01*
X168568286Y-92224066D01*
X168629683Y-92139559D01*
X168685012Y-92096896D01*
X168754625Y-92090917D01*
X168816420Y-92123523D01*
X168830314Y-92139556D01*
X168891714Y-92224066D01*
X169053434Y-92385786D01*
X169238462Y-92520217D01*
X169394064Y-92599500D01*
X169442244Y-92624049D01*
X169659751Y-92694721D01*
X169659752Y-92694721D01*
X169659755Y-92694722D01*
X169885646Y-92730500D01*
X169885647Y-92730500D01*
X170114353Y-92730500D01*
X170114354Y-92730500D01*
X170340245Y-92694722D01*
X170340248Y-92694721D01*
X170340249Y-92694721D01*
X170557755Y-92624049D01*
X170557755Y-92624048D01*
X170557758Y-92624048D01*
X170761538Y-92520217D01*
X170946566Y-92385786D01*
X171108286Y-92224066D01*
X171242717Y-92039038D01*
X171346548Y-91835258D01*
X171417222Y-91617745D01*
X171453000Y-91391854D01*
X171453000Y-91068146D01*
X171417222Y-90842255D01*
X171417221Y-90842251D01*
X171417221Y-90842250D01*
X171346549Y-90624744D01*
X171293775Y-90521169D01*
X171242717Y-90420962D01*
X171108286Y-90235934D01*
X171036819Y-90164467D01*
X171003334Y-90103144D01*
X171000500Y-90076786D01*
X171000500Y-89428282D01*
X171020185Y-89361243D01*
X171036819Y-89340601D01*
X171841101Y-88536319D01*
X171902424Y-88502834D01*
X171928782Y-88500000D01*
X186227058Y-88500000D01*
X186294097Y-88519685D01*
X186339852Y-88572489D01*
X186349796Y-88641647D01*
X186320771Y-88705203D01*
X186311399Y-88714899D01*
X186213198Y-88806014D01*
X186049614Y-89011143D01*
X185918432Y-89238356D01*
X185822580Y-89482582D01*
X185808994Y-89542101D01*
X185775785Y-89602186D01*
X182414792Y-92963181D01*
X182353469Y-92996666D01*
X182327111Y-92999500D01*
X182039341Y-92999500D01*
X181972302Y-92979815D01*
X181926547Y-92927011D01*
X181916603Y-92857853D01*
X181945628Y-92794297D01*
X181951660Y-92787819D01*
X181953822Y-92785657D01*
X181970433Y-92769046D01*
X182079652Y-92618719D01*
X182164010Y-92453157D01*
X182177399Y-92411949D01*
X182221429Y-92276440D01*
X182221429Y-92276439D01*
X182221430Y-92276436D01*
X182250498Y-92092909D01*
X182250498Y-91907095D01*
X182221430Y-91723568D01*
X182221429Y-91723564D01*
X182221429Y-91723563D01*
X182164011Y-91546849D01*
X182094853Y-91411119D01*
X182079652Y-91381285D01*
X181970433Y-91230958D01*
X181839042Y-91099567D01*
X181688715Y-90990348D01*
X181643296Y-90967206D01*
X181523150Y-90905988D01*
X181346435Y-90848570D01*
X181208786Y-90826769D01*
X181162905Y-90819502D01*
X180437091Y-90819502D01*
X180375915Y-90829191D01*
X180253562Y-90848570D01*
X180253559Y-90848570D01*
X180076845Y-90905988D01*
X179911280Y-90990348D01*
X179850862Y-91034245D01*
X179760954Y-91099567D01*
X179760952Y-91099569D01*
X179760951Y-91099569D01*
X179629565Y-91230955D01*
X179629565Y-91230956D01*
X179629563Y-91230958D01*
X179628993Y-91231743D01*
X179520344Y-91381284D01*
X179435984Y-91546849D01*
X179378566Y-91723563D01*
X179378566Y-91723566D01*
X179360876Y-91835255D01*
X179349498Y-91907095D01*
X179349498Y-92092909D01*
X179350498Y-92099221D01*
X179378566Y-92276437D01*
X179378566Y-92276440D01*
X179435984Y-92453154D01*
X179473616Y-92527011D01*
X179520344Y-92618719D01*
X179629563Y-92769046D01*
X179629565Y-92769048D01*
X179648336Y-92787819D01*
X179681821Y-92849142D01*
X179676837Y-92918834D01*
X179634965Y-92974767D01*
X179569501Y-92999184D01*
X179560655Y-92999500D01*
X179381903Y-92999500D01*
X179148631Y-93036446D01*
X178924003Y-93109433D01*
X178713566Y-93216657D01*
X178660104Y-93255500D01*
X178522490Y-93355483D01*
X178522488Y-93355485D01*
X178522487Y-93355485D01*
X178355485Y-93522487D01*
X178355485Y-93522488D01*
X178355483Y-93522490D01*
X178304791Y-93592261D01*
X178216657Y-93713566D01*
X178109433Y-93924003D01*
X178036446Y-94148631D01*
X177999500Y-94381902D01*
X177999500Y-97381443D01*
X178036446Y-97614714D01*
X178109433Y-97839342D01*
X178162585Y-97943658D01*
X178216657Y-98049780D01*
X178355483Y-98240856D01*
X180209144Y-100094517D01*
X180400220Y-100233343D01*
X180535294Y-100302166D01*
X180588618Y-100329336D01*
X180610657Y-100340566D01*
X180610659Y-100340566D01*
X180610662Y-100340568D01*
X180708015Y-100372200D01*
X180835285Y-100413553D01*
X181068557Y-100450500D01*
X181928106Y-100450500D01*
X181995145Y-100470185D01*
X182040900Y-100522989D01*
X182050844Y-100592147D01*
X182021819Y-100655703D01*
X182015787Y-100662181D01*
X179655482Y-103022486D01*
X179516655Y-103213563D01*
X179409431Y-103424001D01*
X179336444Y-103648629D01*
X179299498Y-103881900D01*
X179299498Y-104118095D01*
X179336444Y-104351366D01*
X179409431Y-104575994D01*
X179481349Y-104717140D01*
X179516655Y-104786432D01*
X179655481Y-104977508D01*
X179822488Y-105144515D01*
X180013564Y-105283341D01*
X180112990Y-105334001D01*
X180224001Y-105390564D01*
X180224003Y-105390564D01*
X180224006Y-105390566D01*
X180344410Y-105429687D01*
X180448629Y-105463551D01*
X180681901Y-105500498D01*
X180681906Y-105500498D01*
X180918095Y-105500498D01*
X181151366Y-105463551D01*
X181214021Y-105443193D01*
X181375990Y-105390566D01*
X181586432Y-105283341D01*
X181777508Y-105144515D01*
X185282018Y-101640006D01*
X185420843Y-101448929D01*
X185528068Y-101238488D01*
X185601053Y-101013864D01*
X185614523Y-100928814D01*
X185638000Y-100780588D01*
X185638000Y-98362906D01*
X193819500Y-98362906D01*
X193848568Y-98546435D01*
X193848568Y-98546438D01*
X193905986Y-98723152D01*
X193934140Y-98778407D01*
X193990346Y-98888717D01*
X194099565Y-99039044D01*
X194230956Y-99170435D01*
X194381283Y-99279654D01*
X194464490Y-99322050D01*
X194546847Y-99364013D01*
X194723562Y-99421431D01*
X194723563Y-99421431D01*
X194723566Y-99421432D01*
X194907093Y-99450500D01*
X194907094Y-99450500D01*
X195092906Y-99450500D01*
X195092907Y-99450500D01*
X195276434Y-99421432D01*
X195276437Y-99421431D01*
X195276438Y-99421431D01*
X195453152Y-99364013D01*
X195453152Y-99364012D01*
X195453155Y-99364012D01*
X195618717Y-99279654D01*
X195769044Y-99170435D01*
X195900435Y-99039044D01*
X196009654Y-98888717D01*
X196094012Y-98723155D01*
X196151432Y-98546434D01*
X196180500Y-98362907D01*
X196180500Y-97637093D01*
X196151432Y-97453566D01*
X196151431Y-97453562D01*
X196151431Y-97453561D01*
X196094013Y-97276847D01*
X196009653Y-97111282D01*
X195900435Y-96960956D01*
X195769044Y-96829565D01*
X195618717Y-96720346D01*
X195611477Y-96716657D01*
X195453152Y-96635986D01*
X195276437Y-96578568D01*
X195138788Y-96556767D01*
X195092907Y-96549500D01*
X194907093Y-96549500D01*
X194845917Y-96559189D01*
X194723564Y-96578568D01*
X194723561Y-96578568D01*
X194546847Y-96635986D01*
X194381282Y-96720346D01*
X194295515Y-96782659D01*
X194230956Y-96829565D01*
X194230954Y-96829567D01*
X194230953Y-96829567D01*
X194099567Y-96960953D01*
X194099567Y-96960954D01*
X194099565Y-96960956D01*
X194096118Y-96965701D01*
X193990346Y-97111282D01*
X193905986Y-97276847D01*
X193848568Y-97453561D01*
X193848568Y-97453564D01*
X193819500Y-97637093D01*
X193819500Y-98362906D01*
X185638000Y-98362906D01*
X185638000Y-97881908D01*
X185638000Y-97881902D01*
X185601053Y-97648631D01*
X185528066Y-97424003D01*
X185420842Y-97213566D01*
X185282017Y-97022490D01*
X185115010Y-96855483D01*
X184923933Y-96716657D01*
X184713496Y-96609433D01*
X184586889Y-96568296D01*
X184529214Y-96528858D01*
X184502016Y-96464499D01*
X184513931Y-96395653D01*
X184537524Y-96362687D01*
X191358506Y-89541706D01*
X191358511Y-89541702D01*
X191368714Y-89531498D01*
X191368716Y-89531498D01*
X191480520Y-89419694D01*
X191559577Y-89282762D01*
X191600500Y-89130035D01*
X191600500Y-88624000D01*
X191620185Y-88556961D01*
X191672989Y-88511206D01*
X191724500Y-88500000D01*
X192275499Y-88500000D01*
X192342538Y-88519685D01*
X192388293Y-88572489D01*
X192399499Y-88624000D01*
X192399499Y-90967206D01*
X192379814Y-91034245D01*
X192340778Y-91072632D01*
X192312776Y-91089970D01*
X192312775Y-91089971D01*
X192157260Y-91231741D01*
X192030441Y-91399676D01*
X191936641Y-91588051D01*
X191879050Y-91790464D01*
X191859634Y-92000001D01*
X191859634Y-92000002D01*
X191879050Y-92209539D01*
X191879050Y-92209541D01*
X191879051Y-92209544D01*
X191929195Y-92385783D01*
X191936641Y-92411952D01*
X191990551Y-92520217D01*
X192030441Y-92600327D01*
X192114989Y-92712287D01*
X192157260Y-92768262D01*
X192312775Y-92910032D01*
X192312777Y-92910034D01*
X192491691Y-93020813D01*
X192491697Y-93020816D01*
X192532043Y-93036446D01*
X192687923Y-93096834D01*
X192894779Y-93135502D01*
X192894781Y-93135502D01*
X193105217Y-93135502D01*
X193105219Y-93135502D01*
X193312075Y-93096834D01*
X193508303Y-93020815D01*
X193687222Y-92910033D01*
X193842739Y-92768261D01*
X193969557Y-92600327D01*
X194063358Y-92411949D01*
X194120947Y-92209544D01*
X194140364Y-92000002D01*
X194139019Y-91985492D01*
X194131755Y-91907095D01*
X194120947Y-91790460D01*
X194063358Y-91588055D01*
X193969557Y-91399677D01*
X193842739Y-91231743D01*
X193789701Y-91183393D01*
X193687222Y-91089971D01*
X193687221Y-91089970D01*
X193659220Y-91072632D01*
X193612585Y-91020603D01*
X193600499Y-90967206D01*
X193600499Y-88624000D01*
X193620184Y-88556961D01*
X193672988Y-88511206D01*
X193724499Y-88500000D01*
X195375500Y-88500000D01*
X195442539Y-88519685D01*
X195488294Y-88572489D01*
X195499500Y-88624000D01*
X195499500Y-89317059D01*
X195479815Y-89384098D01*
X195463182Y-89404740D01*
X195370183Y-89497739D01*
X195274211Y-89650476D01*
X195214631Y-89820745D01*
X195214630Y-89820750D01*
X195194435Y-89999996D01*
X195194435Y-90000003D01*
X195214630Y-90179249D01*
X195214631Y-90179254D01*
X195274211Y-90349523D01*
X195362923Y-90490706D01*
X195370184Y-90502262D01*
X195497738Y-90629816D01*
X195650478Y-90725789D01*
X195727617Y-90752781D01*
X195820745Y-90785368D01*
X195820750Y-90785369D01*
X195999996Y-90805565D01*
X196000000Y-90805565D01*
X196000004Y-90805565D01*
X196179249Y-90785369D01*
X196179252Y-90785368D01*
X196179255Y-90785368D01*
X196349522Y-90725789D01*
X196502262Y-90629816D01*
X196629816Y-90502262D01*
X196725789Y-90349522D01*
X196785368Y-90179255D01*
X196785369Y-90179249D01*
X196805565Y-90000003D01*
X196805565Y-89999996D01*
X196785369Y-89820750D01*
X196785366Y-89820737D01*
X196725790Y-89650479D01*
X196719506Y-89640478D01*
X196700500Y-89574507D01*
X196700500Y-88624000D01*
X196720185Y-88556961D01*
X196772989Y-88511206D01*
X196824500Y-88500000D01*
X204725500Y-88500000D01*
X204792539Y-88519685D01*
X204838294Y-88572489D01*
X204849500Y-88624000D01*
X204849500Y-93255500D01*
X204829815Y-93322539D01*
X204777011Y-93368294D01*
X204725500Y-93379500D01*
X202337180Y-93379500D01*
X202270141Y-93359815D01*
X202237913Y-93329811D01*
X202157546Y-93222454D01*
X202134709Y-93205358D01*
X202042335Y-93136206D01*
X202042328Y-93136202D01*
X201907482Y-93085908D01*
X201907483Y-93085908D01*
X201847883Y-93079501D01*
X201847881Y-93079500D01*
X201847873Y-93079500D01*
X201847864Y-93079500D01*
X200152129Y-93079500D01*
X200152123Y-93079501D01*
X200092516Y-93085908D01*
X199957671Y-93136202D01*
X199957664Y-93136206D01*
X199842455Y-93222452D01*
X199842452Y-93222455D01*
X199756206Y-93337664D01*
X199756202Y-93337671D01*
X199705908Y-93472517D01*
X199699501Y-93532116D01*
X199699500Y-93532135D01*
X199699500Y-94291897D01*
X199679815Y-94358936D01*
X199627011Y-94404691D01*
X199557853Y-94414635D01*
X199494297Y-94385610D01*
X199457570Y-94330217D01*
X199450994Y-94309980D01*
X199443665Y-94287424D01*
X199441400Y-94279582D01*
X199424063Y-94211119D01*
X199406512Y-94171109D01*
X199402137Y-94159617D01*
X199390567Y-94124006D01*
X199390565Y-94124001D01*
X199358300Y-94060679D01*
X199355228Y-94054192D01*
X199324177Y-93983401D01*
X199324174Y-93983395D01*
X199324169Y-93983387D01*
X199303956Y-93952449D01*
X199297282Y-93940926D01*
X199283343Y-93913567D01*
X199237619Y-93850634D01*
X199234128Y-93845569D01*
X199188165Y-93775217D01*
X199188164Y-93775215D01*
X199167686Y-93752970D01*
X199158607Y-93741884D01*
X199158605Y-93741881D01*
X199144517Y-93722490D01*
X199084782Y-93662755D01*
X199081234Y-93659057D01*
X199019747Y-93592265D01*
X199019742Y-93592261D01*
X199001206Y-93577833D01*
X198989692Y-93567665D01*
X198977511Y-93555484D01*
X198977508Y-93555482D01*
X198903706Y-93501861D01*
X198900430Y-93499396D01*
X198823514Y-93439530D01*
X198823515Y-93439530D01*
X198823509Y-93439526D01*
X198823505Y-93439524D01*
X198823501Y-93439521D01*
X198808783Y-93431556D01*
X198794922Y-93422824D01*
X198786436Y-93416659D01*
X198786426Y-93416653D01*
X198699178Y-93372197D01*
X198696457Y-93370768D01*
X198604813Y-93321173D01*
X198604802Y-93321169D01*
X198595346Y-93317922D01*
X198579328Y-93311131D01*
X198575996Y-93309433D01*
X198482508Y-93279057D01*
X198476468Y-93277094D01*
X198474535Y-93276448D01*
X198369616Y-93240429D01*
X198366403Y-93239893D01*
X198356143Y-93237385D01*
X198356096Y-93237582D01*
X198351362Y-93236445D01*
X198241437Y-93219035D01*
X198240426Y-93218871D01*
X198124335Y-93199500D01*
X197875665Y-93199500D01*
X197875664Y-93199500D01*
X197759571Y-93218871D01*
X197758562Y-93219035D01*
X197648633Y-93236446D01*
X197643893Y-93237584D01*
X197643846Y-93237388D01*
X197633599Y-93239892D01*
X197630388Y-93240428D01*
X197525443Y-93276454D01*
X197523503Y-93277102D01*
X197424005Y-93309432D01*
X197423997Y-93309436D01*
X197420652Y-93311140D01*
X197404662Y-93317918D01*
X197395197Y-93321168D01*
X197395194Y-93321170D01*
X197303525Y-93370777D01*
X197300806Y-93372205D01*
X197213563Y-93416659D01*
X197213557Y-93416662D01*
X197205072Y-93422827D01*
X197191222Y-93431553D01*
X197176492Y-93439525D01*
X197176485Y-93439530D01*
X197099547Y-93499411D01*
X197096275Y-93501872D01*
X197022491Y-93555482D01*
X197010297Y-93567674D01*
X196998792Y-93577833D01*
X196980259Y-93592258D01*
X196980256Y-93592261D01*
X196918776Y-93659045D01*
X196915231Y-93662739D01*
X196855483Y-93722489D01*
X196855478Y-93722495D01*
X196841393Y-93741881D01*
X196832310Y-93752973D01*
X196811834Y-93775216D01*
X196765857Y-93845589D01*
X196762367Y-93850651D01*
X196716657Y-93913565D01*
X196702716Y-93940926D01*
X196696042Y-93952449D01*
X196675829Y-93983387D01*
X196675828Y-93983389D01*
X196644762Y-94054209D01*
X196641694Y-94060688D01*
X196609433Y-94124004D01*
X196609433Y-94124006D01*
X196609432Y-94124008D01*
X196606914Y-94131758D01*
X196597859Y-94159623D01*
X196593486Y-94171109D01*
X196575939Y-94211112D01*
X196575936Y-94211123D01*
X196558605Y-94279557D01*
X196556331Y-94287432D01*
X196536448Y-94348625D01*
X196529536Y-94392260D01*
X196527269Y-94403295D01*
X196514893Y-94452171D01*
X196514892Y-94452177D01*
X196514892Y-94452179D01*
X196509615Y-94515854D01*
X196508514Y-94524995D01*
X196499500Y-94581903D01*
X196499500Y-94632809D01*
X196499076Y-94643050D01*
X196494357Y-94699995D01*
X196494357Y-94700004D01*
X196499076Y-94756948D01*
X196499500Y-94767189D01*
X196499500Y-99118097D01*
X196536446Y-99351368D01*
X196609433Y-99575996D01*
X196674305Y-99703313D01*
X196716657Y-99786434D01*
X196844500Y-99962394D01*
X196855484Y-99977511D01*
X196855485Y-99977512D01*
X197915226Y-101037254D01*
X197918774Y-101040951D01*
X197980256Y-101107738D01*
X197980260Y-101107741D01*
X197998788Y-101122162D01*
X198010305Y-101132333D01*
X198022493Y-101144521D01*
X198096294Y-101198140D01*
X198099572Y-101200605D01*
X198116227Y-101213568D01*
X198176491Y-101260474D01*
X198191210Y-101268439D01*
X198205081Y-101277178D01*
X198213564Y-101283341D01*
X198213567Y-101283343D01*
X198300825Y-101327803D01*
X198303503Y-101329209D01*
X198395190Y-101378828D01*
X198404643Y-101382073D01*
X198420673Y-101388869D01*
X198424008Y-101390568D01*
X198491071Y-101412358D01*
X198523517Y-101422900D01*
X198525381Y-101423522D01*
X198630386Y-101459571D01*
X198630662Y-101459617D01*
X198633583Y-101460105D01*
X198643842Y-101462612D01*
X198643890Y-101462415D01*
X198648623Y-101463550D01*
X198648632Y-101463553D01*
X198749241Y-101479487D01*
X198758513Y-101480956D01*
X198759525Y-101481120D01*
X198875665Y-101500500D01*
X199124334Y-101500500D01*
X199124335Y-101500500D01*
X199240513Y-101481113D01*
X199241216Y-101480998D01*
X199351369Y-101463553D01*
X199351383Y-101463548D01*
X199356106Y-101462415D01*
X199356154Y-101462615D01*
X199366425Y-101460102D01*
X199369614Y-101459571D01*
X199474636Y-101423515D01*
X199476344Y-101422944D01*
X199575993Y-101390568D01*
X199579323Y-101388870D01*
X199595357Y-101382073D01*
X199595360Y-101382072D01*
X199604810Y-101378828D01*
X199607369Y-101377442D01*
X199609107Y-101376503D01*
X199677435Y-101361906D01*
X199742808Y-101386567D01*
X199784470Y-101442657D01*
X199789194Y-101512366D01*
X199780509Y-101537959D01*
X199775668Y-101548343D01*
X199773262Y-101553502D01*
X199773258Y-101553511D01*
X199714366Y-101773302D01*
X199714364Y-101773313D01*
X199694532Y-101999998D01*
X199694532Y-102000001D01*
X199714364Y-102226686D01*
X199714366Y-102226697D01*
X199773258Y-102446488D01*
X199773261Y-102446497D01*
X199869431Y-102652732D01*
X199869432Y-102652734D01*
X199975611Y-102804375D01*
X199997938Y-102870581D01*
X199980927Y-102938349D01*
X199929979Y-102986161D01*
X199874036Y-102999498D01*
X193576390Y-102999498D01*
X193513496Y-102981602D01*
X193513429Y-102981738D01*
X193512702Y-102981376D01*
X193511110Y-102980923D01*
X193508305Y-102979186D01*
X193508300Y-102979183D01*
X193337862Y-102913156D01*
X193312075Y-102903166D01*
X193105219Y-102864498D01*
X192894779Y-102864498D01*
X192687923Y-102903166D01*
X192687920Y-102903166D01*
X192687920Y-102903167D01*
X192491697Y-102979183D01*
X192491691Y-102979186D01*
X192312777Y-103089965D01*
X192312775Y-103089967D01*
X192157260Y-103231737D01*
X192030441Y-103399672D01*
X191936641Y-103588047D01*
X191879050Y-103790460D01*
X191859634Y-103999997D01*
X191859634Y-103999998D01*
X191879050Y-104209535D01*
X191936641Y-104411950D01*
X191936642Y-104411951D01*
X191997171Y-104533510D01*
X192009432Y-104602295D01*
X191982559Y-104666790D01*
X191925083Y-104706517D01*
X191855253Y-104708865D01*
X191798490Y-104676462D01*
X190536819Y-103414791D01*
X190503334Y-103353468D01*
X190500500Y-103327110D01*
X190500500Y-102067189D01*
X190500924Y-102056948D01*
X190505643Y-102000004D01*
X190505643Y-101999995D01*
X190500924Y-101943050D01*
X190500500Y-101932809D01*
X190500500Y-101881909D01*
X190500499Y-101881903D01*
X190491485Y-101824995D01*
X190490382Y-101815841D01*
X190490382Y-101815835D01*
X190485108Y-101752179D01*
X190472727Y-101703291D01*
X190470464Y-101692267D01*
X190464353Y-101653686D01*
X190463553Y-101648632D01*
X190443665Y-101587424D01*
X190441400Y-101579582D01*
X190424063Y-101511119D01*
X190406512Y-101471109D01*
X190402137Y-101459617D01*
X190402121Y-101459569D01*
X190390568Y-101424008D01*
X190390566Y-101424004D01*
X190390565Y-101424001D01*
X190358300Y-101360679D01*
X190355228Y-101354192D01*
X190324177Y-101283401D01*
X190324174Y-101283395D01*
X190316957Y-101272349D01*
X190303956Y-101252449D01*
X190297282Y-101240926D01*
X190293766Y-101234025D01*
X190283343Y-101213567D01*
X190237619Y-101150634D01*
X190234128Y-101145569D01*
X190201394Y-101095465D01*
X190188164Y-101075215D01*
X190167686Y-101052970D01*
X190158607Y-101041884D01*
X190157929Y-101040951D01*
X190144517Y-101022490D01*
X190084782Y-100962755D01*
X190081234Y-100959057D01*
X190019747Y-100892265D01*
X190019742Y-100892261D01*
X190001206Y-100877833D01*
X189989692Y-100867665D01*
X189977511Y-100855484D01*
X189977508Y-100855482D01*
X189903706Y-100801861D01*
X189900430Y-100799396D01*
X189840980Y-100753124D01*
X189823509Y-100739526D01*
X189823505Y-100739524D01*
X189823501Y-100739521D01*
X189808783Y-100731556D01*
X189794922Y-100722824D01*
X189786436Y-100716659D01*
X189786426Y-100716653D01*
X189699178Y-100672197D01*
X189696457Y-100670768D01*
X189604813Y-100621173D01*
X189604802Y-100621169D01*
X189595346Y-100617922D01*
X189579328Y-100611131D01*
X189575996Y-100609433D01*
X189501152Y-100585114D01*
X189476468Y-100577094D01*
X189474535Y-100576448D01*
X189369616Y-100540429D01*
X189366403Y-100539893D01*
X189356143Y-100537385D01*
X189356096Y-100537582D01*
X189351362Y-100536445D01*
X189241437Y-100519035D01*
X189240426Y-100518871D01*
X189124335Y-100499500D01*
X188875665Y-100499500D01*
X188875664Y-100499500D01*
X188759571Y-100518871D01*
X188758562Y-100519035D01*
X188648633Y-100536446D01*
X188643893Y-100537584D01*
X188643846Y-100537388D01*
X188633599Y-100539892D01*
X188630388Y-100540428D01*
X188525443Y-100576454D01*
X188523503Y-100577102D01*
X188424005Y-100609432D01*
X188423997Y-100609436D01*
X188420652Y-100611140D01*
X188404662Y-100617918D01*
X188395197Y-100621168D01*
X188395194Y-100621170D01*
X188303525Y-100670777D01*
X188300806Y-100672205D01*
X188213563Y-100716659D01*
X188213557Y-100716662D01*
X188205072Y-100722827D01*
X188191222Y-100731553D01*
X188176492Y-100739525D01*
X188176485Y-100739530D01*
X188099547Y-100799411D01*
X188096275Y-100801872D01*
X188022491Y-100855482D01*
X188010297Y-100867674D01*
X187998792Y-100877833D01*
X187980259Y-100892258D01*
X187980256Y-100892261D01*
X187918776Y-100959045D01*
X187915231Y-100962739D01*
X187855483Y-101022489D01*
X187855478Y-101022495D01*
X187841393Y-101041881D01*
X187832310Y-101052973D01*
X187811834Y-101075216D01*
X187765857Y-101145589D01*
X187762367Y-101150651D01*
X187716657Y-101213565D01*
X187702716Y-101240926D01*
X187696042Y-101252449D01*
X187675829Y-101283387D01*
X187675828Y-101283389D01*
X187644762Y-101354209D01*
X187641694Y-101360688D01*
X187609433Y-101424004D01*
X187609432Y-101424009D01*
X187597859Y-101459623D01*
X187593486Y-101471109D01*
X187575939Y-101511112D01*
X187575936Y-101511123D01*
X187558605Y-101579557D01*
X187556331Y-101587432D01*
X187536448Y-101648625D01*
X187529536Y-101692260D01*
X187527269Y-101703295D01*
X187514893Y-101752171D01*
X187514893Y-101752176D01*
X187514892Y-101752179D01*
X187509617Y-101815841D01*
X187508514Y-101824995D01*
X187499500Y-101881903D01*
X187499500Y-101932809D01*
X187499076Y-101943050D01*
X187494357Y-101999995D01*
X187494357Y-102000004D01*
X187499076Y-102056948D01*
X187499500Y-102067189D01*
X187499500Y-104118097D01*
X187536446Y-104351368D01*
X187609433Y-104575996D01*
X187681350Y-104717140D01*
X187716657Y-104786434D01*
X187855480Y-104977506D01*
X187855482Y-104977508D01*
X187855485Y-104977512D01*
X190915227Y-108037255D01*
X190918775Y-108040953D01*
X190980252Y-108107734D01*
X190980256Y-108107738D01*
X190992318Y-108117126D01*
X190998788Y-108122162D01*
X191010306Y-108132334D01*
X191022493Y-108144521D01*
X191096294Y-108198140D01*
X191099572Y-108200605D01*
X191106074Y-108205666D01*
X191176491Y-108260474D01*
X191176497Y-108260477D01*
X191191210Y-108268439D01*
X191205081Y-108277178D01*
X191205087Y-108277182D01*
X191213567Y-108283343D01*
X191300825Y-108327803D01*
X191303503Y-108329209D01*
X191363697Y-108361785D01*
X191382942Y-108372200D01*
X191395190Y-108378828D01*
X191404643Y-108382073D01*
X191420673Y-108388869D01*
X191424008Y-108390568D01*
X191424013Y-108390569D01*
X191424014Y-108390570D01*
X191523517Y-108422900D01*
X191525381Y-108423522D01*
X191630386Y-108459571D01*
X191631166Y-108459701D01*
X191633583Y-108460105D01*
X191643842Y-108462612D01*
X191643890Y-108462415D01*
X191648623Y-108463550D01*
X191648632Y-108463553D01*
X191715387Y-108474125D01*
X191758639Y-108480976D01*
X191759547Y-108481123D01*
X191875665Y-108500500D01*
X191875666Y-108500500D01*
X192124334Y-108500500D01*
X192124335Y-108500500D01*
X192240513Y-108481113D01*
X192241216Y-108480998D01*
X192351369Y-108463553D01*
X192351383Y-108463548D01*
X192356106Y-108462415D01*
X192356154Y-108462615D01*
X192366425Y-108460102D01*
X192369614Y-108459571D01*
X192474645Y-108423513D01*
X192476422Y-108422920D01*
X192575992Y-108390568D01*
X192579321Y-108388871D01*
X192595355Y-108382074D01*
X192597269Y-108381416D01*
X192604810Y-108378828D01*
X192696514Y-108329198D01*
X192699107Y-108327837D01*
X192786434Y-108283343D01*
X192794922Y-108277175D01*
X192808789Y-108268440D01*
X192823504Y-108260477D01*
X192823505Y-108260476D01*
X192823509Y-108260474D01*
X192900502Y-108200547D01*
X192903674Y-108198162D01*
X192977510Y-108144518D01*
X192989704Y-108132323D01*
X193001211Y-108122162D01*
X193019744Y-108107738D01*
X193081223Y-108040952D01*
X193084723Y-108037303D01*
X193144518Y-107977510D01*
X193158614Y-107958106D01*
X193167689Y-107947025D01*
X193188164Y-107924785D01*
X193234132Y-107854422D01*
X193237597Y-107849395D01*
X193283343Y-107786434D01*
X193297291Y-107759055D01*
X193303958Y-107747546D01*
X193324173Y-107716607D01*
X193355240Y-107645779D01*
X193358279Y-107639360D01*
X193390568Y-107575992D01*
X193402146Y-107540355D01*
X193406504Y-107528909D01*
X193424063Y-107488881D01*
X193441392Y-107420447D01*
X193443666Y-107412572D01*
X193446484Y-107403900D01*
X193463553Y-107351369D01*
X193470463Y-107307729D01*
X193472725Y-107296715D01*
X193485108Y-107247821D01*
X193490382Y-107184152D01*
X193491486Y-107174998D01*
X193500500Y-107118090D01*
X193500500Y-107067189D01*
X193500924Y-107056948D01*
X193505643Y-107000004D01*
X193505643Y-106999995D01*
X193500924Y-106943050D01*
X193500500Y-106932809D01*
X193500500Y-106881909D01*
X193500026Y-106878914D01*
X193491485Y-106824995D01*
X193490382Y-106815841D01*
X193487186Y-106777262D01*
X193485108Y-106752179D01*
X193472727Y-106703291D01*
X193470464Y-106692267D01*
X193468428Y-106679418D01*
X193463553Y-106648632D01*
X193443665Y-106587424D01*
X193441400Y-106579582D01*
X193424063Y-106511119D01*
X193406512Y-106471109D01*
X193402137Y-106459617D01*
X193401633Y-106458067D01*
X193390568Y-106424008D01*
X193390567Y-106424006D01*
X193390565Y-106424001D01*
X193358300Y-106360679D01*
X193355228Y-106354192D01*
X193324177Y-106283401D01*
X193324175Y-106283398D01*
X193324173Y-106283393D01*
X193303957Y-106252451D01*
X193297284Y-106240928D01*
X193283345Y-106213571D01*
X193283338Y-106213559D01*
X193237616Y-106150628D01*
X193234125Y-106145564D01*
X193188168Y-106075220D01*
X193188165Y-106075217D01*
X193188164Y-106075215D01*
X193167694Y-106052979D01*
X193158611Y-106041887D01*
X193144518Y-106022490D01*
X193084771Y-105962743D01*
X193081223Y-105959045D01*
X193019747Y-105892265D01*
X193019742Y-105892260D01*
X193001211Y-105877837D01*
X192989693Y-105867665D01*
X192331411Y-105209383D01*
X192297926Y-105148060D01*
X192302910Y-105078368D01*
X192344782Y-105022435D01*
X192410246Y-104998018D01*
X192478519Y-105012870D01*
X192484355Y-105016266D01*
X192491695Y-105020811D01*
X192491697Y-105020811D01*
X192491697Y-105020812D01*
X192495887Y-105022435D01*
X192687923Y-105096830D01*
X192894779Y-105135498D01*
X192894781Y-105135498D01*
X193105217Y-105135498D01*
X193105219Y-105135498D01*
X193312075Y-105096830D01*
X193508303Y-105020811D01*
X193511110Y-105019073D01*
X193512702Y-105018619D01*
X193513429Y-105018258D01*
X193513496Y-105018393D01*
X193576390Y-105000498D01*
X201219866Y-105000498D01*
X201252886Y-104993929D01*
X201335441Y-104977508D01*
X201413159Y-104962049D01*
X201512397Y-104920943D01*
X201595237Y-104886630D01*
X201759105Y-104777137D01*
X201898462Y-104637780D01*
X201898462Y-104637778D01*
X201908670Y-104627571D01*
X201908671Y-104627568D01*
X203277140Y-103259102D01*
X203343640Y-103159577D01*
X203386632Y-103095235D01*
X203430079Y-102990344D01*
X203462052Y-102913156D01*
X203462052Y-102913153D01*
X203462054Y-102913150D01*
X203462053Y-102913148D01*
X203500500Y-102719861D01*
X203500500Y-102522781D01*
X203500500Y-95781459D01*
X203500500Y-95781456D01*
X203462052Y-95588170D01*
X203462051Y-95588169D01*
X203462051Y-95588165D01*
X203447050Y-95551951D01*
X203439582Y-95482484D01*
X203470857Y-95420005D01*
X203530945Y-95384352D01*
X203561612Y-95380500D01*
X204376000Y-95380500D01*
X204443039Y-95400185D01*
X204488794Y-95452989D01*
X204500000Y-95504500D01*
X204500000Y-111375500D01*
X204480315Y-111442539D01*
X204427511Y-111488294D01*
X204376000Y-111499500D01*
X152004428Y-111499500D01*
X151995582Y-111499184D01*
X151973622Y-111497613D01*
X151795442Y-111484869D01*
X151777931Y-111482351D01*
X151586212Y-111440646D01*
X151569236Y-111435662D01*
X151385390Y-111367090D01*
X151369298Y-111359740D01*
X151197095Y-111265711D01*
X151182210Y-111256146D01*
X151149666Y-111231784D01*
X151025132Y-111138558D01*
X151011762Y-111126972D01*
X150873027Y-110988237D01*
X150861441Y-110974867D01*
X150821074Y-110920943D01*
X150743849Y-110817784D01*
X150734288Y-110802904D01*
X150640259Y-110630701D01*
X150632909Y-110614609D01*
X150632879Y-110614529D01*
X150564334Y-110430755D01*
X150559355Y-110413797D01*
X150517647Y-110222063D01*
X150515130Y-110204556D01*
X150509249Y-110122334D01*
X150500816Y-110004418D01*
X150500500Y-109995572D01*
X150500500Y-108121288D01*
X152149500Y-108121288D01*
X152176778Y-108328494D01*
X152181162Y-108361789D01*
X152183953Y-108372204D01*
X152243947Y-108596104D01*
X152317900Y-108774642D01*
X152336776Y-108820212D01*
X152458064Y-109030289D01*
X152458066Y-109030292D01*
X152458067Y-109030293D01*
X152605733Y-109222736D01*
X152605739Y-109222743D01*
X152777256Y-109394260D01*
X152777262Y-109394265D01*
X152969711Y-109541936D01*
X153179788Y-109663224D01*
X153403900Y-109756054D01*
X153638211Y-109818838D01*
X153818586Y-109842584D01*
X153878711Y-109850500D01*
X153878712Y-109850500D01*
X154121289Y-109850500D01*
X154169388Y-109844167D01*
X154361789Y-109818838D01*
X154596100Y-109756054D01*
X154820212Y-109663224D01*
X155030289Y-109541936D01*
X155222738Y-109394265D01*
X155394265Y-109222738D01*
X155541936Y-109030289D01*
X155663224Y-108820212D01*
X155756054Y-108596100D01*
X155818838Y-108361789D01*
X155850500Y-108121288D01*
X155850500Y-107878712D01*
X155818838Y-107638211D01*
X155756054Y-107403900D01*
X155663224Y-107179788D01*
X155541936Y-106969711D01*
X155394265Y-106777262D01*
X155394260Y-106777256D01*
X155222743Y-106605739D01*
X155222736Y-106605733D01*
X155030293Y-106458067D01*
X155030292Y-106458066D01*
X155030289Y-106458064D01*
X154820212Y-106336776D01*
X154820205Y-106336773D01*
X154596104Y-106243947D01*
X154444330Y-106203279D01*
X154361789Y-106181162D01*
X154361788Y-106181161D01*
X154361785Y-106181161D01*
X154121289Y-106149500D01*
X154121288Y-106149500D01*
X153878712Y-106149500D01*
X153878711Y-106149500D01*
X153638214Y-106181161D01*
X153403895Y-106243947D01*
X153179794Y-106336773D01*
X153179785Y-106336777D01*
X152969706Y-106458067D01*
X152777263Y-106605733D01*
X152777256Y-106605739D01*
X152605739Y-106777256D01*
X152605733Y-106777263D01*
X152458067Y-106969706D01*
X152336777Y-107179785D01*
X152336773Y-107179794D01*
X152243947Y-107403895D01*
X152181161Y-107638214D01*
X152149500Y-107878711D01*
X152149500Y-108121288D01*
X150500500Y-108121288D01*
X150500500Y-101776424D01*
X150520185Y-101709385D01*
X150572989Y-101663630D01*
X150642147Y-101653686D01*
X150705703Y-101682711D01*
X150742431Y-101738106D01*
X150794780Y-101899219D01*
X150880365Y-102067189D01*
X150887715Y-102081613D01*
X151008028Y-102247213D01*
X151152786Y-102391971D01*
X151307749Y-102504556D01*
X151318390Y-102512287D01*
X151434607Y-102571503D01*
X151500776Y-102605218D01*
X151500778Y-102605218D01*
X151500781Y-102605220D01*
X151543869Y-102619220D01*
X151695465Y-102668477D01*
X151762245Y-102679054D01*
X151897648Y-102700500D01*
X151897649Y-102700500D01*
X153502351Y-102700500D01*
X153502352Y-102700500D01*
X153704534Y-102668477D01*
X153899219Y-102605220D01*
X154081610Y-102512287D01*
X154174590Y-102444732D01*
X154247213Y-102391971D01*
X154247215Y-102391968D01*
X154247219Y-102391966D01*
X154391966Y-102247219D01*
X154391968Y-102247215D01*
X154391971Y-102247213D01*
X154446975Y-102171505D01*
X154512287Y-102081610D01*
X154605220Y-101899219D01*
X154668477Y-101704534D01*
X154700500Y-101502352D01*
X154700500Y-101297648D01*
X154694612Y-101260473D01*
X154668477Y-101095465D01*
X154630151Y-100977510D01*
X154605220Y-100900781D01*
X154605218Y-100900778D01*
X154605218Y-100900776D01*
X154554823Y-100801872D01*
X154512287Y-100718390D01*
X154504556Y-100707749D01*
X154433700Y-100610222D01*
X157999500Y-100610222D01*
X158004616Y-100642522D01*
X158033985Y-100827952D01*
X158102103Y-101037603D01*
X158102104Y-101037606D01*
X158159696Y-101150634D01*
X158184514Y-101199342D01*
X158202187Y-101234025D01*
X158331752Y-101412358D01*
X158331756Y-101412363D01*
X158487636Y-101568243D01*
X158487641Y-101568247D01*
X158598283Y-101648632D01*
X158665978Y-101697815D01*
X158794375Y-101763237D01*
X158862393Y-101797895D01*
X158862396Y-101797896D01*
X158931769Y-101820436D01*
X159072049Y-101866015D01*
X159289778Y-101900500D01*
X159289779Y-101900500D01*
X160710221Y-101900500D01*
X160710222Y-101900500D01*
X160927951Y-101866015D01*
X161137606Y-101797895D01*
X161334022Y-101697815D01*
X161512365Y-101568242D01*
X161668242Y-101412365D01*
X161797815Y-101234022D01*
X161897895Y-101037606D01*
X161966015Y-100827951D01*
X162000500Y-100610222D01*
X162000500Y-100389778D01*
X161966015Y-100172049D01*
X161902807Y-99977511D01*
X161897896Y-99962396D01*
X161897895Y-99962393D01*
X161856884Y-99881907D01*
X161797815Y-99765978D01*
X161776203Y-99736232D01*
X161668247Y-99587641D01*
X161668243Y-99587636D01*
X161512363Y-99431756D01*
X161512358Y-99431752D01*
X161334025Y-99302187D01*
X161334024Y-99302186D01*
X161334022Y-99302185D01*
X161251933Y-99260358D01*
X161137606Y-99202104D01*
X161137603Y-99202103D01*
X160927952Y-99133985D01*
X160819086Y-99116742D01*
X160710222Y-99099500D01*
X159289778Y-99099500D01*
X159217201Y-99110995D01*
X159072047Y-99133985D01*
X158862396Y-99202103D01*
X158862393Y-99202104D01*
X158665974Y-99302187D01*
X158487641Y-99431752D01*
X158487636Y-99431756D01*
X158331756Y-99587636D01*
X158331752Y-99587641D01*
X158202187Y-99765974D01*
X158102104Y-99962393D01*
X158102103Y-99962396D01*
X158033985Y-100172047D01*
X158005583Y-100351369D01*
X157999500Y-100389778D01*
X157999500Y-100610222D01*
X154433700Y-100610222D01*
X154391971Y-100552786D01*
X154247213Y-100408028D01*
X154081613Y-100287715D01*
X154081612Y-100287714D01*
X154081610Y-100287713D01*
X154024653Y-100258691D01*
X153899223Y-100194781D01*
X153704534Y-100131522D01*
X153529995Y-100103878D01*
X153502352Y-100099500D01*
X151897648Y-100099500D01*
X151873329Y-100103351D01*
X151695465Y-100131522D01*
X151500776Y-100194781D01*
X151318386Y-100287715D01*
X151152786Y-100408028D01*
X151008028Y-100552786D01*
X150887715Y-100718386D01*
X150794781Y-100900776D01*
X150742431Y-101061894D01*
X150702993Y-101119569D01*
X150638634Y-101146767D01*
X150569788Y-101134852D01*
X150518312Y-101087608D01*
X150500500Y-101023575D01*
X150500500Y-95303532D01*
X152384500Y-95303532D01*
X152385560Y-95310222D01*
X152416892Y-95508048D01*
X152480876Y-95704974D01*
X152480877Y-95704977D01*
X152549771Y-95840187D01*
X152574883Y-95889472D01*
X152696593Y-96056991D01*
X152843009Y-96203407D01*
X153010528Y-96325117D01*
X153057246Y-96348921D01*
X153195022Y-96419122D01*
X153195025Y-96419123D01*
X153293488Y-96451115D01*
X153391953Y-96483108D01*
X153596468Y-96515500D01*
X153596469Y-96515500D01*
X153803531Y-96515500D01*
X153803532Y-96515500D01*
X154008047Y-96483108D01*
X154204977Y-96419122D01*
X154389472Y-96325117D01*
X154556991Y-96203407D01*
X154703407Y-96056991D01*
X154825117Y-95889472D01*
X154919122Y-95704977D01*
X154983108Y-95508047D01*
X155014440Y-95310222D01*
X157999500Y-95310222D01*
X158002686Y-95330335D01*
X158033985Y-95527952D01*
X158102103Y-95737603D01*
X158102104Y-95737606D01*
X158154373Y-95840187D01*
X158201301Y-95932288D01*
X158202187Y-95934025D01*
X158331752Y-96112358D01*
X158331756Y-96112363D01*
X158487636Y-96268243D01*
X158487641Y-96268247D01*
X158630376Y-96371949D01*
X158665978Y-96397815D01*
X158794375Y-96463237D01*
X158862393Y-96497895D01*
X158862396Y-96497896D01*
X158916577Y-96515500D01*
X159072049Y-96566015D01*
X159289778Y-96600500D01*
X159289779Y-96600500D01*
X160710221Y-96600500D01*
X160710222Y-96600500D01*
X160927951Y-96566015D01*
X161137606Y-96497895D01*
X161334022Y-96397815D01*
X161512365Y-96268242D01*
X161668242Y-96112365D01*
X161797815Y-95934022D01*
X161897895Y-95737606D01*
X161966015Y-95527951D01*
X162000500Y-95310222D01*
X162000500Y-95089778D01*
X161966015Y-94872049D01*
X161910112Y-94699995D01*
X161897896Y-94662396D01*
X161897895Y-94662393D01*
X161856882Y-94581903D01*
X161797815Y-94465978D01*
X161753288Y-94404691D01*
X161668247Y-94287641D01*
X161668243Y-94287636D01*
X161512363Y-94131756D01*
X161512358Y-94131752D01*
X161334025Y-94002187D01*
X161334024Y-94002186D01*
X161334022Y-94002185D01*
X161271096Y-93970122D01*
X161137606Y-93902104D01*
X161137603Y-93902103D01*
X160927952Y-93833985D01*
X160819086Y-93816742D01*
X160710222Y-93799500D01*
X159289778Y-93799500D01*
X159217201Y-93810995D01*
X159072047Y-93833985D01*
X158862396Y-93902103D01*
X158862393Y-93902104D01*
X158665974Y-94002187D01*
X158487641Y-94131752D01*
X158487636Y-94131756D01*
X158331756Y-94287636D01*
X158331752Y-94287641D01*
X158202187Y-94465974D01*
X158102104Y-94662393D01*
X158102103Y-94662396D01*
X158033985Y-94872047D01*
X157999500Y-95089778D01*
X157999500Y-95310222D01*
X155014440Y-95310222D01*
X155015500Y-95303532D01*
X155015500Y-95096468D01*
X154983108Y-94891953D01*
X154942570Y-94767189D01*
X154919123Y-94695025D01*
X154919122Y-94695022D01*
X154825116Y-94510527D01*
X154792749Y-94465978D01*
X154703407Y-94343009D01*
X154556991Y-94196593D01*
X154389472Y-94074883D01*
X154348864Y-94054192D01*
X154204977Y-93980877D01*
X154204974Y-93980876D01*
X154008048Y-93916892D01*
X153905789Y-93900696D01*
X153803532Y-93884500D01*
X153596468Y-93884500D01*
X153528296Y-93895297D01*
X153391951Y-93916892D01*
X153195025Y-93980876D01*
X153195022Y-93980877D01*
X153010527Y-94074883D01*
X152942923Y-94124001D01*
X152843009Y-94196593D01*
X152843007Y-94196595D01*
X152843006Y-94196595D01*
X152696595Y-94343006D01*
X152696595Y-94343007D01*
X152696593Y-94343009D01*
X152660810Y-94392260D01*
X152574883Y-94510527D01*
X152480877Y-94695022D01*
X152480876Y-94695025D01*
X152416892Y-94891951D01*
X152416892Y-94891953D01*
X152384500Y-95096468D01*
X152384500Y-95303532D01*
X150500500Y-95303532D01*
X150500500Y-91976424D01*
X150520185Y-91909385D01*
X150572989Y-91863630D01*
X150642147Y-91853686D01*
X150705703Y-91882711D01*
X150742431Y-91938106D01*
X150794780Y-92099219D01*
X150885077Y-92276437D01*
X150887715Y-92281613D01*
X151008028Y-92447213D01*
X151152786Y-92591971D01*
X151307749Y-92704556D01*
X151318390Y-92712287D01*
X151428245Y-92768261D01*
X151500776Y-92805218D01*
X151500778Y-92805218D01*
X151500781Y-92805220D01*
X151580998Y-92831284D01*
X151695465Y-92868477D01*
X151728688Y-92873739D01*
X151897648Y-92900500D01*
X151897649Y-92900500D01*
X153502351Y-92900500D01*
X153502352Y-92900500D01*
X153704534Y-92868477D01*
X153899219Y-92805220D01*
X154081610Y-92712287D01*
X154180523Y-92640423D01*
X154247213Y-92591971D01*
X154247215Y-92591968D01*
X154247219Y-92591966D01*
X154391966Y-92447219D01*
X154391968Y-92447215D01*
X154391971Y-92447213D01*
X154444732Y-92374590D01*
X154512287Y-92281610D01*
X154605220Y-92099219D01*
X154668477Y-91904534D01*
X154700500Y-91702352D01*
X154700500Y-91497648D01*
X154683744Y-91391854D01*
X154668477Y-91295465D01*
X154605218Y-91100776D01*
X154548951Y-90990348D01*
X154512287Y-90918390D01*
X154503278Y-90905990D01*
X154391971Y-90752786D01*
X154247213Y-90608028D01*
X154081613Y-90487715D01*
X154081612Y-90487714D01*
X154081610Y-90487713D01*
X154019766Y-90456202D01*
X153899223Y-90394781D01*
X153704534Y-90331522D01*
X153529995Y-90303878D01*
X153502352Y-90299500D01*
X151897648Y-90299500D01*
X151873329Y-90303351D01*
X151695465Y-90331522D01*
X151500776Y-90394781D01*
X151318386Y-90487715D01*
X151152786Y-90608028D01*
X151008028Y-90752786D01*
X150887715Y-90918386D01*
X150794781Y-91100776D01*
X150742431Y-91261894D01*
X150702993Y-91319569D01*
X150638634Y-91346767D01*
X150569788Y-91334852D01*
X150518312Y-91287608D01*
X150500500Y-91223575D01*
X150500500Y-88624000D01*
X150520185Y-88556961D01*
X150572989Y-88511206D01*
X150624500Y-88500000D01*
X161599403Y-88500000D01*
X161666442Y-88519685D01*
G37*
%TD.AperFunction*%
%TA.AperFunction,Conductor*%
G36*
X212974409Y-88519685D02*
G01*
X212995051Y-88536319D01*
X215784989Y-91326257D01*
X215818474Y-91387580D01*
X215817514Y-91444378D01*
X215764892Y-91652175D01*
X215764890Y-91652187D01*
X215744357Y-91899994D01*
X215744357Y-91900005D01*
X215764890Y-92147812D01*
X215764892Y-92147824D01*
X215825152Y-92385783D01*
X215825937Y-92388881D01*
X215842083Y-92425690D01*
X215850986Y-92494989D01*
X215821009Y-92558102D01*
X215761670Y-92594989D01*
X215728527Y-92599500D01*
X215271473Y-92599500D01*
X215204434Y-92579815D01*
X215158679Y-92527011D01*
X215148735Y-92457853D01*
X215157916Y-92425692D01*
X215174063Y-92388881D01*
X215235108Y-92147821D01*
X215235109Y-92147812D01*
X215255643Y-91900005D01*
X215255643Y-91899994D01*
X215235109Y-91652187D01*
X215235107Y-91652175D01*
X215174063Y-91411118D01*
X215074173Y-91183393D01*
X214938166Y-90975217D01*
X214824855Y-90852129D01*
X214769744Y-90792262D01*
X214573509Y-90639526D01*
X214573507Y-90639525D01*
X214573506Y-90639524D01*
X214354811Y-90521172D01*
X214354802Y-90521169D01*
X214119616Y-90440429D01*
X213874335Y-90399500D01*
X213625665Y-90399500D01*
X213380383Y-90440429D01*
X213145197Y-90521169D01*
X213145188Y-90521172D01*
X212926493Y-90639524D01*
X212730257Y-90792261D01*
X212561833Y-90975217D01*
X212425826Y-91183393D01*
X212325936Y-91411118D01*
X212264892Y-91652175D01*
X212264890Y-91652187D01*
X212244357Y-91899994D01*
X212244357Y-91900005D01*
X212264890Y-92147812D01*
X212264892Y-92147824D01*
X212325152Y-92385783D01*
X212325937Y-92388881D01*
X212342083Y-92425690D01*
X212350986Y-92494989D01*
X212321009Y-92558102D01*
X212261670Y-92594989D01*
X212228527Y-92599500D01*
X208374500Y-92599500D01*
X208307461Y-92579815D01*
X208261706Y-92527011D01*
X208250500Y-92475500D01*
X208250499Y-90852129D01*
X208250498Y-90852123D01*
X208250116Y-90848570D01*
X208244091Y-90792517D01*
X208229272Y-90752786D01*
X208193797Y-90657671D01*
X208193793Y-90657664D01*
X208107547Y-90542455D01*
X208107544Y-90542452D01*
X207992335Y-90456206D01*
X207992328Y-90456202D01*
X207857482Y-90405908D01*
X207857483Y-90405908D01*
X207797883Y-90399501D01*
X207797881Y-90399500D01*
X207797873Y-90399500D01*
X207797865Y-90399500D01*
X207474500Y-90399500D01*
X207407461Y-90379815D01*
X207361706Y-90327011D01*
X207350500Y-90275500D01*
X207350500Y-88624000D01*
X207370185Y-88556961D01*
X207422989Y-88511206D01*
X207474500Y-88500000D01*
X212907370Y-88500000D01*
X212974409Y-88519685D01*
G37*
%TD.AperFunction*%
%TD*%
M02*
