%TF.GenerationSoftware,KiCad,Pcbnew,8.0.1*%
%TF.CreationDate,2024-07-30T14:49:36+02:00*%
%TF.ProjectId,driver,64726976-6572-42e6-9b69-6361645f7063,rev?*%
%TF.SameCoordinates,Original*%
%TF.FileFunction,Paste,Bot*%
%TF.FilePolarity,Positive*%
%FSLAX46Y46*%
G04 Gerber Fmt 4.6, Leading zero omitted, Abs format (unit mm)*
G04 Created by KiCad (PCBNEW 8.0.1) date 2024-07-30 14:49:36*
%MOMM*%
%LPD*%
G01*
G04 APERTURE LIST*
G04 Aperture macros list*
%AMRoundRect*
0 Rectangle with rounded corners*
0 $1 Rounding radius*
0 $2 $3 $4 $5 $6 $7 $8 $9 X,Y pos of 4 corners*
0 Add a 4 corners polygon primitive as box body*
4,1,4,$2,$3,$4,$5,$6,$7,$8,$9,$2,$3,0*
0 Add four circle primitives for the rounded corners*
1,1,$1+$1,$2,$3*
1,1,$1+$1,$4,$5*
1,1,$1+$1,$6,$7*
1,1,$1+$1,$8,$9*
0 Add four rect primitives between the rounded corners*
20,1,$1+$1,$2,$3,$4,$5,0*
20,1,$1+$1,$4,$5,$6,$7,0*
20,1,$1+$1,$6,$7,$8,$9,0*
20,1,$1+$1,$8,$9,$2,$3,0*%
G04 Aperture macros list end*
%ADD10RoundRect,0.250000X-0.350000X-0.450000X0.350000X-0.450000X0.350000X0.450000X-0.350000X0.450000X0*%
%ADD11RoundRect,0.250000X0.337500X0.475000X-0.337500X0.475000X-0.337500X-0.475000X0.337500X-0.475000X0*%
%ADD12RoundRect,0.250000X-0.450000X0.350000X-0.450000X-0.350000X0.450000X-0.350000X0.450000X0.350000X0*%
%ADD13RoundRect,0.150000X0.825000X0.150000X-0.825000X0.150000X-0.825000X-0.150000X0.825000X-0.150000X0*%
%ADD14RoundRect,0.250000X0.450000X-0.350000X0.450000X0.350000X-0.450000X0.350000X-0.450000X-0.350000X0*%
%ADD15R,2.946400X7.620000*%
%ADD16R,2.946400X1.676400*%
%ADD17RoundRect,0.150000X0.875000X0.150000X-0.875000X0.150000X-0.875000X-0.150000X0.875000X-0.150000X0*%
%ADD18RoundRect,0.250000X-0.475000X0.337500X-0.475000X-0.337500X0.475000X-0.337500X0.475000X0.337500X0*%
%ADD19RoundRect,0.250000X0.475000X-0.337500X0.475000X0.337500X-0.475000X0.337500X-0.475000X-0.337500X0*%
%ADD20RoundRect,0.150000X0.512500X0.150000X-0.512500X0.150000X-0.512500X-0.150000X0.512500X-0.150000X0*%
G04 APERTURE END LIST*
D10*
%TO.C,R7*%
X234350000Y-74175000D03*
X236350000Y-74175000D03*
%TD*%
D11*
%TO.C,C6*%
X203037500Y-60500000D03*
X200962500Y-60500000D03*
%TD*%
D12*
%TO.C,R10*%
X199250000Y-69500000D03*
X199250000Y-71500000D03*
%TD*%
D10*
%TO.C,R4*%
X181000000Y-59000000D03*
X183000000Y-59000000D03*
%TD*%
%TO.C,R14*%
X234350000Y-79175000D03*
X236350000Y-79175000D03*
%TD*%
D12*
%TO.C,R11*%
X213475000Y-64460000D03*
X213475000Y-66460000D03*
%TD*%
%TO.C,R3*%
X174000000Y-67000000D03*
X174000000Y-69000000D03*
%TD*%
D13*
%TO.C,U1*%
X183950000Y-64460000D03*
X183950000Y-65730000D03*
X183950000Y-67000000D03*
X183950000Y-68270000D03*
X183950000Y-69540000D03*
X183950000Y-70810000D03*
X183950000Y-72080000D03*
X179000000Y-72080000D03*
X179000000Y-70810000D03*
X179000000Y-69540000D03*
X179000000Y-68270000D03*
X179000000Y-67000000D03*
X179000000Y-65730000D03*
X179000000Y-64460000D03*
%TD*%
D10*
%TO.C,R16*%
X244350000Y-79175000D03*
X246350000Y-79175000D03*
%TD*%
%TO.C,R9*%
X244350000Y-74175000D03*
X246350000Y-74175000D03*
%TD*%
%TO.C,R6*%
X185000000Y-59000000D03*
X187000000Y-59000000D03*
%TD*%
D11*
%TO.C,C15*%
X246387500Y-87175000D03*
X244312500Y-87175000D03*
%TD*%
D10*
%TO.C,R1*%
X211475000Y-75460000D03*
X213475000Y-75460000D03*
%TD*%
%TO.C,R12*%
X208475000Y-60460000D03*
X210475000Y-60460000D03*
%TD*%
D14*
%TO.C,R5*%
X189000000Y-68000000D03*
X189000000Y-66000000D03*
%TD*%
D15*
%TO.C,R2*%
X187467600Y-83257800D03*
D16*
X187467600Y-78000000D03*
X180000000Y-78000000D03*
D15*
X180000000Y-83257800D03*
%TD*%
D17*
%TO.C,U3*%
X245650000Y-91285000D03*
X245650000Y-92555000D03*
X245650000Y-93825000D03*
X245650000Y-95095000D03*
X245650000Y-96365000D03*
X245650000Y-97635000D03*
X245650000Y-98905000D03*
X245650000Y-100175000D03*
X245650000Y-101445000D03*
X245650000Y-102715000D03*
X236350000Y-102715000D03*
X236350000Y-101445000D03*
X236350000Y-100175000D03*
X236350000Y-98905000D03*
X236350000Y-97635000D03*
X236350000Y-96365000D03*
X236350000Y-95095000D03*
X236350000Y-93825000D03*
X236350000Y-92555000D03*
X236350000Y-91285000D03*
%TD*%
D10*
%TO.C,R8*%
X239350000Y-74175000D03*
X241350000Y-74175000D03*
%TD*%
D18*
%TO.C,C1*%
X208500000Y-78462500D03*
X208500000Y-80537500D03*
%TD*%
D12*
%TO.C,R13*%
X213475000Y-69460000D03*
X213475000Y-71460000D03*
%TD*%
D11*
%TO.C,C7*%
X177037500Y-61000000D03*
X174962500Y-61000000D03*
%TD*%
D13*
%TO.C,U4*%
X208475000Y-64190000D03*
X208475000Y-65460000D03*
X208475000Y-66730000D03*
X208475000Y-68000000D03*
X208475000Y-69270000D03*
X208475000Y-70540000D03*
X208475000Y-71810000D03*
X203525000Y-71810000D03*
X203525000Y-70540000D03*
X203525000Y-69270000D03*
X203525000Y-68000000D03*
X203525000Y-66730000D03*
X203525000Y-65460000D03*
X203525000Y-64190000D03*
%TD*%
D10*
%TO.C,R15*%
X239350000Y-79175000D03*
X241350000Y-79175000D03*
%TD*%
D19*
%TO.C,C17*%
X159000000Y-64037500D03*
X159000000Y-61962500D03*
%TD*%
D11*
%TO.C,C14*%
X237387500Y-87175000D03*
X235312500Y-87175000D03*
%TD*%
D20*
%TO.C,Q2*%
X198137500Y-83050000D03*
X198137500Y-84950000D03*
X195862500Y-84000000D03*
%TD*%
M02*
