%TF.GenerationSoftware,KiCad,Pcbnew,8.0.1*%
%TF.CreationDate,2024-07-30T14:49:36+02:00*%
%TF.ProjectId,driver,64726976-6572-42e6-9b69-6361645f7063,rev?*%
%TF.SameCoordinates,Original*%
%TF.FileFunction,Legend,Bot*%
%TF.FilePolarity,Positive*%
%FSLAX46Y46*%
G04 Gerber Fmt 4.6, Leading zero omitted, Abs format (unit mm)*
G04 Created by KiCad (PCBNEW 8.0.1) date 2024-07-30 14:49:36*
%MOMM*%
%LPD*%
G01*
G04 APERTURE LIST*
%ADD10C,0.200000*%
%ADD11C,0.150000*%
%ADD12C,0.100000*%
%ADD13C,0.120000*%
%ADD14C,0.152400*%
%ADD15C,0.500000*%
G04 APERTURE END LIST*
D10*
X161475000Y-82000000D02*
X160475000Y-82000000D01*
X160975000Y-81500000D02*
X160975000Y-82500000D01*
X161000000Y-87500000D02*
X161000000Y-88500000D01*
X158488733Y-88630326D02*
X158488733Y-87868422D01*
X158107780Y-88249374D02*
X158869685Y-88249374D01*
X159012542Y-87439850D02*
X159060161Y-87392231D01*
X159060161Y-87392231D02*
X159107780Y-87296993D01*
X159107780Y-87296993D02*
X159107780Y-87058898D01*
X159107780Y-87058898D02*
X159060161Y-86963660D01*
X159060161Y-86963660D02*
X159012542Y-86916041D01*
X159012542Y-86916041D02*
X158917304Y-86868422D01*
X158917304Y-86868422D02*
X158822066Y-86868422D01*
X158822066Y-86868422D02*
X158679209Y-86916041D01*
X158679209Y-86916041D02*
X158107780Y-87487469D01*
X158107780Y-87487469D02*
X158107780Y-86868422D01*
X158774447Y-86011279D02*
X158107780Y-86011279D01*
X159155400Y-86249374D02*
X158441114Y-86487469D01*
X158441114Y-86487469D02*
X158441114Y-85868422D01*
X159107780Y-85630326D02*
X158107780Y-85296993D01*
X158107780Y-85296993D02*
X159107780Y-84963660D01*
X220132780Y-97630326D02*
X221132780Y-97630326D01*
X220656590Y-97630326D02*
X220656590Y-97058898D01*
X220132780Y-97058898D02*
X221132780Y-97058898D01*
X220132780Y-96439850D02*
X220180400Y-96535088D01*
X220180400Y-96535088D02*
X220228019Y-96582707D01*
X220228019Y-96582707D02*
X220323257Y-96630326D01*
X220323257Y-96630326D02*
X220608971Y-96630326D01*
X220608971Y-96630326D02*
X220704209Y-96582707D01*
X220704209Y-96582707D02*
X220751828Y-96535088D01*
X220751828Y-96535088D02*
X220799447Y-96439850D01*
X220799447Y-96439850D02*
X220799447Y-96296993D01*
X220799447Y-96296993D02*
X220751828Y-96201755D01*
X220751828Y-96201755D02*
X220704209Y-96154136D01*
X220704209Y-96154136D02*
X220608971Y-96106517D01*
X220608971Y-96106517D02*
X220323257Y-96106517D01*
X220323257Y-96106517D02*
X220228019Y-96154136D01*
X220228019Y-96154136D02*
X220180400Y-96201755D01*
X220180400Y-96201755D02*
X220132780Y-96296993D01*
X220132780Y-96296993D02*
X220132780Y-96439850D01*
X220799447Y-95820802D02*
X220799447Y-95439850D01*
X221132780Y-95677945D02*
X220275638Y-95677945D01*
X220275638Y-95677945D02*
X220180400Y-95630326D01*
X220180400Y-95630326D02*
X220132780Y-95535088D01*
X220132780Y-95535088D02*
X220132780Y-95439850D01*
X220132780Y-94344611D02*
X221132780Y-94344611D01*
X221132780Y-94344611D02*
X221132780Y-93963659D01*
X221132780Y-93963659D02*
X221085161Y-93868421D01*
X221085161Y-93868421D02*
X221037542Y-93820802D01*
X221037542Y-93820802D02*
X220942304Y-93773183D01*
X220942304Y-93773183D02*
X220799447Y-93773183D01*
X220799447Y-93773183D02*
X220704209Y-93820802D01*
X220704209Y-93820802D02*
X220656590Y-93868421D01*
X220656590Y-93868421D02*
X220608971Y-93963659D01*
X220608971Y-93963659D02*
X220608971Y-94344611D01*
X220132780Y-93201754D02*
X220180400Y-93296992D01*
X220180400Y-93296992D02*
X220275638Y-93344611D01*
X220275638Y-93344611D02*
X221132780Y-93344611D01*
X220132780Y-92392230D02*
X220656590Y-92392230D01*
X220656590Y-92392230D02*
X220751828Y-92439849D01*
X220751828Y-92439849D02*
X220799447Y-92535087D01*
X220799447Y-92535087D02*
X220799447Y-92725563D01*
X220799447Y-92725563D02*
X220751828Y-92820801D01*
X220180400Y-92392230D02*
X220132780Y-92487468D01*
X220132780Y-92487468D02*
X220132780Y-92725563D01*
X220132780Y-92725563D02*
X220180400Y-92820801D01*
X220180400Y-92820801D02*
X220275638Y-92868420D01*
X220275638Y-92868420D02*
X220370876Y-92868420D01*
X220370876Y-92868420D02*
X220466114Y-92820801D01*
X220466114Y-92820801D02*
X220513733Y-92725563D01*
X220513733Y-92725563D02*
X220513733Y-92487468D01*
X220513733Y-92487468D02*
X220561352Y-92392230D01*
X220799447Y-92058896D02*
X220799447Y-91677944D01*
X221132780Y-91916039D02*
X220275638Y-91916039D01*
X220275638Y-91916039D02*
X220180400Y-91868420D01*
X220180400Y-91868420D02*
X220132780Y-91773182D01*
X220132780Y-91773182D02*
X220132780Y-91677944D01*
X220180400Y-90963658D02*
X220132780Y-91058896D01*
X220132780Y-91058896D02*
X220132780Y-91249372D01*
X220132780Y-91249372D02*
X220180400Y-91344610D01*
X220180400Y-91344610D02*
X220275638Y-91392229D01*
X220275638Y-91392229D02*
X220656590Y-91392229D01*
X220656590Y-91392229D02*
X220751828Y-91344610D01*
X220751828Y-91344610D02*
X220799447Y-91249372D01*
X220799447Y-91249372D02*
X220799447Y-91058896D01*
X220799447Y-91058896D02*
X220751828Y-90963658D01*
X220751828Y-90963658D02*
X220656590Y-90916039D01*
X220656590Y-90916039D02*
X220561352Y-90916039D01*
X220561352Y-90916039D02*
X220466114Y-91392229D01*
D11*
X235516666Y-76279819D02*
X235849999Y-75803628D01*
X236088094Y-76279819D02*
X236088094Y-75279819D01*
X236088094Y-75279819D02*
X235707142Y-75279819D01*
X235707142Y-75279819D02*
X235611904Y-75327438D01*
X235611904Y-75327438D02*
X235564285Y-75375057D01*
X235564285Y-75375057D02*
X235516666Y-75470295D01*
X235516666Y-75470295D02*
X235516666Y-75613152D01*
X235516666Y-75613152D02*
X235564285Y-75708390D01*
X235564285Y-75708390D02*
X235611904Y-75756009D01*
X235611904Y-75756009D02*
X235707142Y-75803628D01*
X235707142Y-75803628D02*
X236088094Y-75803628D01*
X235183332Y-75279819D02*
X234516666Y-75279819D01*
X234516666Y-75279819D02*
X234945237Y-76279819D01*
X202166666Y-59179580D02*
X202214285Y-59227200D01*
X202214285Y-59227200D02*
X202357142Y-59274819D01*
X202357142Y-59274819D02*
X202452380Y-59274819D01*
X202452380Y-59274819D02*
X202595237Y-59227200D01*
X202595237Y-59227200D02*
X202690475Y-59131961D01*
X202690475Y-59131961D02*
X202738094Y-59036723D01*
X202738094Y-59036723D02*
X202785713Y-58846247D01*
X202785713Y-58846247D02*
X202785713Y-58703390D01*
X202785713Y-58703390D02*
X202738094Y-58512914D01*
X202738094Y-58512914D02*
X202690475Y-58417676D01*
X202690475Y-58417676D02*
X202595237Y-58322438D01*
X202595237Y-58322438D02*
X202452380Y-58274819D01*
X202452380Y-58274819D02*
X202357142Y-58274819D01*
X202357142Y-58274819D02*
X202214285Y-58322438D01*
X202214285Y-58322438D02*
X202166666Y-58370057D01*
X201309523Y-58274819D02*
X201499999Y-58274819D01*
X201499999Y-58274819D02*
X201595237Y-58322438D01*
X201595237Y-58322438D02*
X201642856Y-58370057D01*
X201642856Y-58370057D02*
X201738094Y-58512914D01*
X201738094Y-58512914D02*
X201785713Y-58703390D01*
X201785713Y-58703390D02*
X201785713Y-59084342D01*
X201785713Y-59084342D02*
X201738094Y-59179580D01*
X201738094Y-59179580D02*
X201690475Y-59227200D01*
X201690475Y-59227200D02*
X201595237Y-59274819D01*
X201595237Y-59274819D02*
X201404761Y-59274819D01*
X201404761Y-59274819D02*
X201309523Y-59227200D01*
X201309523Y-59227200D02*
X201261904Y-59179580D01*
X201261904Y-59179580D02*
X201214285Y-59084342D01*
X201214285Y-59084342D02*
X201214285Y-58846247D01*
X201214285Y-58846247D02*
X201261904Y-58751009D01*
X201261904Y-58751009D02*
X201309523Y-58703390D01*
X201309523Y-58703390D02*
X201404761Y-58655771D01*
X201404761Y-58655771D02*
X201595237Y-58655771D01*
X201595237Y-58655771D02*
X201690475Y-58703390D01*
X201690475Y-58703390D02*
X201738094Y-58751009D01*
X201738094Y-58751009D02*
X201785713Y-58846247D01*
X198054819Y-69857142D02*
X197578628Y-69523809D01*
X198054819Y-69285714D02*
X197054819Y-69285714D01*
X197054819Y-69285714D02*
X197054819Y-69666666D01*
X197054819Y-69666666D02*
X197102438Y-69761904D01*
X197102438Y-69761904D02*
X197150057Y-69809523D01*
X197150057Y-69809523D02*
X197245295Y-69857142D01*
X197245295Y-69857142D02*
X197388152Y-69857142D01*
X197388152Y-69857142D02*
X197483390Y-69809523D01*
X197483390Y-69809523D02*
X197531009Y-69761904D01*
X197531009Y-69761904D02*
X197578628Y-69666666D01*
X197578628Y-69666666D02*
X197578628Y-69285714D01*
X198054819Y-70809523D02*
X198054819Y-70238095D01*
X198054819Y-70523809D02*
X197054819Y-70523809D01*
X197054819Y-70523809D02*
X197197676Y-70428571D01*
X197197676Y-70428571D02*
X197292914Y-70333333D01*
X197292914Y-70333333D02*
X197340533Y-70238095D01*
X197054819Y-71428571D02*
X197054819Y-71523809D01*
X197054819Y-71523809D02*
X197102438Y-71619047D01*
X197102438Y-71619047D02*
X197150057Y-71666666D01*
X197150057Y-71666666D02*
X197245295Y-71714285D01*
X197245295Y-71714285D02*
X197435771Y-71761904D01*
X197435771Y-71761904D02*
X197673866Y-71761904D01*
X197673866Y-71761904D02*
X197864342Y-71714285D01*
X197864342Y-71714285D02*
X197959580Y-71666666D01*
X197959580Y-71666666D02*
X198007200Y-71619047D01*
X198007200Y-71619047D02*
X198054819Y-71523809D01*
X198054819Y-71523809D02*
X198054819Y-71428571D01*
X198054819Y-71428571D02*
X198007200Y-71333333D01*
X198007200Y-71333333D02*
X197959580Y-71285714D01*
X197959580Y-71285714D02*
X197864342Y-71238095D01*
X197864342Y-71238095D02*
X197673866Y-71190476D01*
X197673866Y-71190476D02*
X197435771Y-71190476D01*
X197435771Y-71190476D02*
X197245295Y-71238095D01*
X197245295Y-71238095D02*
X197150057Y-71285714D01*
X197150057Y-71285714D02*
X197102438Y-71333333D01*
X197102438Y-71333333D02*
X197054819Y-71428571D01*
X182166666Y-61104819D02*
X182499999Y-60628628D01*
X182738094Y-61104819D02*
X182738094Y-60104819D01*
X182738094Y-60104819D02*
X182357142Y-60104819D01*
X182357142Y-60104819D02*
X182261904Y-60152438D01*
X182261904Y-60152438D02*
X182214285Y-60200057D01*
X182214285Y-60200057D02*
X182166666Y-60295295D01*
X182166666Y-60295295D02*
X182166666Y-60438152D01*
X182166666Y-60438152D02*
X182214285Y-60533390D01*
X182214285Y-60533390D02*
X182261904Y-60581009D01*
X182261904Y-60581009D02*
X182357142Y-60628628D01*
X182357142Y-60628628D02*
X182738094Y-60628628D01*
X181309523Y-60438152D02*
X181309523Y-61104819D01*
X181547618Y-60057200D02*
X181785713Y-60771485D01*
X181785713Y-60771485D02*
X181166666Y-60771485D01*
X235992857Y-81279819D02*
X236326190Y-80803628D01*
X236564285Y-81279819D02*
X236564285Y-80279819D01*
X236564285Y-80279819D02*
X236183333Y-80279819D01*
X236183333Y-80279819D02*
X236088095Y-80327438D01*
X236088095Y-80327438D02*
X236040476Y-80375057D01*
X236040476Y-80375057D02*
X235992857Y-80470295D01*
X235992857Y-80470295D02*
X235992857Y-80613152D01*
X235992857Y-80613152D02*
X236040476Y-80708390D01*
X236040476Y-80708390D02*
X236088095Y-80756009D01*
X236088095Y-80756009D02*
X236183333Y-80803628D01*
X236183333Y-80803628D02*
X236564285Y-80803628D01*
X235040476Y-81279819D02*
X235611904Y-81279819D01*
X235326190Y-81279819D02*
X235326190Y-80279819D01*
X235326190Y-80279819D02*
X235421428Y-80422676D01*
X235421428Y-80422676D02*
X235516666Y-80517914D01*
X235516666Y-80517914D02*
X235611904Y-80565533D01*
X234183333Y-80613152D02*
X234183333Y-81279819D01*
X234421428Y-80232200D02*
X234659523Y-80946485D01*
X234659523Y-80946485D02*
X234040476Y-80946485D01*
X212279819Y-64817142D02*
X211803628Y-64483809D01*
X212279819Y-64245714D02*
X211279819Y-64245714D01*
X211279819Y-64245714D02*
X211279819Y-64626666D01*
X211279819Y-64626666D02*
X211327438Y-64721904D01*
X211327438Y-64721904D02*
X211375057Y-64769523D01*
X211375057Y-64769523D02*
X211470295Y-64817142D01*
X211470295Y-64817142D02*
X211613152Y-64817142D01*
X211613152Y-64817142D02*
X211708390Y-64769523D01*
X211708390Y-64769523D02*
X211756009Y-64721904D01*
X211756009Y-64721904D02*
X211803628Y-64626666D01*
X211803628Y-64626666D02*
X211803628Y-64245714D01*
X212279819Y-65769523D02*
X212279819Y-65198095D01*
X212279819Y-65483809D02*
X211279819Y-65483809D01*
X211279819Y-65483809D02*
X211422676Y-65388571D01*
X211422676Y-65388571D02*
X211517914Y-65293333D01*
X211517914Y-65293333D02*
X211565533Y-65198095D01*
X212279819Y-66721904D02*
X212279819Y-66150476D01*
X212279819Y-66436190D02*
X211279819Y-66436190D01*
X211279819Y-66436190D02*
X211422676Y-66340952D01*
X211422676Y-66340952D02*
X211517914Y-66245714D01*
X211517914Y-66245714D02*
X211565533Y-66150476D01*
X162054819Y-102422493D02*
X162769104Y-102422493D01*
X162769104Y-102422493D02*
X162911961Y-102374874D01*
X162911961Y-102374874D02*
X163007200Y-102279636D01*
X163007200Y-102279636D02*
X163054819Y-102136779D01*
X163054819Y-102136779D02*
X163054819Y-102041541D01*
X162150057Y-102851065D02*
X162102438Y-102898684D01*
X162102438Y-102898684D02*
X162054819Y-102993922D01*
X162054819Y-102993922D02*
X162054819Y-103232017D01*
X162054819Y-103232017D02*
X162102438Y-103327255D01*
X162102438Y-103327255D02*
X162150057Y-103374874D01*
X162150057Y-103374874D02*
X162245295Y-103422493D01*
X162245295Y-103422493D02*
X162340533Y-103422493D01*
X162340533Y-103422493D02*
X162483390Y-103374874D01*
X162483390Y-103374874D02*
X163054819Y-102803446D01*
X163054819Y-102803446D02*
X163054819Y-103422493D01*
X172804819Y-67833333D02*
X172328628Y-67500000D01*
X172804819Y-67261905D02*
X171804819Y-67261905D01*
X171804819Y-67261905D02*
X171804819Y-67642857D01*
X171804819Y-67642857D02*
X171852438Y-67738095D01*
X171852438Y-67738095D02*
X171900057Y-67785714D01*
X171900057Y-67785714D02*
X171995295Y-67833333D01*
X171995295Y-67833333D02*
X172138152Y-67833333D01*
X172138152Y-67833333D02*
X172233390Y-67785714D01*
X172233390Y-67785714D02*
X172281009Y-67738095D01*
X172281009Y-67738095D02*
X172328628Y-67642857D01*
X172328628Y-67642857D02*
X172328628Y-67261905D01*
X171804819Y-68166667D02*
X171804819Y-68785714D01*
X171804819Y-68785714D02*
X172185771Y-68452381D01*
X172185771Y-68452381D02*
X172185771Y-68595238D01*
X172185771Y-68595238D02*
X172233390Y-68690476D01*
X172233390Y-68690476D02*
X172281009Y-68738095D01*
X172281009Y-68738095D02*
X172376247Y-68785714D01*
X172376247Y-68785714D02*
X172614342Y-68785714D01*
X172614342Y-68785714D02*
X172709580Y-68738095D01*
X172709580Y-68738095D02*
X172757200Y-68690476D01*
X172757200Y-68690476D02*
X172804819Y-68595238D01*
X172804819Y-68595238D02*
X172804819Y-68309524D01*
X172804819Y-68309524D02*
X172757200Y-68214286D01*
X172757200Y-68214286D02*
X172709580Y-68166667D01*
X171031904Y-108014819D02*
X171031904Y-108824342D01*
X171031904Y-108824342D02*
X170984285Y-108919580D01*
X170984285Y-108919580D02*
X170936666Y-108967200D01*
X170936666Y-108967200D02*
X170841428Y-109014819D01*
X170841428Y-109014819D02*
X170650952Y-109014819D01*
X170650952Y-109014819D02*
X170555714Y-108967200D01*
X170555714Y-108967200D02*
X170508095Y-108919580D01*
X170508095Y-108919580D02*
X170460476Y-108824342D01*
X170460476Y-108824342D02*
X170460476Y-108014819D01*
X170079523Y-108014819D02*
X169412857Y-108014819D01*
X169412857Y-108014819D02*
X169841428Y-109014819D01*
X182236904Y-62444819D02*
X182236904Y-63254342D01*
X182236904Y-63254342D02*
X182189285Y-63349580D01*
X182189285Y-63349580D02*
X182141666Y-63397200D01*
X182141666Y-63397200D02*
X182046428Y-63444819D01*
X182046428Y-63444819D02*
X181855952Y-63444819D01*
X181855952Y-63444819D02*
X181760714Y-63397200D01*
X181760714Y-63397200D02*
X181713095Y-63349580D01*
X181713095Y-63349580D02*
X181665476Y-63254342D01*
X181665476Y-63254342D02*
X181665476Y-62444819D01*
X180665476Y-63444819D02*
X181236904Y-63444819D01*
X180951190Y-63444819D02*
X180951190Y-62444819D01*
X180951190Y-62444819D02*
X181046428Y-62587676D01*
X181046428Y-62587676D02*
X181141666Y-62682914D01*
X181141666Y-62682914D02*
X181236904Y-62730533D01*
X245992857Y-81279819D02*
X246326190Y-80803628D01*
X246564285Y-81279819D02*
X246564285Y-80279819D01*
X246564285Y-80279819D02*
X246183333Y-80279819D01*
X246183333Y-80279819D02*
X246088095Y-80327438D01*
X246088095Y-80327438D02*
X246040476Y-80375057D01*
X246040476Y-80375057D02*
X245992857Y-80470295D01*
X245992857Y-80470295D02*
X245992857Y-80613152D01*
X245992857Y-80613152D02*
X246040476Y-80708390D01*
X246040476Y-80708390D02*
X246088095Y-80756009D01*
X246088095Y-80756009D02*
X246183333Y-80803628D01*
X246183333Y-80803628D02*
X246564285Y-80803628D01*
X245040476Y-81279819D02*
X245611904Y-81279819D01*
X245326190Y-81279819D02*
X245326190Y-80279819D01*
X245326190Y-80279819D02*
X245421428Y-80422676D01*
X245421428Y-80422676D02*
X245516666Y-80517914D01*
X245516666Y-80517914D02*
X245611904Y-80565533D01*
X244183333Y-80279819D02*
X244373809Y-80279819D01*
X244373809Y-80279819D02*
X244469047Y-80327438D01*
X244469047Y-80327438D02*
X244516666Y-80375057D01*
X244516666Y-80375057D02*
X244611904Y-80517914D01*
X244611904Y-80517914D02*
X244659523Y-80708390D01*
X244659523Y-80708390D02*
X244659523Y-81089342D01*
X244659523Y-81089342D02*
X244611904Y-81184580D01*
X244611904Y-81184580D02*
X244564285Y-81232200D01*
X244564285Y-81232200D02*
X244469047Y-81279819D01*
X244469047Y-81279819D02*
X244278571Y-81279819D01*
X244278571Y-81279819D02*
X244183333Y-81232200D01*
X244183333Y-81232200D02*
X244135714Y-81184580D01*
X244135714Y-81184580D02*
X244088095Y-81089342D01*
X244088095Y-81089342D02*
X244088095Y-80851247D01*
X244088095Y-80851247D02*
X244135714Y-80756009D01*
X244135714Y-80756009D02*
X244183333Y-80708390D01*
X244183333Y-80708390D02*
X244278571Y-80660771D01*
X244278571Y-80660771D02*
X244469047Y-80660771D01*
X244469047Y-80660771D02*
X244564285Y-80708390D01*
X244564285Y-80708390D02*
X244611904Y-80756009D01*
X244611904Y-80756009D02*
X244659523Y-80851247D01*
X245516666Y-76279819D02*
X245849999Y-75803628D01*
X246088094Y-76279819D02*
X246088094Y-75279819D01*
X246088094Y-75279819D02*
X245707142Y-75279819D01*
X245707142Y-75279819D02*
X245611904Y-75327438D01*
X245611904Y-75327438D02*
X245564285Y-75375057D01*
X245564285Y-75375057D02*
X245516666Y-75470295D01*
X245516666Y-75470295D02*
X245516666Y-75613152D01*
X245516666Y-75613152D02*
X245564285Y-75708390D01*
X245564285Y-75708390D02*
X245611904Y-75756009D01*
X245611904Y-75756009D02*
X245707142Y-75803628D01*
X245707142Y-75803628D02*
X246088094Y-75803628D01*
X245040475Y-76279819D02*
X244849999Y-76279819D01*
X244849999Y-76279819D02*
X244754761Y-76232200D01*
X244754761Y-76232200D02*
X244707142Y-76184580D01*
X244707142Y-76184580D02*
X244611904Y-76041723D01*
X244611904Y-76041723D02*
X244564285Y-75851247D01*
X244564285Y-75851247D02*
X244564285Y-75470295D01*
X244564285Y-75470295D02*
X244611904Y-75375057D01*
X244611904Y-75375057D02*
X244659523Y-75327438D01*
X244659523Y-75327438D02*
X244754761Y-75279819D01*
X244754761Y-75279819D02*
X244945237Y-75279819D01*
X244945237Y-75279819D02*
X245040475Y-75327438D01*
X245040475Y-75327438D02*
X245088094Y-75375057D01*
X245088094Y-75375057D02*
X245135713Y-75470295D01*
X245135713Y-75470295D02*
X245135713Y-75708390D01*
X245135713Y-75708390D02*
X245088094Y-75803628D01*
X245088094Y-75803628D02*
X245040475Y-75851247D01*
X245040475Y-75851247D02*
X244945237Y-75898866D01*
X244945237Y-75898866D02*
X244754761Y-75898866D01*
X244754761Y-75898866D02*
X244659523Y-75851247D01*
X244659523Y-75851247D02*
X244611904Y-75803628D01*
X244611904Y-75803628D02*
X244564285Y-75708390D01*
D12*
X206666666Y-99692580D02*
X206666666Y-98978295D01*
X206666666Y-98978295D02*
X206619047Y-98835438D01*
X206619047Y-98835438D02*
X206523809Y-98740200D01*
X206523809Y-98740200D02*
X206380952Y-98692580D01*
X206380952Y-98692580D02*
X206285714Y-98692580D01*
X207666666Y-98692580D02*
X207095238Y-98692580D01*
X207380952Y-98692580D02*
X207380952Y-99692580D01*
X207380952Y-99692580D02*
X207285714Y-99549723D01*
X207285714Y-99549723D02*
X207190476Y-99454485D01*
X207190476Y-99454485D02*
X207095238Y-99406866D01*
D11*
X186166666Y-61104819D02*
X186499999Y-60628628D01*
X186738094Y-61104819D02*
X186738094Y-60104819D01*
X186738094Y-60104819D02*
X186357142Y-60104819D01*
X186357142Y-60104819D02*
X186261904Y-60152438D01*
X186261904Y-60152438D02*
X186214285Y-60200057D01*
X186214285Y-60200057D02*
X186166666Y-60295295D01*
X186166666Y-60295295D02*
X186166666Y-60438152D01*
X186166666Y-60438152D02*
X186214285Y-60533390D01*
X186214285Y-60533390D02*
X186261904Y-60581009D01*
X186261904Y-60581009D02*
X186357142Y-60628628D01*
X186357142Y-60628628D02*
X186738094Y-60628628D01*
X185309523Y-60104819D02*
X185499999Y-60104819D01*
X185499999Y-60104819D02*
X185595237Y-60152438D01*
X185595237Y-60152438D02*
X185642856Y-60200057D01*
X185642856Y-60200057D02*
X185738094Y-60342914D01*
X185738094Y-60342914D02*
X185785713Y-60533390D01*
X185785713Y-60533390D02*
X185785713Y-60914342D01*
X185785713Y-60914342D02*
X185738094Y-61009580D01*
X185738094Y-61009580D02*
X185690475Y-61057200D01*
X185690475Y-61057200D02*
X185595237Y-61104819D01*
X185595237Y-61104819D02*
X185404761Y-61104819D01*
X185404761Y-61104819D02*
X185309523Y-61057200D01*
X185309523Y-61057200D02*
X185261904Y-61009580D01*
X185261904Y-61009580D02*
X185214285Y-60914342D01*
X185214285Y-60914342D02*
X185214285Y-60676247D01*
X185214285Y-60676247D02*
X185261904Y-60581009D01*
X185261904Y-60581009D02*
X185309523Y-60533390D01*
X185309523Y-60533390D02*
X185404761Y-60485771D01*
X185404761Y-60485771D02*
X185595237Y-60485771D01*
X185595237Y-60485771D02*
X185690475Y-60533390D01*
X185690475Y-60533390D02*
X185738094Y-60581009D01*
X185738094Y-60581009D02*
X185785713Y-60676247D01*
X245992857Y-85854580D02*
X246040476Y-85902200D01*
X246040476Y-85902200D02*
X246183333Y-85949819D01*
X246183333Y-85949819D02*
X246278571Y-85949819D01*
X246278571Y-85949819D02*
X246421428Y-85902200D01*
X246421428Y-85902200D02*
X246516666Y-85806961D01*
X246516666Y-85806961D02*
X246564285Y-85711723D01*
X246564285Y-85711723D02*
X246611904Y-85521247D01*
X246611904Y-85521247D02*
X246611904Y-85378390D01*
X246611904Y-85378390D02*
X246564285Y-85187914D01*
X246564285Y-85187914D02*
X246516666Y-85092676D01*
X246516666Y-85092676D02*
X246421428Y-84997438D01*
X246421428Y-84997438D02*
X246278571Y-84949819D01*
X246278571Y-84949819D02*
X246183333Y-84949819D01*
X246183333Y-84949819D02*
X246040476Y-84997438D01*
X246040476Y-84997438D02*
X245992857Y-85045057D01*
X245040476Y-85949819D02*
X245611904Y-85949819D01*
X245326190Y-85949819D02*
X245326190Y-84949819D01*
X245326190Y-84949819D02*
X245421428Y-85092676D01*
X245421428Y-85092676D02*
X245516666Y-85187914D01*
X245516666Y-85187914D02*
X245611904Y-85235533D01*
X244135714Y-84949819D02*
X244611904Y-84949819D01*
X244611904Y-84949819D02*
X244659523Y-85426009D01*
X244659523Y-85426009D02*
X244611904Y-85378390D01*
X244611904Y-85378390D02*
X244516666Y-85330771D01*
X244516666Y-85330771D02*
X244278571Y-85330771D01*
X244278571Y-85330771D02*
X244183333Y-85378390D01*
X244183333Y-85378390D02*
X244135714Y-85426009D01*
X244135714Y-85426009D02*
X244088095Y-85521247D01*
X244088095Y-85521247D02*
X244088095Y-85759342D01*
X244088095Y-85759342D02*
X244135714Y-85854580D01*
X244135714Y-85854580D02*
X244183333Y-85902200D01*
X244183333Y-85902200D02*
X244278571Y-85949819D01*
X244278571Y-85949819D02*
X244516666Y-85949819D01*
X244516666Y-85949819D02*
X244611904Y-85902200D01*
X244611904Y-85902200D02*
X244659523Y-85854580D01*
X212641666Y-77564819D02*
X212974999Y-77088628D01*
X213213094Y-77564819D02*
X213213094Y-76564819D01*
X213213094Y-76564819D02*
X212832142Y-76564819D01*
X212832142Y-76564819D02*
X212736904Y-76612438D01*
X212736904Y-76612438D02*
X212689285Y-76660057D01*
X212689285Y-76660057D02*
X212641666Y-76755295D01*
X212641666Y-76755295D02*
X212641666Y-76898152D01*
X212641666Y-76898152D02*
X212689285Y-76993390D01*
X212689285Y-76993390D02*
X212736904Y-77041009D01*
X212736904Y-77041009D02*
X212832142Y-77088628D01*
X212832142Y-77088628D02*
X213213094Y-77088628D01*
X211689285Y-77564819D02*
X212260713Y-77564819D01*
X211974999Y-77564819D02*
X211974999Y-76564819D01*
X211974999Y-76564819D02*
X212070237Y-76707676D01*
X212070237Y-76707676D02*
X212165475Y-76802914D01*
X212165475Y-76802914D02*
X212260713Y-76850533D01*
X210117857Y-62564819D02*
X210451190Y-62088628D01*
X210689285Y-62564819D02*
X210689285Y-61564819D01*
X210689285Y-61564819D02*
X210308333Y-61564819D01*
X210308333Y-61564819D02*
X210213095Y-61612438D01*
X210213095Y-61612438D02*
X210165476Y-61660057D01*
X210165476Y-61660057D02*
X210117857Y-61755295D01*
X210117857Y-61755295D02*
X210117857Y-61898152D01*
X210117857Y-61898152D02*
X210165476Y-61993390D01*
X210165476Y-61993390D02*
X210213095Y-62041009D01*
X210213095Y-62041009D02*
X210308333Y-62088628D01*
X210308333Y-62088628D02*
X210689285Y-62088628D01*
X209165476Y-62564819D02*
X209736904Y-62564819D01*
X209451190Y-62564819D02*
X209451190Y-61564819D01*
X209451190Y-61564819D02*
X209546428Y-61707676D01*
X209546428Y-61707676D02*
X209641666Y-61802914D01*
X209641666Y-61802914D02*
X209736904Y-61850533D01*
X208784523Y-61660057D02*
X208736904Y-61612438D01*
X208736904Y-61612438D02*
X208641666Y-61564819D01*
X208641666Y-61564819D02*
X208403571Y-61564819D01*
X208403571Y-61564819D02*
X208308333Y-61612438D01*
X208308333Y-61612438D02*
X208260714Y-61660057D01*
X208260714Y-61660057D02*
X208213095Y-61755295D01*
X208213095Y-61755295D02*
X208213095Y-61850533D01*
X208213095Y-61850533D02*
X208260714Y-61993390D01*
X208260714Y-61993390D02*
X208832142Y-62564819D01*
X208832142Y-62564819D02*
X208213095Y-62564819D01*
X191104819Y-66833333D02*
X190628628Y-66500000D01*
X191104819Y-66261905D02*
X190104819Y-66261905D01*
X190104819Y-66261905D02*
X190104819Y-66642857D01*
X190104819Y-66642857D02*
X190152438Y-66738095D01*
X190152438Y-66738095D02*
X190200057Y-66785714D01*
X190200057Y-66785714D02*
X190295295Y-66833333D01*
X190295295Y-66833333D02*
X190438152Y-66833333D01*
X190438152Y-66833333D02*
X190533390Y-66785714D01*
X190533390Y-66785714D02*
X190581009Y-66738095D01*
X190581009Y-66738095D02*
X190628628Y-66642857D01*
X190628628Y-66642857D02*
X190628628Y-66261905D01*
X190104819Y-67738095D02*
X190104819Y-67261905D01*
X190104819Y-67261905D02*
X190581009Y-67214286D01*
X190581009Y-67214286D02*
X190533390Y-67261905D01*
X190533390Y-67261905D02*
X190485771Y-67357143D01*
X190485771Y-67357143D02*
X190485771Y-67595238D01*
X190485771Y-67595238D02*
X190533390Y-67690476D01*
X190533390Y-67690476D02*
X190581009Y-67738095D01*
X190581009Y-67738095D02*
X190676247Y-67785714D01*
X190676247Y-67785714D02*
X190914342Y-67785714D01*
X190914342Y-67785714D02*
X191009580Y-67738095D01*
X191009580Y-67738095D02*
X191057200Y-67690476D01*
X191057200Y-67690476D02*
X191104819Y-67595238D01*
X191104819Y-67595238D02*
X191104819Y-67357143D01*
X191104819Y-67357143D02*
X191057200Y-67261905D01*
X191057200Y-67261905D02*
X191009580Y-67214286D01*
X199334819Y-97451905D02*
X198334819Y-97451905D01*
X198334819Y-97451905D02*
X198334819Y-97690000D01*
X198334819Y-97690000D02*
X198382438Y-97832857D01*
X198382438Y-97832857D02*
X198477676Y-97928095D01*
X198477676Y-97928095D02*
X198572914Y-97975714D01*
X198572914Y-97975714D02*
X198763390Y-98023333D01*
X198763390Y-98023333D02*
X198906247Y-98023333D01*
X198906247Y-98023333D02*
X199096723Y-97975714D01*
X199096723Y-97975714D02*
X199191961Y-97928095D01*
X199191961Y-97928095D02*
X199287200Y-97832857D01*
X199287200Y-97832857D02*
X199334819Y-97690000D01*
X199334819Y-97690000D02*
X199334819Y-97451905D01*
X199334819Y-98975714D02*
X199334819Y-98404286D01*
X199334819Y-98690000D02*
X198334819Y-98690000D01*
X198334819Y-98690000D02*
X198477676Y-98594762D01*
X198477676Y-98594762D02*
X198572914Y-98499524D01*
X198572914Y-98499524D02*
X198620533Y-98404286D01*
X199654819Y-94118095D02*
X198654819Y-94118095D01*
X199654819Y-94689523D02*
X199083390Y-94260952D01*
X198654819Y-94689523D02*
X199226247Y-94118095D01*
X187456466Y-76473619D02*
X187789799Y-75997428D01*
X188027894Y-76473619D02*
X188027894Y-75473619D01*
X188027894Y-75473619D02*
X187646942Y-75473619D01*
X187646942Y-75473619D02*
X187551704Y-75521238D01*
X187551704Y-75521238D02*
X187504085Y-75568857D01*
X187504085Y-75568857D02*
X187456466Y-75664095D01*
X187456466Y-75664095D02*
X187456466Y-75806952D01*
X187456466Y-75806952D02*
X187504085Y-75902190D01*
X187504085Y-75902190D02*
X187551704Y-75949809D01*
X187551704Y-75949809D02*
X187646942Y-75997428D01*
X187646942Y-75997428D02*
X188027894Y-75997428D01*
X187075513Y-75568857D02*
X187027894Y-75521238D01*
X187027894Y-75521238D02*
X186932656Y-75473619D01*
X186932656Y-75473619D02*
X186694561Y-75473619D01*
X186694561Y-75473619D02*
X186599323Y-75521238D01*
X186599323Y-75521238D02*
X186551704Y-75568857D01*
X186551704Y-75568857D02*
X186504085Y-75664095D01*
X186504085Y-75664095D02*
X186504085Y-75759333D01*
X186504085Y-75759333D02*
X186551704Y-75902190D01*
X186551704Y-75902190D02*
X187123132Y-76473619D01*
X187123132Y-76473619D02*
X186504085Y-76473619D01*
X241761904Y-89104819D02*
X241761904Y-89914342D01*
X241761904Y-89914342D02*
X241714285Y-90009580D01*
X241714285Y-90009580D02*
X241666666Y-90057200D01*
X241666666Y-90057200D02*
X241571428Y-90104819D01*
X241571428Y-90104819D02*
X241380952Y-90104819D01*
X241380952Y-90104819D02*
X241285714Y-90057200D01*
X241285714Y-90057200D02*
X241238095Y-90009580D01*
X241238095Y-90009580D02*
X241190476Y-89914342D01*
X241190476Y-89914342D02*
X241190476Y-89104819D01*
X240809523Y-89104819D02*
X240190476Y-89104819D01*
X240190476Y-89104819D02*
X240523809Y-89485771D01*
X240523809Y-89485771D02*
X240380952Y-89485771D01*
X240380952Y-89485771D02*
X240285714Y-89533390D01*
X240285714Y-89533390D02*
X240238095Y-89581009D01*
X240238095Y-89581009D02*
X240190476Y-89676247D01*
X240190476Y-89676247D02*
X240190476Y-89914342D01*
X240190476Y-89914342D02*
X240238095Y-90009580D01*
X240238095Y-90009580D02*
X240285714Y-90057200D01*
X240285714Y-90057200D02*
X240380952Y-90104819D01*
X240380952Y-90104819D02*
X240666666Y-90104819D01*
X240666666Y-90104819D02*
X240761904Y-90057200D01*
X240761904Y-90057200D02*
X240809523Y-90009580D01*
X171031904Y-100014819D02*
X171031904Y-100824342D01*
X171031904Y-100824342D02*
X170984285Y-100919580D01*
X170984285Y-100919580D02*
X170936666Y-100967200D01*
X170936666Y-100967200D02*
X170841428Y-101014819D01*
X170841428Y-101014819D02*
X170650952Y-101014819D01*
X170650952Y-101014819D02*
X170555714Y-100967200D01*
X170555714Y-100967200D02*
X170508095Y-100919580D01*
X170508095Y-100919580D02*
X170460476Y-100824342D01*
X170460476Y-100824342D02*
X170460476Y-100014819D01*
X169555714Y-100014819D02*
X169746190Y-100014819D01*
X169746190Y-100014819D02*
X169841428Y-100062438D01*
X169841428Y-100062438D02*
X169889047Y-100110057D01*
X169889047Y-100110057D02*
X169984285Y-100252914D01*
X169984285Y-100252914D02*
X170031904Y-100443390D01*
X170031904Y-100443390D02*
X170031904Y-100824342D01*
X170031904Y-100824342D02*
X169984285Y-100919580D01*
X169984285Y-100919580D02*
X169936666Y-100967200D01*
X169936666Y-100967200D02*
X169841428Y-101014819D01*
X169841428Y-101014819D02*
X169650952Y-101014819D01*
X169650952Y-101014819D02*
X169555714Y-100967200D01*
X169555714Y-100967200D02*
X169508095Y-100919580D01*
X169508095Y-100919580D02*
X169460476Y-100824342D01*
X169460476Y-100824342D02*
X169460476Y-100586247D01*
X169460476Y-100586247D02*
X169508095Y-100491009D01*
X169508095Y-100491009D02*
X169555714Y-100443390D01*
X169555714Y-100443390D02*
X169650952Y-100395771D01*
X169650952Y-100395771D02*
X169841428Y-100395771D01*
X169841428Y-100395771D02*
X169936666Y-100443390D01*
X169936666Y-100443390D02*
X169984285Y-100491009D01*
X169984285Y-100491009D02*
X170031904Y-100586247D01*
X240516666Y-76279819D02*
X240849999Y-75803628D01*
X241088094Y-76279819D02*
X241088094Y-75279819D01*
X241088094Y-75279819D02*
X240707142Y-75279819D01*
X240707142Y-75279819D02*
X240611904Y-75327438D01*
X240611904Y-75327438D02*
X240564285Y-75375057D01*
X240564285Y-75375057D02*
X240516666Y-75470295D01*
X240516666Y-75470295D02*
X240516666Y-75613152D01*
X240516666Y-75613152D02*
X240564285Y-75708390D01*
X240564285Y-75708390D02*
X240611904Y-75756009D01*
X240611904Y-75756009D02*
X240707142Y-75803628D01*
X240707142Y-75803628D02*
X241088094Y-75803628D01*
X239945237Y-75708390D02*
X240040475Y-75660771D01*
X240040475Y-75660771D02*
X240088094Y-75613152D01*
X240088094Y-75613152D02*
X240135713Y-75517914D01*
X240135713Y-75517914D02*
X240135713Y-75470295D01*
X240135713Y-75470295D02*
X240088094Y-75375057D01*
X240088094Y-75375057D02*
X240040475Y-75327438D01*
X240040475Y-75327438D02*
X239945237Y-75279819D01*
X239945237Y-75279819D02*
X239754761Y-75279819D01*
X239754761Y-75279819D02*
X239659523Y-75327438D01*
X239659523Y-75327438D02*
X239611904Y-75375057D01*
X239611904Y-75375057D02*
X239564285Y-75470295D01*
X239564285Y-75470295D02*
X239564285Y-75517914D01*
X239564285Y-75517914D02*
X239611904Y-75613152D01*
X239611904Y-75613152D02*
X239659523Y-75660771D01*
X239659523Y-75660771D02*
X239754761Y-75708390D01*
X239754761Y-75708390D02*
X239945237Y-75708390D01*
X239945237Y-75708390D02*
X240040475Y-75756009D01*
X240040475Y-75756009D02*
X240088094Y-75803628D01*
X240088094Y-75803628D02*
X240135713Y-75898866D01*
X240135713Y-75898866D02*
X240135713Y-76089342D01*
X240135713Y-76089342D02*
X240088094Y-76184580D01*
X240088094Y-76184580D02*
X240040475Y-76232200D01*
X240040475Y-76232200D02*
X239945237Y-76279819D01*
X239945237Y-76279819D02*
X239754761Y-76279819D01*
X239754761Y-76279819D02*
X239659523Y-76232200D01*
X239659523Y-76232200D02*
X239611904Y-76184580D01*
X239611904Y-76184580D02*
X239564285Y-76089342D01*
X239564285Y-76089342D02*
X239564285Y-75898866D01*
X239564285Y-75898866D02*
X239611904Y-75803628D01*
X239611904Y-75803628D02*
X239659523Y-75756009D01*
X239659523Y-75756009D02*
X239754761Y-75708390D01*
X207179580Y-79333333D02*
X207227200Y-79285714D01*
X207227200Y-79285714D02*
X207274819Y-79142857D01*
X207274819Y-79142857D02*
X207274819Y-79047619D01*
X207274819Y-79047619D02*
X207227200Y-78904762D01*
X207227200Y-78904762D02*
X207131961Y-78809524D01*
X207131961Y-78809524D02*
X207036723Y-78761905D01*
X207036723Y-78761905D02*
X206846247Y-78714286D01*
X206846247Y-78714286D02*
X206703390Y-78714286D01*
X206703390Y-78714286D02*
X206512914Y-78761905D01*
X206512914Y-78761905D02*
X206417676Y-78809524D01*
X206417676Y-78809524D02*
X206322438Y-78904762D01*
X206322438Y-78904762D02*
X206274819Y-79047619D01*
X206274819Y-79047619D02*
X206274819Y-79142857D01*
X206274819Y-79142857D02*
X206322438Y-79285714D01*
X206322438Y-79285714D02*
X206370057Y-79333333D01*
X207274819Y-80285714D02*
X207274819Y-79714286D01*
X207274819Y-80000000D02*
X206274819Y-80000000D01*
X206274819Y-80000000D02*
X206417676Y-79904762D01*
X206417676Y-79904762D02*
X206512914Y-79809524D01*
X206512914Y-79809524D02*
X206560533Y-79714286D01*
X212279819Y-69817142D02*
X211803628Y-69483809D01*
X212279819Y-69245714D02*
X211279819Y-69245714D01*
X211279819Y-69245714D02*
X211279819Y-69626666D01*
X211279819Y-69626666D02*
X211327438Y-69721904D01*
X211327438Y-69721904D02*
X211375057Y-69769523D01*
X211375057Y-69769523D02*
X211470295Y-69817142D01*
X211470295Y-69817142D02*
X211613152Y-69817142D01*
X211613152Y-69817142D02*
X211708390Y-69769523D01*
X211708390Y-69769523D02*
X211756009Y-69721904D01*
X211756009Y-69721904D02*
X211803628Y-69626666D01*
X211803628Y-69626666D02*
X211803628Y-69245714D01*
X212279819Y-70769523D02*
X212279819Y-70198095D01*
X212279819Y-70483809D02*
X211279819Y-70483809D01*
X211279819Y-70483809D02*
X211422676Y-70388571D01*
X211422676Y-70388571D02*
X211517914Y-70293333D01*
X211517914Y-70293333D02*
X211565533Y-70198095D01*
X211279819Y-71102857D02*
X211279819Y-71721904D01*
X211279819Y-71721904D02*
X211660771Y-71388571D01*
X211660771Y-71388571D02*
X211660771Y-71531428D01*
X211660771Y-71531428D02*
X211708390Y-71626666D01*
X211708390Y-71626666D02*
X211756009Y-71674285D01*
X211756009Y-71674285D02*
X211851247Y-71721904D01*
X211851247Y-71721904D02*
X212089342Y-71721904D01*
X212089342Y-71721904D02*
X212184580Y-71674285D01*
X212184580Y-71674285D02*
X212232200Y-71626666D01*
X212232200Y-71626666D02*
X212279819Y-71531428D01*
X212279819Y-71531428D02*
X212279819Y-71245714D01*
X212279819Y-71245714D02*
X212232200Y-71150476D01*
X212232200Y-71150476D02*
X212184580Y-71102857D01*
X176166666Y-59679580D02*
X176214285Y-59727200D01*
X176214285Y-59727200D02*
X176357142Y-59774819D01*
X176357142Y-59774819D02*
X176452380Y-59774819D01*
X176452380Y-59774819D02*
X176595237Y-59727200D01*
X176595237Y-59727200D02*
X176690475Y-59631961D01*
X176690475Y-59631961D02*
X176738094Y-59536723D01*
X176738094Y-59536723D02*
X176785713Y-59346247D01*
X176785713Y-59346247D02*
X176785713Y-59203390D01*
X176785713Y-59203390D02*
X176738094Y-59012914D01*
X176738094Y-59012914D02*
X176690475Y-58917676D01*
X176690475Y-58917676D02*
X176595237Y-58822438D01*
X176595237Y-58822438D02*
X176452380Y-58774819D01*
X176452380Y-58774819D02*
X176357142Y-58774819D01*
X176357142Y-58774819D02*
X176214285Y-58822438D01*
X176214285Y-58822438D02*
X176166666Y-58870057D01*
X175833332Y-58774819D02*
X175166666Y-58774819D01*
X175166666Y-58774819D02*
X175595237Y-59774819D01*
X197593180Y-104834094D02*
X198593180Y-104834094D01*
X197593180Y-104262666D02*
X198164609Y-104691237D01*
X198593180Y-104262666D02*
X198021752Y-104834094D01*
X197593180Y-103310285D02*
X197593180Y-103881713D01*
X197593180Y-103595999D02*
X198593180Y-103595999D01*
X198593180Y-103595999D02*
X198450323Y-103691237D01*
X198450323Y-103691237D02*
X198355085Y-103786475D01*
X198355085Y-103786475D02*
X198307466Y-103881713D01*
X206761904Y-62174819D02*
X206761904Y-62984342D01*
X206761904Y-62984342D02*
X206714285Y-63079580D01*
X206714285Y-63079580D02*
X206666666Y-63127200D01*
X206666666Y-63127200D02*
X206571428Y-63174819D01*
X206571428Y-63174819D02*
X206380952Y-63174819D01*
X206380952Y-63174819D02*
X206285714Y-63127200D01*
X206285714Y-63127200D02*
X206238095Y-63079580D01*
X206238095Y-63079580D02*
X206190476Y-62984342D01*
X206190476Y-62984342D02*
X206190476Y-62174819D01*
X205285714Y-62508152D02*
X205285714Y-63174819D01*
X205523809Y-62127200D02*
X205761904Y-62841485D01*
X205761904Y-62841485D02*
X205142857Y-62841485D01*
X240992857Y-81279819D02*
X241326190Y-80803628D01*
X241564285Y-81279819D02*
X241564285Y-80279819D01*
X241564285Y-80279819D02*
X241183333Y-80279819D01*
X241183333Y-80279819D02*
X241088095Y-80327438D01*
X241088095Y-80327438D02*
X241040476Y-80375057D01*
X241040476Y-80375057D02*
X240992857Y-80470295D01*
X240992857Y-80470295D02*
X240992857Y-80613152D01*
X240992857Y-80613152D02*
X241040476Y-80708390D01*
X241040476Y-80708390D02*
X241088095Y-80756009D01*
X241088095Y-80756009D02*
X241183333Y-80803628D01*
X241183333Y-80803628D02*
X241564285Y-80803628D01*
X240040476Y-81279819D02*
X240611904Y-81279819D01*
X240326190Y-81279819D02*
X240326190Y-80279819D01*
X240326190Y-80279819D02*
X240421428Y-80422676D01*
X240421428Y-80422676D02*
X240516666Y-80517914D01*
X240516666Y-80517914D02*
X240611904Y-80565533D01*
X239135714Y-80279819D02*
X239611904Y-80279819D01*
X239611904Y-80279819D02*
X239659523Y-80756009D01*
X239659523Y-80756009D02*
X239611904Y-80708390D01*
X239611904Y-80708390D02*
X239516666Y-80660771D01*
X239516666Y-80660771D02*
X239278571Y-80660771D01*
X239278571Y-80660771D02*
X239183333Y-80708390D01*
X239183333Y-80708390D02*
X239135714Y-80756009D01*
X239135714Y-80756009D02*
X239088095Y-80851247D01*
X239088095Y-80851247D02*
X239088095Y-81089342D01*
X239088095Y-81089342D02*
X239135714Y-81184580D01*
X239135714Y-81184580D02*
X239183333Y-81232200D01*
X239183333Y-81232200D02*
X239278571Y-81279819D01*
X239278571Y-81279819D02*
X239516666Y-81279819D01*
X239516666Y-81279819D02*
X239611904Y-81232200D01*
X239611904Y-81232200D02*
X239659523Y-81184580D01*
X161039580Y-62357142D02*
X161087200Y-62309523D01*
X161087200Y-62309523D02*
X161134819Y-62166666D01*
X161134819Y-62166666D02*
X161134819Y-62071428D01*
X161134819Y-62071428D02*
X161087200Y-61928571D01*
X161087200Y-61928571D02*
X160991961Y-61833333D01*
X160991961Y-61833333D02*
X160896723Y-61785714D01*
X160896723Y-61785714D02*
X160706247Y-61738095D01*
X160706247Y-61738095D02*
X160563390Y-61738095D01*
X160563390Y-61738095D02*
X160372914Y-61785714D01*
X160372914Y-61785714D02*
X160277676Y-61833333D01*
X160277676Y-61833333D02*
X160182438Y-61928571D01*
X160182438Y-61928571D02*
X160134819Y-62071428D01*
X160134819Y-62071428D02*
X160134819Y-62166666D01*
X160134819Y-62166666D02*
X160182438Y-62309523D01*
X160182438Y-62309523D02*
X160230057Y-62357142D01*
X161134819Y-63309523D02*
X161134819Y-62738095D01*
X161134819Y-63023809D02*
X160134819Y-63023809D01*
X160134819Y-63023809D02*
X160277676Y-62928571D01*
X160277676Y-62928571D02*
X160372914Y-62833333D01*
X160372914Y-62833333D02*
X160420533Y-62738095D01*
X160134819Y-63642857D02*
X160134819Y-64309523D01*
X160134819Y-64309523D02*
X161134819Y-63880952D01*
X236992857Y-85854580D02*
X237040476Y-85902200D01*
X237040476Y-85902200D02*
X237183333Y-85949819D01*
X237183333Y-85949819D02*
X237278571Y-85949819D01*
X237278571Y-85949819D02*
X237421428Y-85902200D01*
X237421428Y-85902200D02*
X237516666Y-85806961D01*
X237516666Y-85806961D02*
X237564285Y-85711723D01*
X237564285Y-85711723D02*
X237611904Y-85521247D01*
X237611904Y-85521247D02*
X237611904Y-85378390D01*
X237611904Y-85378390D02*
X237564285Y-85187914D01*
X237564285Y-85187914D02*
X237516666Y-85092676D01*
X237516666Y-85092676D02*
X237421428Y-84997438D01*
X237421428Y-84997438D02*
X237278571Y-84949819D01*
X237278571Y-84949819D02*
X237183333Y-84949819D01*
X237183333Y-84949819D02*
X237040476Y-84997438D01*
X237040476Y-84997438D02*
X236992857Y-85045057D01*
X236040476Y-85949819D02*
X236611904Y-85949819D01*
X236326190Y-85949819D02*
X236326190Y-84949819D01*
X236326190Y-84949819D02*
X236421428Y-85092676D01*
X236421428Y-85092676D02*
X236516666Y-85187914D01*
X236516666Y-85187914D02*
X236611904Y-85235533D01*
X235183333Y-85283152D02*
X235183333Y-85949819D01*
X235421428Y-84902200D02*
X235659523Y-85616485D01*
X235659523Y-85616485D02*
X235040476Y-85616485D01*
X197095238Y-82150057D02*
X197190476Y-82102438D01*
X197190476Y-82102438D02*
X197285714Y-82007200D01*
X197285714Y-82007200D02*
X197428571Y-81864342D01*
X197428571Y-81864342D02*
X197523809Y-81816723D01*
X197523809Y-81816723D02*
X197619047Y-81816723D01*
X197571428Y-82054819D02*
X197666666Y-82007200D01*
X197666666Y-82007200D02*
X197761904Y-81911961D01*
X197761904Y-81911961D02*
X197809523Y-81721485D01*
X197809523Y-81721485D02*
X197809523Y-81388152D01*
X197809523Y-81388152D02*
X197761904Y-81197676D01*
X197761904Y-81197676D02*
X197666666Y-81102438D01*
X197666666Y-81102438D02*
X197571428Y-81054819D01*
X197571428Y-81054819D02*
X197380952Y-81054819D01*
X197380952Y-81054819D02*
X197285714Y-81102438D01*
X197285714Y-81102438D02*
X197190476Y-81197676D01*
X197190476Y-81197676D02*
X197142857Y-81388152D01*
X197142857Y-81388152D02*
X197142857Y-81721485D01*
X197142857Y-81721485D02*
X197190476Y-81911961D01*
X197190476Y-81911961D02*
X197285714Y-82007200D01*
X197285714Y-82007200D02*
X197380952Y-82054819D01*
X197380952Y-82054819D02*
X197571428Y-82054819D01*
X196761904Y-81150057D02*
X196714285Y-81102438D01*
X196714285Y-81102438D02*
X196619047Y-81054819D01*
X196619047Y-81054819D02*
X196380952Y-81054819D01*
X196380952Y-81054819D02*
X196285714Y-81102438D01*
X196285714Y-81102438D02*
X196238095Y-81150057D01*
X196238095Y-81150057D02*
X196190476Y-81245295D01*
X196190476Y-81245295D02*
X196190476Y-81340533D01*
X196190476Y-81340533D02*
X196238095Y-81483390D01*
X196238095Y-81483390D02*
X196809523Y-82054819D01*
X196809523Y-82054819D02*
X196190476Y-82054819D01*
X170761904Y-70104819D02*
X170761904Y-70914342D01*
X170761904Y-70914342D02*
X170714285Y-71009580D01*
X170714285Y-71009580D02*
X170666666Y-71057200D01*
X170666666Y-71057200D02*
X170571428Y-71104819D01*
X170571428Y-71104819D02*
X170380952Y-71104819D01*
X170380952Y-71104819D02*
X170285714Y-71057200D01*
X170285714Y-71057200D02*
X170238095Y-71009580D01*
X170238095Y-71009580D02*
X170190476Y-70914342D01*
X170190476Y-70914342D02*
X170190476Y-70104819D01*
X169761904Y-70200057D02*
X169714285Y-70152438D01*
X169714285Y-70152438D02*
X169619047Y-70104819D01*
X169619047Y-70104819D02*
X169380952Y-70104819D01*
X169380952Y-70104819D02*
X169285714Y-70152438D01*
X169285714Y-70152438D02*
X169238095Y-70200057D01*
X169238095Y-70200057D02*
X169190476Y-70295295D01*
X169190476Y-70295295D02*
X169190476Y-70390533D01*
X169190476Y-70390533D02*
X169238095Y-70533390D01*
X169238095Y-70533390D02*
X169809523Y-71104819D01*
X169809523Y-71104819D02*
X169190476Y-71104819D01*
D13*
%TO.C,R7*%
X235577064Y-73440000D02*
X235122936Y-73440000D01*
X235577064Y-74910000D02*
X235122936Y-74910000D01*
%TO.C,C6*%
X201738748Y-59765000D02*
X202261252Y-59765000D01*
X201738748Y-61235000D02*
X202261252Y-61235000D01*
%TO.C,R10*%
X198515000Y-70727064D02*
X198515000Y-70272936D01*
X199985000Y-70727064D02*
X199985000Y-70272936D01*
%TO.C,R4*%
X182227064Y-58265000D02*
X181772936Y-58265000D01*
X182227064Y-59735000D02*
X181772936Y-59735000D01*
%TO.C,R14*%
X235577064Y-78440000D02*
X235122936Y-78440000D01*
X235577064Y-79910000D02*
X235122936Y-79910000D01*
%TO.C,R11*%
X212740000Y-65687064D02*
X212740000Y-65232936D01*
X214210000Y-65687064D02*
X214210000Y-65232936D01*
%TO.C,J2*%
X158200000Y-91100000D02*
X154400000Y-91100000D01*
X160800000Y-90800000D02*
X161800000Y-90800000D01*
X161500000Y-94400000D02*
X161500000Y-93200000D01*
X161500000Y-99700000D02*
X161500000Y-96000000D01*
X161500000Y-101800000D02*
X154400000Y-101800000D01*
X161500000Y-101800000D02*
X161500000Y-101300000D01*
X161800000Y-91800000D02*
X161800000Y-90800000D01*
%TO.C,R3*%
X173265000Y-68227064D02*
X173265000Y-67772936D01*
X174735000Y-68227064D02*
X174735000Y-67772936D01*
%TO.C,U7*%
X172070000Y-103150000D02*
X168470000Y-103150000D01*
X170270000Y-107600000D02*
G75*
G02*
X168431522Y-103161522I0J2600000D01*
G01*
X172108478Y-103161522D02*
G75*
G02*
X170270000Y-107600000I-1838478J-1838478D01*
G01*
%TO.C,U1*%
X179525000Y-63835000D02*
X181475000Y-63835000D01*
X179525000Y-72705000D02*
X181475000Y-72705000D01*
X183425000Y-63835000D02*
X181475000Y-63835000D01*
X183425000Y-72705000D02*
X181475000Y-72705000D01*
X184175000Y-63900000D02*
X183935000Y-63570000D01*
X184415000Y-63570000D01*
X184175000Y-63900000D01*
G36*
X184175000Y-63900000D02*
G01*
X183935000Y-63570000D01*
X184415000Y-63570000D01*
X184175000Y-63900000D01*
G37*
%TO.C,R16*%
X245577064Y-78440000D02*
X245122936Y-78440000D01*
X245577064Y-79910000D02*
X245122936Y-79910000D01*
%TO.C,R9*%
X245577064Y-73440000D02*
X245122936Y-73440000D01*
X245577064Y-74910000D02*
X245122936Y-74910000D01*
%TO.C,J1*%
D12*
X219000000Y-89900000D02*
X205000000Y-89900000D01*
X205000000Y-98100000D01*
X219000000Y-98100000D01*
X219000000Y-89900000D01*
D13*
%TO.C,R6*%
X186227064Y-58265000D02*
X185772936Y-58265000D01*
X186227064Y-59735000D02*
X185772936Y-59735000D01*
%TO.C,C15*%
X245088748Y-86440000D02*
X245611252Y-86440000D01*
X245088748Y-87910000D02*
X245611252Y-87910000D01*
%TO.C,R1*%
X212702064Y-74725000D02*
X212247936Y-74725000D01*
X212702064Y-76195000D02*
X212247936Y-76195000D01*
%TO.C,R12*%
X209702064Y-59725000D02*
X209247936Y-59725000D01*
X209702064Y-61195000D02*
X209247936Y-61195000D01*
%TO.C,R5*%
X188265000Y-66772936D02*
X188265000Y-67227064D01*
X189735000Y-66772936D02*
X189735000Y-67227064D01*
%TO.C,D1*%
X199880000Y-96070000D02*
X199880000Y-100310000D01*
X199880000Y-100310000D02*
X202120000Y-100310000D01*
X201000000Y-96070000D02*
X201000000Y-95420000D01*
X201000000Y-100310000D02*
X201000000Y-100960000D01*
X202120000Y-96070000D02*
X199880000Y-96070000D01*
X202120000Y-96670000D02*
X199880000Y-96670000D01*
X202120000Y-96790000D02*
X199880000Y-96790000D01*
X202120000Y-96910000D02*
X199880000Y-96910000D01*
X202120000Y-100310000D02*
X202120000Y-96070000D01*
D14*
%TO.C,R2*%
X181805940Y-86940800D02*
X185661660Y-86940800D01*
X185661660Y-77288800D02*
X181805940Y-77288800D01*
D13*
%TO.C,U3*%
X237140000Y-90490000D02*
X241000000Y-90490000D01*
X237140000Y-90725000D02*
X237140000Y-90490000D01*
X237140000Y-103275000D02*
X237140000Y-103510000D01*
X237140000Y-103510000D02*
X241000000Y-103510000D01*
X244860000Y-90490000D02*
X241000000Y-90490000D01*
X244860000Y-90725000D02*
X244860000Y-90490000D01*
X244860000Y-103275000D02*
X244860000Y-103510000D01*
X244860000Y-103510000D02*
X241000000Y-103510000D01*
X245712500Y-90725000D02*
X245372500Y-90255000D01*
X246052500Y-90255000D01*
X245712500Y-90725000D01*
G36*
X245712500Y-90725000D02*
G01*
X245372500Y-90255000D01*
X246052500Y-90255000D01*
X245712500Y-90725000D01*
G37*
D11*
%TO.C,REF\u002A\u002A*%
X161000000Y-83000000D02*
X161000000Y-85000000D01*
X161000000Y-86100000D02*
X161000000Y-87000000D01*
X161749999Y-84325001D02*
G75*
G02*
X160325001Y-84250001I-749999J-674999D01*
G01*
X161925000Y-82000000D02*
G75*
G02*
X160075000Y-82000000I-925000J0D01*
G01*
X160075000Y-82000000D02*
G75*
G02*
X161925000Y-82000000I925000J0D01*
G01*
D15*
X161175000Y-85000000D02*
G75*
G02*
X160825000Y-85000000I-175000J0D01*
G01*
X160825000Y-85000000D02*
G75*
G02*
X161175000Y-85000000I175000J0D01*
G01*
D11*
X161925000Y-88000000D02*
G75*
G02*
X160075000Y-88000000I-925000J0D01*
G01*
X160075000Y-88000000D02*
G75*
G02*
X161925000Y-88000000I925000J0D01*
G01*
D13*
%TO.C,U6*%
X172070000Y-95150000D02*
X168470000Y-95150000D01*
X170270000Y-99600000D02*
G75*
G02*
X168431522Y-95161522I0J2600000D01*
G01*
X172108478Y-95161522D02*
G75*
G02*
X170270000Y-99600000I-1838478J-1838478D01*
G01*
%TO.C,R8*%
X240577064Y-73440000D02*
X240122936Y-73440000D01*
X240577064Y-74910000D02*
X240122936Y-74910000D01*
%TO.C,C1*%
X207765000Y-79761252D02*
X207765000Y-79238748D01*
X209235000Y-79761252D02*
X209235000Y-79238748D01*
%TO.C,R13*%
X212740000Y-70687064D02*
X212740000Y-70232936D01*
X214210000Y-70687064D02*
X214210000Y-70232936D01*
%TO.C,C7*%
X175738748Y-60265000D02*
X176261252Y-60265000D01*
X175738748Y-61735000D02*
X176261252Y-61735000D01*
D14*
%TO.C,K1*%
X177423800Y-90113300D02*
X177423800Y-105886700D01*
X177423800Y-105886700D02*
X196677000Y-105886700D01*
D12*
X180776000Y-102064000D02*
X180776000Y-103080000D01*
X181792000Y-95968000D02*
X186110000Y-98000000D01*
X182046000Y-102064000D02*
X182808000Y-101556000D01*
X182808000Y-101556000D02*
X183316000Y-102064000D01*
X183316000Y-102064000D02*
X180776000Y-102064000D01*
X186110000Y-98000000D02*
X187634000Y-98000000D01*
X188396000Y-94952000D02*
X191444000Y-101048000D01*
X189920000Y-91904000D02*
X189920000Y-94952000D01*
X189920000Y-104096000D02*
X189920000Y-101048000D01*
X191952000Y-91904000D02*
X189920000Y-91904000D01*
X191952000Y-98000000D02*
X193984000Y-98000000D01*
X191952000Y-104096000D02*
X189920000Y-104096000D01*
D14*
X196677000Y-90113300D02*
X177423800Y-90113300D01*
X196677000Y-105886700D02*
X196677000Y-90113300D01*
D12*
X188396000Y-94952000D02*
X191444000Y-94952000D01*
X191444000Y-101048000D01*
X188396000Y-101048000D01*
X188396000Y-94952000D01*
D13*
%TO.C,U4*%
X204050000Y-63565000D02*
X206000000Y-63565000D01*
X204050000Y-72435000D02*
X206000000Y-72435000D01*
X207950000Y-63565000D02*
X206000000Y-63565000D01*
X207950000Y-72435000D02*
X206000000Y-72435000D01*
X208700000Y-63630000D02*
X208460000Y-63300000D01*
X208940000Y-63300000D01*
X208700000Y-63630000D01*
G36*
X208700000Y-63630000D02*
G01*
X208460000Y-63300000D01*
X208940000Y-63300000D01*
X208700000Y-63630000D01*
G37*
%TO.C,R15*%
X240577064Y-78440000D02*
X240122936Y-78440000D01*
X240577064Y-79910000D02*
X240122936Y-79910000D01*
%TO.C,C17*%
X158265000Y-62738748D02*
X158265000Y-63261252D01*
X159735000Y-62738748D02*
X159735000Y-63261252D01*
%TO.C,C14*%
X236088748Y-86440000D02*
X236611252Y-86440000D01*
X236088748Y-87910000D02*
X236611252Y-87910000D01*
%TO.C,Q2*%
X196200000Y-82440000D02*
X197000000Y-82440000D01*
X196200000Y-85560000D02*
X197000000Y-85560000D01*
X197800000Y-82440000D02*
X197000000Y-82440000D01*
X197800000Y-85560000D02*
X197000000Y-85560000D01*
X198300000Y-82490000D02*
X198060000Y-82160000D01*
X198540000Y-82160000D01*
X198300000Y-82490000D01*
G36*
X198300000Y-82490000D02*
G01*
X198060000Y-82160000D01*
X198540000Y-82160000D01*
X198300000Y-82490000D01*
G37*
%TO.C,U2*%
X164880000Y-71650000D02*
X175120000Y-71650000D01*
X164880000Y-87540000D02*
X164880000Y-71650000D01*
X164880000Y-87540000D02*
X175120000Y-87540000D01*
X167460000Y-90080000D02*
X167460000Y-87540000D01*
X170000000Y-90080000D02*
X170000000Y-87540000D01*
X172540000Y-90080000D02*
X172540000Y-87540000D01*
X175120000Y-87540000D02*
X175120000Y-71650000D01*
%TD*%
M02*
